<?xml version="1.0" standalone="no"?>
<!DOCTYPE svg PUBLIC "-//W3C//DTD SVG 1.1//EN" "http://www.w3.org/Graphics/SVG/1.1/DTD/svg11.dtd" >
<svg xmlns="http://www.w3.org/2000/svg" xmlns:xlink="http://www.w3.org/1999/xlink" version="1.1">
<metadata>
Created by FontForge 20190801 at Tue May  6 10:26:53 2014
 By Unknown
Copyright (c) 2000, Modular Infotech, Pune, INDIA.
</metadata>
<defs>
<font id="ShreeDev0714" horiz-adv-x="0" >
  <font-face 
    font-family="Shree Devanagari 714"
    font-weight="400"
    font-stretch="normal"
    units-per-em="805"
    panose-1="2 0 6 0 0 0 0 0 0 0"
    ascent="644"
    descent="-161"
    x-height="426"
    cap-height="593"
    bbox="-560 -387 915 775"
    underline-thickness="20"
    underline-position="-367"
    unicode-range="U+0020-25CC"
  />
<missing-glyph horiz-adv-x="288" 
d="M26 0v536h210v-536h-210zM52 26h158v484h-158v-484z" />
    <glyph glyph-name=".notdef" horiz-adv-x="288" 
d="M26 0v536h210v-536h-210zM52 26h158v484h-158v-484z" />
    <glyph glyph-name=".null" 
 />
    <glyph glyph-name="nonmarkingreturn" horiz-adv-x="268" 
 />
    <glyph glyph-name="space" unicode=" " horiz-adv-x="320" 
 />
    <glyph glyph-name="exclam" unicode="!" horiz-adv-x="178" 
d="M64 0v61h50v-61h-50v0zM65 593h49v-198l-15 -228h-19l-15 228v198v0z" />
    <glyph glyph-name="quotedbl" unicode="&#x22;" horiz-adv-x="284" 
d="M94 433h-18l-12 179h48l-18 -179v0zM202 433h-18l-12 179h48l-18 -179v0z" />
    <glyph glyph-name="numbersign" unicode="#" horiz-adv-x="679" 
d="M116 344v32h145l38 123h35l-40 -123h172l37 123h35l-39 -123h116v-32h-126l-56 -173h131v-32h-142l-44 -139h-35l45 139h-170l-44 -139h-36l45 139h-119v32h126l60 173h-134v0zM450 344h-166l-56 -173h167l55 173v0z" />
    <glyph glyph-name="dollar" unicode="$" horiz-adv-x="565" 
d="M260 -6q-83 6 -139 62q-57 57 -57 134h46q0 -62 43 -108q43 -45 107 -51v261q-78 12 -130 59q-51 47 -51 105q0 62 52 108q53 46 129 51v65h38v-65q81 -6 137 -54q55 -48 55 -112h-46q0 49 -42 86t-104 42v-246q86 -8 145 -55q58 -47 58 -109q0 -67 -59 -117
q-58 -50 -144 -56v-62h-38v62v0zM298 31q68 6 115 45q46 39 46 91q0 44 -46 79t-115 42v-257v0zM260 577q-57 -5 -96 -40t-39 -81q0 -41 38 -75t97 -45v241v0z" />
    <glyph glyph-name="percent" unicode="%" horiz-adv-x="714" 
d="M110 0l460 608h46l-457 -608h-49v0zM201 311q-57 0 -97 41q-40 42 -40 100t40 100q40 41 97 41t97 -41q40 -42 40 -100t-40 -100q-40 -41 -97 -41v0zM201 346q41 0 69 31q29 31 29 75t-29 75q-28 31 -69 31t-70 -31t-29 -75t29 -75t70 -31v0zM513 0q-57 0 -97 41
q-40 42 -40 100t40 99t97 41t97 -41t40 -99t-40 -100q-40 -41 -97 -41v0zM513 34q41 0 69 31q29 32 29 76q0 43 -29 74q-28 31 -69 31t-70 -31t-29 -74q0 -44 29 -76q29 -31 70 -31v0z" />
    <glyph glyph-name="ampersand" unicode="&#x26;" horiz-adv-x="506" 
d="M209 -7q-79 0 -134 52q-56 52 -56 126q0 51 41 101t111 82q-33 40 -51 77t-18 67q0 48 36 77q35 29 94 29q44 0 75 -31t31 -75q0 -40 -31 -81q-30 -40 -83 -71l160 -198q38 54 38 122h38q0 -77 -50 -148l88 -122h-42l-68 87q-33 -47 -78 -70q-45 -24 -101 -24v0zM217 26
q42 0 81 25q38 24 63 67l-167 208q-63 -29 -100 -71t-37 -84q0 -60 47 -103q47 -42 113 -42v0zM202 372q45 21 71 53q27 32 27 65q0 35 -22 59q-23 25 -54 25q-34 0 -59 -23q-24 -24 -24 -57q0 -29 16 -61t45 -61v0z" />
    <glyph glyph-name="quotesingle" unicode="'" horiz-adv-x="177" 
d="M94 433h-18l-12 179h49l-19 -179v0z" />
    <glyph glyph-name="parenleft" unicode="(" horiz-adv-x="280" 
d="M184 -76q-58 69 -89 157q-31 89 -31 185q0 95 31 183q32 89 91 159h30q-55 -66 -85 -154q-29 -88 -29 -188t29 -188q30 -88 85 -154h-32v0z" />
    <glyph glyph-name="parenright" unicode=")" horiz-adv-x="287" 
d="M64 -76q59 70 91 159q31 88 31 183t-31 183q-32 89 -91 159h30q62 -74 96 -163q33 -88 33 -179t-33 -179q-34 -89 -96 -163h-30v0z" />
    <glyph glyph-name="asterisk" unicode="*" horiz-adv-x="456" 
d="M191 588q0 18 10 31q11 13 25 13q12 0 23 -14q10 -14 10 -30q0 -48 -33 -116q-35 72 -35 116v0zM84 493q-13 7 -18 21t2 25q5 9 21 11q15 1 28 -6q49 -27 90 -84q-75 7 -123 33v0zM123 357q-16 -9 -31 -8t-21 11q-5 9 1 22q7 14 20 21q58 32 114 35q-38 -56 -83 -81v0z
M253 307q0 -15 -9 -26t-21 -11q-11 0 -20 12q-9 11 -9 25q0 53 32 119q27 -55 27 -119v0zM364 404q15 -8 22 -21t1 -22t-21 -11q-16 -2 -29 5q-49 27 -91 85q63 -6 118 -36v0zM337 542q15 8 31 6q15 -2 22 -13q5 -9 -1 -23q-7 -14 -20 -21q-41 -23 -123 -30q37 51 91 81v0z
" />
    <glyph glyph-name="plus" unicode="+" horiz-adv-x="503" 
d="M233 21v169h-169v38h169v169h37v-169h169v-38h-169v-169h-37v0z" />
    <glyph glyph-name="comma" unicode="," horiz-adv-x="186" 
d="M76 -114l-8 20q11 0 18 14q8 14 8 34v46h-30v61h58v-107q0 -28 -13 -48q-14 -20 -33 -20v0z" />
    <glyph glyph-name="hyphen" unicode="-" horiz-adv-x="446" 
d="M64 202v37h318v-37h-318v0z" />
    <glyph glyph-name="period" unicode="." horiz-adv-x="186" 
d="M64 0v61h58v-61h-58v0z" />
    <glyph glyph-name="slash" unicode="/" horiz-adv-x="470" 
d="M64 -48l304 608h38l-304 -608h-38v0z" />
    <glyph glyph-name="zero" unicode="0" horiz-adv-x="476" 
d="M238 -7q-90 0 -140 80q-50 79 -50 223t50 224t140 80t140 -80t50 -224t-50 -223q-50 -80 -140 -80v0zM238 26q72 0 112 71t40 199t-40 199t-112 71t-112 -71t-40 -199t40 -199t112 -71v0z" />
    <glyph glyph-name="one" unicode="1" horiz-adv-x="477" 
d="M288 0v464h-137v26h31q42 0 75 31q34 32 42 80h27v-601h-38v0z" />
    <glyph glyph-name="two" unicode="2" horiz-adv-x="477" 
d="M56 0v53q0 55 54 113q53 58 144 100q55 26 88 71t33 96q0 53 -40 91t-97 38q-53 0 -91 -45q-38 -44 -38 -107h-42q0 79 50 134q50 56 121 56q76 0 129 -49q54 -49 54 -118q0 -60 -41 -114q-41 -55 -111 -87q-76 -35 -121 -81q-46 -46 -46 -86v-27h319v-38h-365v0z" />
    <glyph glyph-name="three" unicode="3" horiz-adv-x="476" 
d="M238 -7q-79 0 -134 47q-56 46 -56 112v7h42v-7q0 -52 43 -89q44 -37 105 -37t105 41q43 42 43 100q0 51 -35 86q-34 36 -83 36h-68v37h68q39 0 67 34q28 33 28 81q0 50 -39 86q-39 35 -94 35q-53 0 -91 -34q-38 -35 -38 -83v-19h-42l4 30q0 60 49 103q49 42 118 42
q72 0 124 -47q51 -47 51 -113q0 -43 -23 -79q-22 -36 -60 -54q47 -13 76 -52q30 -39 30 -89q0 -72 -56 -123q-55 -51 -134 -51v0z" />
    <glyph glyph-name="four" unicode="4" horiz-adv-x="477" 
d="M306 0v144h-265v46l273 411h31v-419h91v-38h-91v-144h-39v0zM78 182h228v350l-228 -350v0z" />
    <glyph glyph-name="five" unicode="5" horiz-adv-x="476" 
d="M238 -7q-75 0 -130 43q-54 44 -60 108h38q9 -49 52 -82q43 -32 100 -32q63 0 107 45q45 44 45 107q0 66 -45 113q-44 47 -107 47q-42 0 -78 -16q-35 -16 -55 -45h-35l54 320h274v-39h-244l-38 -232q15 22 50 34q34 12 80 12q75 0 129 -54q53 -55 53 -132q0 -82 -56 -139
q-55 -58 -134 -58v0z" />
    <glyph glyph-name="six" unicode="6" horiz-adv-x="476" 
d="M246 -7q-98 0 -148 69t-50 204q0 158 56 246t157 88q69 0 118 -40t49 -97h-42q0 41 -37 70q-36 29 -88 29q-71 0 -121 -71q-50 -72 -50 -172v-53q17 48 60 77t96 29q75 0 129 -56q53 -55 53 -134q0 -78 -53 -134q-54 -55 -129 -55v0zM246 26q60 0 102 46q42 45 42 110
t-42 110q-42 46 -102 46t-103 -46q-42 -45 -42 -110t42 -110q43 -46 103 -46v0z" />
    <glyph glyph-name="seven" unicode="7" horiz-adv-x="477" 
d="M139 0q0 146 66 300q65 153 174 262h-323v39h365v-39q-107 -107 -172 -261q-64 -153 -64 -301h-46v0z" />
    <glyph glyph-name="eight" unicode="8" horiz-adv-x="476" 
d="M238 -7q-79 0 -134 49q-56 48 -56 117q0 53 32 97q33 44 86 63q-42 20 -67 55t-25 74q0 63 48 107q48 45 116 45t116 -45q48 -44 48 -107q0 -43 -25 -78q-26 -36 -67 -51q53 -19 86 -63q32 -44 32 -97q0 -69 -56 -117q-55 -49 -134 -49v0zM238 26q63 0 107 39
q45 39 45 94q0 57 -45 97q-44 40 -107 40t-107 -40q-45 -40 -45 -97q0 -55 45 -94q44 -39 107 -39v0zM238 334q52 0 88 35q37 34 37 83q0 47 -37 81q-36 33 -88 33t-88 -33q-37 -34 -37 -81q0 -49 37 -83q36 -35 88 -35v0z" />
    <glyph glyph-name="nine" unicode="9" horiz-adv-x="476" 
d="M230 -7q-63 0 -110 37q-47 36 -57 92h38q8 -43 44 -72q37 -28 85 -28q66 0 113 72q47 71 47 172v57q-18 -50 -60 -80t-92 -30q-86 0 -138 52q-52 51 -52 137q0 90 50 145q49 54 132 54q94 0 146 -78t52 -219q0 -148 -52 -229q-52 -82 -146 -82v0zM234 250q58 0 99 45
q41 44 41 107q0 66 -43 113q-44 47 -105 47q-64 0 -102 -44q-38 -43 -38 -116q0 -69 40 -110q41 -42 108 -42v0z" />
    <glyph glyph-name="colon" unicode=":" horiz-adv-x="190" 
d="M64 0v61h62v-61h-62v0zM64 365v61h62v-61h-62v0z" />
    <glyph glyph-name="semicolon" unicode=";" horiz-adv-x="194" 
d="M84 -114v28q7 0 13 10q5 9 5 23v53h-38v61h66v-114q0 -25 -13 -43q-14 -18 -33 -18v0zM64 365v61h66v-61h-66v0z" />
    <glyph glyph-name="less" unicode="&#x3c;" horiz-adv-x="431" 
d="M64 195v46l303 181v-37l-276 -165l276 -166v-38l-303 179v0z" />
    <glyph glyph-name="equal" unicode="=" horiz-adv-x="448" 
d="M64 103v39h320v-39h-320v0zM64 275v39h320v-39h-320v0z" />
    <glyph glyph-name="greater" unicode="&#x3e;" horiz-adv-x="432" 
d="M368 199l-304 -179v38l273 166l-273 165v37l304 -181v-46v0z" />
    <glyph glyph-name="question" unicode="?" horiz-adv-x="470" 
d="M216 0v61h46v-61h-46v0zM216 159v31q0 39 26 79q26 41 72 73q25 18 40 48q14 30 14 66q0 51 -39 86q-39 36 -94 36t-94 -38t-39 -92v-22h-38v22q0 66 49 113t118 47q72 0 124 -43q51 -44 51 -105q0 -51 -21 -93q-22 -42 -59 -63q-33 -19 -53 -54q-19 -35 -19 -76v-15h-38
v0z" />
    <glyph glyph-name="at" unicode="@" horiz-adv-x="886" 
d="M255 228q0 80 54 137q55 57 133 57q44 0 83 -23q38 -22 65 -60v75h40v-306q0 -24 19 -40q18 -17 45 -17q53 0 91 59q37 60 37 144q0 145 -110 247q-110 103 -266 103q-157 0 -268 -105q-111 -106 -111 -255q0 -151 111 -258t268 -107q73 0 137 19t112 56l18 -35
q-43 -36 -112 -56q-69 -19 -155 -19q-172 0 -293 117q-122 117 -122 283q0 163 122 279q121 115 293 115q170 0 291 -112q120 -113 120 -272q0 -99 -45 -168q-46 -70 -110 -70q-40 0 -71 22q-32 23 -41 58h-12q-25 -30 -61 -46q-35 -16 -75 -16q-78 0 -133 57
q-54 57 -54 137v0zM295 228q0 -66 42 -113q42 -49 105 -49t106 49q42 47 42 113t-42 113q-43 49 -106 49t-105 -49q-42 -47 -42 -113v0z" />
    <glyph glyph-name="A" unicode="A" horiz-adv-x="534" 
d="M54 0h-45l235 593h50l232 -593h-46l-76 190h-274l-76 -190v0zM142 228h247l-122 319l-125 -319v0z" />
    <glyph glyph-name="B" unicode="B" horiz-adv-x="527" 
d="M64 0v593h276q54 0 93 -41q38 -42 38 -100q0 -55 -23 -95q-22 -40 -57 -46q46 -8 77 -49q30 -41 30 -95q0 -69 -46 -118q-47 -49 -112 -49h-276v0zM104 38h228q52 0 89 38t37 91q0 51 -37 86q-37 36 -89 36h-228v-251v0zM104 326h228q41 0 70 37t29 89q0 42 -29 72
t-70 30h-228v-228v0z" />
    <glyph glyph-name="C" unicode="C" horiz-adv-x="557" 
d="M302 -15q-113 0 -192 91q-80 91 -80 220t80 221q79 91 192 91q93 0 157 -50q64 -49 79 -132h-40q-11 62 -67 103q-55 41 -129 41q-96 0 -164 -80q-68 -81 -68 -194t68 -194q68 -80 164 -80q82 0 135 48q54 48 61 128h40q-8 -97 -73 -155q-64 -58 -163 -58v0z" />
    <glyph glyph-name="D" unicode="D" horiz-adv-x="556" 
d="M64 0v593h235q94 0 161 -85q66 -84 66 -204q0 -126 -66 -215q-67 -89 -161 -89h-235v0zM104 38h195q77 0 132 78t55 188q0 104 -55 177t-132 73h-195v-516v0z" />
    <glyph glyph-name="E" unicode="E" horiz-adv-x="462" 
d="M451 0h-387v593h387v-39h-347v-228h317v-37h-317v-251h347v-38v0z" />
    <glyph glyph-name="F" unicode="F" horiz-adv-x="437" 
d="M104 0h-40v593h367v-39h-327v-228h289v-37h-289v-289v0z" />
    <glyph glyph-name="G" unicode="G" horiz-adv-x="586" 
d="M310 -15q-116 0 -199 91q-82 91 -82 220t82 221q83 91 199 91q88 0 155 -52q67 -51 81 -130h-40q-11 62 -67 103q-55 41 -129 41q-100 0 -170 -80q-71 -81 -71 -194t71 -194q70 -80 170 -80q85 0 145 65q60 64 60 156v15h-205v38h236v-296h-31v122q-22 -62 -79 -99
q-56 -38 -126 -38v0z" />
    <glyph glyph-name="H" unicode="H" horiz-adv-x="566" 
d="M104 0h-40v593h40v-259h358v259h40v-593h-40v296h-358v-296v0z" />
    <glyph glyph-name="I" unicode="I" horiz-adv-x="168" 
d="M104 0h-40v593h40v-593v0z" />
    <glyph glyph-name="J" unicode="J" horiz-adv-x="390" 
d="M170 -11q-71 0 -114 45q-43 44 -43 118v22h40v-22q0 -59 32 -94q32 -36 85 -36q55 0 89 36q33 35 33 94v441h40v-441q0 -74 -44 -118q-44 -45 -118 -45v0z" />
    <glyph glyph-name="K" unicode="K" horiz-adv-x="518" 
d="M104 0h-40v593h40v-327l346 327h51l-255 -247l266 -346h-49l-247 319l-112 -102v-217v0z" />
    <glyph glyph-name="L" unicode="L" horiz-adv-x="427" 
d="M64 0v593h40v-555h319v-38h-359v0z" />
    <glyph glyph-name="M" unicode="M" horiz-adv-x="687" 
d="M104 0h-40v593h63l217 -543l216 543h63v-593h-40v547l-221 -547h-37l-221 547v-547v0z" />
    <glyph glyph-name="N" unicode="N" horiz-adv-x="581" 
d="M104 0h-40v593h55l358 -544v544h40v-593h-55l-358 536v-536v0z" />
    <glyph glyph-name="O" unicode="O" horiz-adv-x="592" 
d="M296 -7q-120 0 -192 83t-72 220q0 142 72 227t192 85t192 -85t72 -227q0 -137 -72 -220t-192 -83v0zM296 30q102 0 163 73q61 72 61 193q0 124 -61 199t-163 75t-163 -75t-61 -199q0 -121 61 -193q61 -73 163 -73v0z" />
    <glyph glyph-name="P" unicode="P" horiz-adv-x="492" 
d="M104 0h-40v593h268q58 0 98 -47q41 -47 41 -113q0 -69 -41 -118q-40 -49 -98 -49h-228v-266v0zM104 304h221q44 0 75 36q31 35 31 86q0 53 -31 91q-31 37 -75 37h-221v-250v0z" />
    <glyph glyph-name="Q" unicode="Q" horiz-adv-x="593" 
d="M294 -15q-109 0 -187 91q-77 91 -77 220t77 221q78 91 187 91t187 -91q77 -92 77 -221q0 -78 -21 -141q-21 -64 -59 -102l80 -60l-28 -35l-84 68q-20 -20 -59 -30q-40 -11 -93 -11v0zM294 22q38 0 68 7t50 21l-57 44l31 35l60 -49q35 42 53 97q19 56 19 119
q0 113 -66 194q-65 80 -158 80t-158 -80q-66 -81 -66 -194t66 -194q65 -80 158 -80v0z" />
    <glyph glyph-name="R" unicode="R" horiz-adv-x="535" 
d="M104 0h-40v593h283q61 0 104 -46q43 -45 43 -110q0 -57 -26 -99q-27 -42 -67 -49q37 -10 60 -63t23 -128q0 -42 2 -63q2 -25 8 -35h-40q-10 12 -13 44l-3 85q0 60 -29 103q-28 42 -69 42h-236v-274v0zM104 311h236q47 0 81 36q33 35 33 86q0 50 -33 86q-34 35 -81 35
h-236v-243v0z" />
    <glyph glyph-name="S" unicode="S" horiz-adv-x="479" 
d="M232 -15q-86 0 -146 58q-61 57 -61 139h40q0 -66 49 -113t118 -47q75 0 129 40q53 40 53 97q0 49 -47 82q-46 33 -124 40q-95 8 -152 54t-57 113q0 66 58 113t140 47q88 0 151 -49q62 -49 62 -118h-40q0 53 -51 91q-50 38 -122 38q-65 0 -112 -36q-46 -35 -46 -86
q0 -50 48 -84q49 -34 129 -41q92 -8 148 -53q55 -45 55 -111q0 -72 -65 -123t-157 -51v0z" />
    <glyph glyph-name="T" unicode="T" horiz-adv-x="456" 
d="M247 0h-40v554h-203v39h448v-39h-205v-554v0z" />
    <glyph glyph-name="U" unicode="U" horiz-adv-x="546" 
d="M277 -15q-92 0 -158 60q-65 60 -65 145v403h40v-403q0 -70 54 -119q53 -49 129 -49q72 0 124 49q51 49 51 119v403h40v-403q0 -85 -63 -145t-152 -60v0z" />
    <glyph glyph-name="V" unicode="V" horiz-adv-x="490" 
d="M268 0h-46l-212 593h45l190 -540l190 540h46l-213 -593v0z" />
    <glyph glyph-name="W" unicode="W" horiz-adv-x="740" 
d="M222 0h-53l-156 593h45l137 -525l144 525h61l145 -525l137 525h45l-156 -593h-53l-148 536l-148 -536v0z" />
    <glyph glyph-name="X" unicode="X" horiz-adv-x="474" 
d="M62 0h-53l197 308l-182 285h53l160 -251l163 251h54l-191 -285l202 -308h-54l-174 270l-175 -270v0z" />
    <glyph glyph-name="Y" unicode="Y" horiz-adv-x="502" 
d="M278 0h-46v258l-228 335h57l193 -289l187 289h57l-220 -335v-258v0z" />
    <glyph glyph-name="Z" unicode="Z" horiz-adv-x="470" 
d="M11 0v38l387 516h-356v39h410v-39l-388 -516h395v-38h-448v0z" />
    <glyph glyph-name="bracketleft" unicode="[" horiz-adv-x="280" 
d="M64 -76v684h152v-38h-114v-608h114v-38h-152v0z" />
    <glyph glyph-name="backslash" unicode="\" horiz-adv-x="369" 
d="M305 -41h-34l-207 575h34l207 -575v0z" />
    <glyph glyph-name="bracketright" unicode="]" horiz-adv-x="280" 
d="M64 -76v38h114v608h-114v38h152v-684h-152v0z" />
    <glyph glyph-name="asciicircum" unicode="^" horiz-adv-x="489" 
d="M223 363h43l159 -271h-43l-132 230h-9l-133 -230h-44l159 271v0z" />
    <glyph glyph-name="underscore" unicode="_" horiz-adv-x="410" 
d="M0 -144v32h410v-32h-410v0z" />
    <glyph glyph-name="grave" unicode="`" horiz-adv-x="223" 
d="M159 486h-28l-67 152h61l34 -152v0z" />
    <glyph glyph-name="a" unicode="a" horiz-adv-x="429" 
d="M181 -15q-63 0 -107 35q-45 36 -45 86q0 48 44 84q43 36 108 42q63 6 103 20q41 14 41 33v38q0 33 -36 56q-35 23 -86 23q-48 0 -83 -22q-34 -23 -34 -54v-22h-38v26q0 43 45 73q46 30 110 30q66 0 113 -29t47 -70v-258q0 -25 11 -43t27 -18q5 0 9 1t6 3v-19
q-15 -7 -38 -7t-40 20q-16 20 -16 48q-12 -34 -51 -55t-90 -21v0zM181 15q53 0 94 35q41 34 50 87v98q-14 -12 -51 -20q-35 -8 -93 -13q-47 -4 -79 -32q-32 -27 -32 -64q0 -38 33 -64q32 -27 78 -27v0z" />
    <glyph glyph-name="b" unicode="b" horiz-adv-x="476" 
d="M253 -15q-47 0 -88 27q-40 26 -61 71v-83h-40v593h40v-263q17 46 58 75q41 28 91 28q84 0 134 -61q51 -61 51 -163t-51 -163q-50 -61 -134 -61v0zM253 19q67 0 108 52q40 52 40 138t-40 138q-41 52 -108 52q-62 0 -105 -56q-44 -55 -44 -134t44 -134q43 -56 105 -56v0z
" />
    <glyph glyph-name="c" unicode="c" horiz-adv-x="427" 
d="M237 -19q-84 0 -143 68t-59 164q0 94 59 161t143 67q69 0 118 -41q49 -42 49 -100h-40q0 42 -37 72t-90 30q-67 0 -115 -55q-47 -56 -47 -134q0 -80 47 -137q48 -57 115 -57q52 0 88 31q37 31 37 74h42q0 -59 -49 -101t-118 -42v0z" />
    <glyph glyph-name="d" unicode="d" horiz-adv-x="474" 
d="M222 -11q-77 0 -132 66q-55 65 -55 158q0 94 55 161t132 67q49 0 90 -29q40 -30 58 -78v259h40v-593h-40v87q-16 -44 -57 -71q-40 -27 -91 -27v0zM222 19q61 0 105 57q43 57 43 137t-43 136q-44 57 -105 57t-104 -57q-43 -56 -43 -136t43 -137t104 -57v0z" />
    <glyph glyph-name="e" unicode="e" horiz-adv-x="448" 
d="M228 -15q-86 0 -138 62q-52 63 -52 166t52 166q52 62 138 62t138 -57t52 -152v-19h-340q0 -87 41 -139t109 -52q51 0 92 27q42 28 58 73h40q-10 -59 -64 -98t-126 -39v0zM78 251h300v15q-5 59 -48 100q-44 40 -102 40t-101 -41q-44 -42 -49 -103v-11v0z" />
    <glyph glyph-name="f" unicode="f" horiz-adv-x="195" 
d="M113 0h-40v383h-67v39h67v80q0 38 27 64q27 27 65 27h24v-31h-23q-22 0 -37 -18q-16 -17 -16 -42v-80h76v-39h-76v-383v0z" />
    <glyph glyph-name="g" unicode="g" horiz-adv-x="470" 
d="M221 -152q-76 0 -129 40q-54 41 -54 98h38q0 -43 42 -74q43 -30 103 -30q66 0 105 35q40 35 40 94v87q-19 -42 -58 -66q-40 -25 -86 -25q-84 0 -134 59q-51 60 -51 158t51 158q50 59 134 59q49 0 89 -26q39 -26 55 -69v80h40v-416q0 -77 -49 -119q-48 -43 -136 -43v0z
M222 38q60 0 102 54q42 55 42 132t-42 132q-42 54 -102 54q-66 0 -105 -51q-40 -51 -40 -135t40 -135q39 -51 105 -51v0z" />
    <glyph glyph-name="h" unicode="h" horiz-adv-x="452" 
d="M104 0h-40v593h40v-247q20 43 60 69q39 26 85 26q60 0 103 -45q43 -44 43 -107v-289h-40v281q0 52 -31 88q-31 37 -75 37q-49 0 -89 -36q-41 -35 -56 -92v-278v0z" />
    <glyph glyph-name="i" unicode="i" horiz-adv-x="168" 
d="M104 0h-40v426h40v-426v0zM64 532v61h40v-61h-40v0z" />
    <glyph glyph-name="j" unicode="j" horiz-adv-x="168" 
d="M0 -160v30h45q27 0 44 23q16 23 16 61v472h40v-472q0 -52 -27 -83q-28 -31 -73 -31h-45v0zM105 532v61h40v-61h-40v0z" />
    <glyph glyph-name="k" unicode="k" horiz-adv-x="410" 
d="M104 0h-40v593h40v-388l228 221h50l-164 -156l183 -270h-42l-167 243l-88 -84v-159v0z" />
    <glyph glyph-name="l" unicode="l" horiz-adv-x="168" 
d="M104 0h-40v593h40v-593v0z" />
    <glyph glyph-name="m" unicode="m" horiz-adv-x="688" 
d="M104 0h-40v426h40v-72q18 38 51 60q33 23 71 23q45 0 79 -24q35 -25 45 -63q19 40 57 63q39 24 85 24q57 0 98 -39q40 -39 40 -94v-304h-40v304q0 42 -29 72q-28 30 -69 30q-47 0 -84 -33t-46 -84v-289h-40v304q0 42 -27 72t-65 30q-45 0 -81 -35q-35 -36 -45 -90v-281v0
z" />
    <glyph glyph-name="n" unicode="n" horiz-adv-x="450" 
d="M104 0h-40v426h40v-72q18 38 55 60q37 23 82 23q63 0 107 -41q45 -42 45 -100v-296h-40v296q0 44 -33 75t-79 31q-50 0 -89 -34q-39 -35 -48 -87v-281v0z" />
    <glyph glyph-name="o" unicode="o" horiz-adv-x="473" 
d="M237 -7q-91 0 -145 60q-55 60 -55 160q0 103 55 166q54 62 145 62q90 0 145 -62q54 -63 54 -166q0 -100 -54 -160q-55 -60 -145 -60v0zM237 26q72 0 116 51q43 51 43 136q0 88 -43 140q-44 53 -116 53q-73 0 -116 -53q-44 -52 -44 -140q0 -85 44 -136q43 -51 116 -51v0z
" />
    <glyph glyph-name="p" unicode="p" horiz-adv-x="476" 
d="M104 -160h-40v586h40v-88q17 46 57 75q40 28 88 28q86 0 137 -62q52 -63 52 -166q0 -100 -50 -160q-49 -60 -132 -60q-49 0 -90 27q-41 26 -62 71v-251v0zM253 22q66 0 105 53q40 54 40 142t-40 140q-39 53 -105 53q-62 0 -105 -57q-44 -56 -44 -136q0 -81 44 -138
q43 -57 105 -57v0z" />
    <glyph glyph-name="q" unicode="q" horiz-adv-x="474" 
d="M410 -160h-40v250q-17 -47 -57 -76t-88 -29q-85 0 -136 64t-51 171q0 100 51 161q51 60 136 60q46 0 85 -26q40 -26 60 -69v80h40v-586v0zM225 19q60 0 103 59q42 59 42 142q0 77 -42 132q-43 54 -103 54q-67 0 -107 -51t-40 -135q0 -91 40 -146t107 -55v0z" />
    <glyph glyph-name="r" unicode="r" horiz-adv-x="255" 
d="M104 0h-40v426h40v-96q17 46 50 75q34 28 72 28h23v-46q-3 0 -7 2q-3 2 -4 2q-47 0 -85 -40t-49 -101v-250v0z" />
    <glyph glyph-name="s" unicode="s" horiz-adv-x="392" 
d="M192 -11q-68 0 -115 40q-48 40 -48 97h37q0 -43 37 -74q37 -30 89 -30q60 0 97 27q36 28 36 73q0 34 -38 58q-38 23 -102 29q-68 6 -108 38q-41 32 -41 79q0 53 41 82t115 29q71 0 113 -31q43 -31 43 -83h-38q-7 39 -38 61t-80 22q-54 0 -86 -22t-32 -58q0 -34 39 -58
q38 -23 102 -29q67 -6 108 -40q40 -34 40 -85q0 -57 -47 -91q-46 -34 -124 -34v0z" />
    <glyph glyph-name="t" unicode="t" horiz-adv-x="189" 
d="M148 -15q-33 0 -57 27q-23 26 -23 64v319h-61v31h61v121h40v-121h58v-31h-58v-319q0 -25 13 -43q12 -18 30 -18q19 0 31 7v-29q-22 -8 -34 -8v0z" />
    <glyph glyph-name="u" unicode="u" horiz-adv-x="453" 
d="M204 -11q-60 0 -103 39t-43 94v304h40v-304q0 -41 31 -71q31 -29 75 -29q52 0 93 40t52 101v263h40v-426h-40v75q-18 -39 -58 -63q-39 -23 -87 -23v0z" />
    <glyph glyph-name="v" unicode="v" horiz-adv-x="383" 
d="M214 0h-42l-159 426h37l145 -380l137 380h38l-156 -426v0z" />
    <glyph glyph-name="w" unicode="w" horiz-adv-x="591" 
d="M155 0l-141 426h38l122 -373l99 373h45l99 -365l121 365h39l-141 -426h-38l-103 369l-102 -369h-38v0z" />
    <glyph glyph-name="x" unicode="x" horiz-adv-x="393" 
d="M10 0l160 224l-144 202h45l126 -172l125 172h45l-148 -202l163 -224h-45l-144 190l-137 -190h-46v0z" />
    <glyph glyph-name="y" unicode="y" horiz-adv-x="390" 
d="M46 -160v30h31q23 0 50 37t49 97l-163 422h37l145 -373l144 373h39l-183 -472q-19 -51 -49 -83q-31 -31 -62 -31h-38v0z" />
    <glyph glyph-name="z" unicode="z" horiz-adv-x="357" 
d="M15 0v30l278 357h-263v39h304v-35l-269 -353h277v-38h-327v0z" />
    <glyph glyph-name="braceleft" unicode="{" horiz-adv-x="361" 
d="M64 250q36 0 62 30q25 31 25 74v111q0 72 43 122q43 51 103 51v-29q-44 0 -75 -42t-31 -102v-111q0 -38 -18 -67q-18 -30 -48 -41v-8q30 -11 48 -41q18 -29 18 -67v-112q0 -60 31 -102t75 -42v-32q-60 0 -103 52q-43 51 -43 124v112q0 41 -25 70q-26 29 -62 29v21v0z" />
    <glyph glyph-name="bar" unicode="|" horiz-adv-x="168" 
d="M64 -156v796h40v-796h-40v0z" />
    <glyph glyph-name="braceright" unicode="}" horiz-adv-x="361" 
d="M297 250v-21q-38 0 -64 -29q-27 -29 -27 -70v-112q0 -73 -42 -124q-41 -52 -100 -52v32q42 0 72 42t30 102v112q0 36 20 66q20 29 53 41v8q-33 12 -53 42t-20 67v111q0 58 -30 99t-72 41v33q59 0 100 -51q42 -50 42 -122v-111q0 -43 27 -74q26 -30 64 -30v0z" />
    <glyph glyph-name="asciitilde" unicode="~" horiz-adv-x="471" 
d="M82 202l-18 24q18 26 42 40q25 15 50 15q22 0 42 -7t36 -20q21 -17 41 -27q21 -9 39 -9q23 0 43 9q20 8 33 24l17 -26q-18 -21 -42 -32q-24 -12 -50 -12q-20 0 -38 7q-19 6 -34 19q-23 19 -45 29t-41 10q-18 0 -38 -12q-19 -11 -37 -32v0z" />
    <glyph glyph-name="Euro" horiz-adv-x="685" 
d="M385 -15q-88 0 -160 59q-73 60 -100 155h-61v39h53q-5 32 -5 58q0 37 8 75h-56v39h66q31 89 100 143q69 55 151 55q94 0 160 -50q65 -49 80 -132h-40q-11 62 -68 103q-56 41 -132 41q-66 0 -123 -44t-85 -116h367v-39h-379q-9 -36 -9 -75q0 -24 6 -58h382v-39h-373
q26 -79 86 -128t132 -49q82 0 136 46q53 46 60 122h40q-8 -93 -73 -149q-64 -56 -163 -56v0z" />
    <glyph glyph-name="exclamdown" unicode="&#xa1;" horiz-adv-x="185" 
d="M67 440h54v-61h-54v61v0zM94 288q6 0 9 -6q3 -5 3 -16l8 -221v-198h-50v198l19 228q0 7 3 11t8 4v0z" />
    <glyph glyph-name="cent" unicode="&#xa2;" horiz-adv-x="495" 
d="M258 -3q-45 0 -84 21l-47 -98h-37l55 117q-38 31 -60 77q-21 47 -21 99q0 94 57 161t137 67q37 0 72 -15l64 134h37l-71 -150q29 -20 45 -48t16 -58h-34q-2 22 -13 42q-10 20 -28 34l-159 -333q33 -20 71 -20q47 0 85 37q37 36 47 92h39q-6 -67 -55 -113t-116 -46v0z
M317 398q-27 12 -59 12q-65 0 -110 -58q-46 -57 -46 -139q0 -43 15 -80q15 -38 43 -65l157 330v0z" />
    <glyph glyph-name="sterling" unicode="&#xa3;" horiz-adv-x="631" 
d="M334 610q77 0 136 -41q60 -40 77 -105l-33 -16q-19 57 -67 92q-49 34 -111 34q-80 0 -128 -35t-48 -94q0 -27 16 -80q16 -52 16 -79h217v-38h-214q0 -121 -56 -218q45 28 129 28q27 0 78 -14t78 -14q59 0 125 43l18 -33q-59 -46 -141 -46q-27 0 -79 14t-79 14
q-80 0 -133 -33l-41 41q61 87 61 218h-91v38h90l-38 153q0 81 57 126q58 45 161 45v0z" />
    <glyph glyph-name="currency" unicode="&#xa4;" horiz-adv-x="538" 
d="M270 -7q-68 0 -119 37l-53 -74l-34 28l55 76q-24 29 -36 69q-13 39 -13 84q0 48 13 89q14 42 39 72l-57 72l33 28l56 -70q51 37 116 37q67 0 115 -35l53 68l35 -28l-56 -69q26 -31 39 -73q14 -42 14 -91q0 -46 -13 -86t-38 -69l55 -74l-35 -28l-53 71q-49 -34 -116 -34v0
zM270 26q73 0 116 51q44 51 44 136q0 88 -44 140q-43 53 -116 53t-116 -53q-44 -52 -44 -140q0 -85 44 -136q43 -51 116 -51v0z" />
    <glyph glyph-name="yen" unicode="&#xa5;" horiz-adv-x="622" 
d="M338 0h-46v88h-136v38h136v116h-136v38h122l-214 313h57l193 -289l187 289h57l-206 -313h124v-38h-138v-116h138v-38h-138v-88v0z" />
    <glyph glyph-name="brokenbar" unicode="&#xa6;" horiz-adv-x="168" 
d="M104 -120h-40v312h40v-312v0zM104 328h-40v312h40v-312v0z" />
    <glyph glyph-name="section" unicode="&#xa7;" horiz-adv-x="479" 
d="M280 169q42 5 69 32q28 26 28 61q0 39 -31 65q-30 27 -81 31q-42 4 -63 11q-39 -5 -66 -33q-26 -28 -26 -66q0 -37 31 -62q30 -26 81 -30l58 -9v0zM157 392q-32 18 -50 45q-19 26 -19 55q0 57 41 89t115 32q71 0 113 -34q43 -34 43 -90h-38q-8 43 -39 67t-79 24
q-54 0 -86 -24t-32 -64q0 -37 41 -66q40 -29 100 -34q67 -6 108 -42q40 -37 40 -92q0 -38 -23 -69t-60 -45q30 -13 48 -43t18 -67q0 -62 -47 -99q-46 -37 -124 -37q-68 0 -115 44q-48 44 -48 106h38q0 -48 37 -83q36 -34 88 -34q60 0 97 31q36 30 36 81q0 40 -38 67t-102 33
q-68 6 -108 41q-41 34 -41 86q0 41 24 74q23 34 62 48v0z" />
    <glyph glyph-name="dieresis" unicode="&#xa8;" horiz-adv-x="370" 
d="M306 464h-61v50h61v-50v0zM125 464h-61v50h61v-50v0z" />
    <glyph glyph-name="copyright" unicode="&#xa9;" horiz-adv-x="736" 
d="M366 118q-67 0 -114 52q-47 53 -47 127q0 72 47 122q47 51 114 51q58 0 99 -32q41 -31 41 -76h-40q-3 31 -31 51q-29 21 -69 21q-50 0 -86 -40q-35 -40 -35 -97q0 -58 35 -98q36 -41 86 -41q40 0 69 20q28 20 28 48h43q-4 -46 -44 -77q-41 -31 -96 -31v0zM368 -8
q-126 0 -215 89t-89 215t89 215t215 89t215 -89t89 -215t-89 -215t-215 -89v0zM368 26q110 0 188 79t78 191t-78 191t-188 79t-188 -79t-78 -191t78 -191t188 -79v0z" />
    <glyph glyph-name="ordfeminine" unicode="&#xaa;" horiz-adv-x="387" 
d="M168 324q-43 0 -74 24q-30 25 -30 59q0 33 30 58t74 29q39 3 65 14q26 10 26 22v21q0 20 -23 34q-22 14 -54 14q-30 0 -52 -13q-21 -13 -21 -32v-20h-33v21q0 30 31 52q31 21 75 21q46 0 79 -19q33 -20 33 -47v-183q0 -9 5 -15q4 -6 11 -6q2 0 5 2t8 6v-29q-15 -7 -24 -7
q-15 0 -26 13q-11 14 -11 33q-9 -23 -34 -38q-26 -14 -60 -14v0zM168 351q34 0 59 22q26 21 32 54v63q-10 -8 -32 -14q-23 -6 -55 -9q-31 -3 -53 -20q-21 -17 -21 -40t21 -40q20 -16 49 -16v0z" />
    <glyph glyph-name="guillemotleft" unicode="&#xab;" horiz-adv-x="490" 
d="M64 195v46l202 181v-37l-176 -165l176 -166v-38l-202 179v0zM224 195v46l202 181v-37l-176 -165l176 -166v-38l-202 179v0z" />
    <glyph glyph-name="logicalnot" unicode="&#xac;" horiz-adv-x="521" 
d="M457 480v-159h-38v119h-355v40h393v0z" />
    <glyph glyph-name="minus" unicode="&#xad;" horiz-adv-x="350" 
d="M64 264v38h222v-38h-222v0z" />
    <glyph glyph-name="registered" unicode="&#xae;" horiz-adv-x="736" 
d="M260 84h-35v415h197q43 0 74 -32q30 -32 30 -77q0 -40 -19 -69q-19 -30 -48 -35q24 -7 40 -40q15 -34 15 -81q0 -30 3 -50q3 -21 9 -31h-38q-7 8 -9 30l-1 60q0 39 -19 66q-18 28 -45 28h-154v-184v0zM260 305h154q31 0 52 24q22 24 22 58q0 31 -21 54q-20 22 -49 22
h-158v-158v0zM368 -8q-138 0 -221 83t-83 221t83 221t221 83t221 -83t83 -221t-83 -221t-221 -83v0zM368 26q121 0 193 74q73 73 73 196t-73 196q-72 74 -193 74t-193 -74q-73 -73 -73 -196t73 -196q72 -74 193 -74v0z" />
    <glyph glyph-name="macron" unicode="&#xaf;" horiz-adv-x="486" 
d="M64 570v37h358v-37h-358v0z" />
    <glyph glyph-name="degree" unicode="&#xb0;" horiz-adv-x="285" 
d="M93 527q0 -20 14 -35q15 -14 35 -14t35 14q14 15 14 35q0 21 -14 35q-15 15 -35 15t-35 -15q-14 -14 -14 -35v0zM64 527q0 33 23 56t55 23q33 0 56 -23t23 -56q0 -32 -23 -55t-56 -23q-32 0 -55 23t-23 55v0z" />
    <glyph glyph-name="plusminus" unicode="&#xb1;" horiz-adv-x="439" 
d="M201 93v137h-137v38h137v137h37v-137h137v-38h-137v-137h-37v0zM64 42v37h311v-37h-311v0z" />
    <glyph glyph-name="twosuperior" unicode="&#xb2;" horiz-adv-x="371" 
d="M64 228v35q0 40 36 80q35 40 95 68q34 16 55 44q20 28 20 60t-23 55q-24 23 -57 23q-38 0 -64 -27q-27 -27 -27 -66h-35q0 52 37 88q37 37 89 37q48 0 83 -32q34 -32 34 -78q0 -39 -27 -75q-28 -36 -74 -58q-49 -23 -78 -53t-29 -58v-10h208v-33h-243v0z" />
    <glyph glyph-name="threesuperior" unicode="&#xb3;" horiz-adv-x="379" 
d="M190 223q-52 0 -89 31q-37 32 -37 76v6h35v-14q0 -27 27 -46q26 -19 64 -19q37 0 63 25t26 60q0 31 -20 54q-20 22 -49 22h-46v33h38q26 0 44 21t18 51q0 28 -23 47q-23 20 -56 20q-32 0 -55 -20t-23 -49v-13h-37l4 18q0 41 33 69q32 29 78 29q47 0 81 -30q33 -29 33 -71
q0 -29 -14 -52q-14 -24 -38 -35q30 -8 49 -34t19 -60q0 -49 -37 -84q-36 -35 -88 -35v0z" />
    <glyph glyph-name="acute" unicode="&#xb4;" horiz-adv-x="223" 
d="M64 482l34 152h61l-67 -152h-28v0z" />
    <glyph glyph-name="mu" unicode="&#xb5;" horiz-adv-x="459" 
d="M210 -15q-31 0 -59 11q-28 12 -49 33l2 -149h-40v546h40v-308q0 -40 31 -68t75 -28q52 0 93 40t52 101v263h40v-426h-40v79q-20 -43 -59 -69q-40 -25 -86 -25v0z" />
    <glyph glyph-name="paragraph" unicode="&#xb6;" horiz-adv-x="568" 
d="M220 -72v432h-36q-50 1 -85 38q-35 38 -35 90q0 56 36 96q37 40 88 40h316v-40h-88v-656h-40v656h-116v-656h-40v0z" />
    <glyph glyph-name="cedilla" unicode="&#xb8;" horiz-adv-x="282" 
d="M134 -164q-24 0 -43 5q-18 6 -27 16v39q14 -13 32 -20q19 -7 39 -7q19 0 33 10q14 9 14 23q0 16 -20 29q-20 12 -50 15l29 70h37l-20 -48q27 -7 43 -26q17 -18 17 -40q0 -27 -25 -47q-24 -19 -59 -19v0z" />
    <glyph glyph-name="onesuperior" unicode="&#xb9;" horiz-adv-x="252" 
d="M147 230v295h-83v25h21q28 0 50 21q21 21 27 53h26v-394h-41v0z" />
    <glyph glyph-name="ordmasculine" unicode="&#xba;" horiz-adv-x="379" 
d="M190 240q-60 0 -93 51q-33 50 -33 142q0 91 33 141t93 50q59 0 92 -50t33 -141q0 -92 -33 -142q-33 -51 -92 -51v0zM190 277q42 0 65 41t23 115q0 75 -23 117t-65 42t-66 -42q-23 -42 -23 -117q0 -74 23 -115q24 -41 66 -41v0z" />
    <glyph glyph-name="guillemotright" unicode="&#xbb;" horiz-adv-x="490" 
d="M266 199l-202 -179v38l176 166l-176 165v37l202 -181v-46v0zM426 199l-202 -179v38l176 166l-176 165v37l202 -181v-46v0z" />
    <glyph glyph-name="onequarter" unicode="&#xbc;" horiz-adv-x="712" 
d="M147 230v295h-83v29h21q23 0 41 20q19 20 24 50h34v-394h-37v0zM136 -48l336 672h38l-336 -672h-38v0zM550 0v95h-176v39l173 260h40v-264h61v-35h-61v-95h-37v0zM411 130h139v209l-139 -209v0z" />
    <glyph glyph-name="onehalf" unicode="&#xbd;" horiz-adv-x="739" 
d="M147 230v295h-83v29h21q23 0 41 20q19 20 24 50h34v-394h-37v0zM136 -48l336 672h38l-336 -672h-38v0zM432 0v35q0 40 36 80q35 40 95 68q34 16 55 44q20 28 20 60t-23 55q-24 23 -57 23q-38 0 -64 -27q-27 -27 -27 -66h-35q0 52 37 88q37 37 89 37q48 0 83 -32
q34 -32 34 -78q0 -39 -27 -75q-28 -36 -74 -58q-49 -23 -78 -53t-29 -58v-10h208v-33h-243v0z" />
    <glyph glyph-name="threequarters" unicode="&#xbe;" horiz-adv-x="777" 
d="M201 -48l336 672h37l-336 -672h-37v0zM614 0v95h-176v39l174 260h40v-264h61v-35h-61v-95h-38v0zM476 130h138v209l-138 -209v0zM190 223q-52 0 -89 31q-37 32 -37 76v6h35v-14q0 -27 27 -46q26 -19 64 -19q37 0 63 25t26 60q0 31 -20 54q-20 22 -49 22h-46v33h38
q26 0 44 21t18 51q0 28 -23 47q-23 20 -56 20q-32 0 -55 -20t-23 -49v-13h-37l4 18q0 41 33 69q32 29 78 29q47 0 81 -30q33 -29 33 -71q0 -29 -14 -52q-14 -24 -38 -35q30 -8 49 -34t19 -60q0 -49 -37 -84q-36 -35 -88 -35v0z" />
    <glyph glyph-name="questiondown" unicode="&#xbf;" horiz-adv-x="470" 
d="M262 440v-61h-46v61h46v0zM254 290v-28q0 -36 -26 -74q-27 -39 -73 -70q-25 -17 -39 -46t-14 -63q0 -48 39 -81q38 -34 93 -34q56 0 95 36t39 87v21h38v-21q0 -63 -49 -107q-49 -45 -119 -45q-72 0 -123 41t-51 99q0 48 21 88t58 60q34 19 53 52q20 33 20 71v14h38v0z
" />
    <glyph glyph-name="Agrave" unicode="&#xc0;" horiz-adv-x="534" 
d="M54 0h-45l235 593h50l232 -593h-46l-76 190h-274l-76 -190v0zM142 228h247l-122 319l-125 -319v0zM289 614h-28l-67 152h60l35 -152v0z" />
    <glyph glyph-name="Aacute" unicode="&#xc1;" horiz-adv-x="534" 
d="M54 0h-45l235 593h50l232 -593h-46l-76 190h-274l-76 -190v0zM142 228h247l-122 319l-125 -319v0zM253 614l34 152h61l-67 -152h-28v0z" />
    <glyph glyph-name="Acircumflex" unicode="&#xc2;" horiz-adv-x="534" 
d="M54 0h-45l235 593h50l232 -593h-46l-76 190h-274l-76 -190v0zM142 228h247l-122 319l-125 -319v0zM254 766h29l93 -152h-36l-70 113h-4l-68 -113h-38l94 152v0z" />
    <glyph glyph-name="Atilde" unicode="&#xc3;" horiz-adv-x="534" 
d="M54 0h-45l235 593h50l232 -593h-46l-76 190h-274l-76 -190v0zM142 228h247l-122 319l-125 -319v0zM170 622l-23 21q11 24 31 39q19 14 40 14q19 0 51 -23q31 -23 50 -23q16 0 31 9q14 8 23 23l22 -23q-12 -21 -32 -33t-43 -12q-19 0 -51 22q-32 23 -51 23q-14 0 -27 -10
t-21 -27v0z" />
    <glyph glyph-name="Adieresis" unicode="&#xc4;" horiz-adv-x="534" 
d="M54 0h-45l235 593h50l232 -593h-46l-76 190h-274l-76 -190v0zM142 228h247l-122 319l-125 -319v0zM387 614h-61v49h61v-49v0zM206 614h-60v49h60v-49v0z" />
    <glyph glyph-name="Aring" unicode="&#xc5;" horiz-adv-x="534" 
d="M54 0h-45l231 582q-22 9 -36 29q-13 20 -13 44q0 33 23 56t56 23q32 0 55 -23t23 -56q0 -24 -14 -44q-13 -20 -36 -29l228 -582h-46l-76 190h-274l-76 -190v0zM142 228h247l-122 319l-125 -319v0zM220 655q0 -20 15 -35q14 -14 35 -14q20 0 34 14q14 15 14 35
q0 21 -14 35q-14 15 -34 15q-21 0 -35 -15q-15 -14 -15 -35v0z" />
    <glyph glyph-name="AE" unicode="&#xc6;" horiz-adv-x="798" 
d="M56 0h-50l336 593h446v-39h-307v-228h277v-37h-277v-251h307v-38h-358v190h-266l-108 -190v0zM183 228h247v326h-61l-186 -326v0z" />
    <glyph glyph-name="Ccedilla" unicode="&#xc7;" horiz-adv-x="557" 
d="M302 -15h-13l-7 -17q27 -7 43 -24q17 -18 17 -38q0 -27 -25 -47q-24 -19 -59 -19q-24 0 -43 5q-18 6 -27 16v39q14 -13 32 -20q19 -7 39 -7q19 0 33 10q14 9 14 23q0 16 -20 29q-20 12 -50 15l22 39q-99 19 -164 106q-64 87 -64 201q0 129 80 221q79 91 192 91
q93 0 157 -50q64 -49 79 -132h-40q-11 62 -67 103q-55 41 -129 41q-96 0 -164 -80q-68 -81 -68 -194t68 -194q68 -80 164 -80q82 0 135 48q54 48 61 128h40q-8 -97 -73 -155q-64 -58 -163 -58v0z" />
    <glyph glyph-name="Egrave" unicode="&#xc8;" horiz-adv-x="462" 
d="M451 0h-387v593h387v-39h-347v-228h317v-37h-317v-251h347v-38v0zM278 614h-28l-68 152h61l35 -152v0z" />
    <glyph glyph-name="Eacute" unicode="&#xc9;" horiz-adv-x="462" 
d="M451 0h-387v593h387v-39h-347v-228h317v-37h-317v-251h347v-38v0zM246 614l34 152h61l-67 -152h-28v0z" />
    <glyph glyph-name="Ecircumflex" unicode="&#xca;" horiz-adv-x="462" 
d="M451 0h-387v593h387v-39h-347v-228h317v-37h-317v-251h347v-38v0zM263 766h29l93 -152h-36l-70 113h-4l-69 -113h-37l94 152v0z" />
    <glyph glyph-name="Edieresis" unicode="&#xcb;" horiz-adv-x="462" 
d="M451 0h-387v593h387v-39h-347v-228h317v-37h-317v-251h347v-38v0zM384 614h-61v49h61v-49v0zM203 614h-61v49h61v-49v0z" />
    <glyph glyph-name="Igrave" unicode="&#xcc;" horiz-adv-x="168" 
d="M104 0h-40v593h40v-593v0zM98 614h-28l-68 152h61l35 -152v0z" />
    <glyph glyph-name="Iacute" unicode="&#xcd;" horiz-adv-x="168" 
d="M104 0h-40v593h40v-593v0zM71 614l35 152h60l-67 -152h-28v0z" />
    <glyph glyph-name="Icircumflex" unicode="&#xce;" horiz-adv-x="168" 
d="M104 0h-40v593h40v-593v0zM71 766h29l93 -152h-36l-70 113h-4l-69 -113h-37l94 152v0z" />
    <glyph glyph-name="Idieresis" unicode="&#xcf;" horiz-adv-x="168" 
d="M104 0h-40v593h40v-593v0zM208 614h-61v49h61v-49v0zM27 614h-61v49h61v-49v0z" />
    <glyph glyph-name="Eth" unicode="&#xd0;" horiz-adv-x="560" 
d="M68 0v286h-57v37h57v270h235q94 0 161 -85q66 -84 66 -204q0 -126 -66 -215q-67 -89 -161 -89h-235v0zM108 38h195q77 0 132 78t55 188q0 104 -55 177t-132 73h-195v-231h165v-37h-165v-248v0z" />
    <glyph glyph-name="Ntilde" unicode="&#xd1;" horiz-adv-x="581" 
d="M104 0h-40v593h55l358 -544v544h40v-593h-55l-358 536v-536v0zM194 622l-23 21q11 24 31 39q19 14 40 14q19 0 51 -23q31 -23 50 -23q16 0 31 9q14 8 23 23l22 -23q-12 -21 -32 -33t-43 -12q-19 0 -51 22q-32 23 -51 23q-14 0 -27 -10t-21 -27v0z" />
    <glyph glyph-name="Ograve" unicode="&#xd2;" horiz-adv-x="592" 
d="M296 -7q-120 0 -192 83t-72 220q0 142 72 227t192 85t192 -85t72 -227q0 -137 -72 -220t-192 -83v0zM296 30q102 0 163 73q61 72 61 193q0 124 -61 199t-163 75t-163 -75t-61 -199q0 -121 61 -193q61 -73 163 -73v0zM309 618h-28l-67 152h60l35 -152v0z" />
    <glyph glyph-name="Oacute" unicode="&#xd3;" horiz-adv-x="592" 
d="M296 -7q-120 0 -192 83t-72 220q0 142 72 227t192 85t192 -85t72 -227q0 -137 -72 -220t-192 -83v0zM296 30q102 0 163 73q61 72 61 193q0 124 -61 199t-163 75t-163 -75t-61 -199q0 -121 61 -193q61 -73 163 -73v0zM285 618l34 152h61l-67 -152h-28v0z" />
    <glyph glyph-name="Ocircumflex" unicode="&#xd4;" horiz-adv-x="592" 
d="M296 -7q-120 0 -192 83t-72 220q0 142 72 227t192 85t192 -85t72 -227q0 -137 -72 -220t-192 -83v0zM296 30q102 0 163 73q61 72 61 193q0 124 -61 199t-163 75t-163 -75t-61 -199q0 -121 61 -193q61 -73 163 -73v0zM282 769h29l93 -153h-36l-70 114h-4l-68 -114h-38
l94 153v0z" />
    <glyph glyph-name="Otilde" unicode="&#xd5;" horiz-adv-x="592" 
d="M296 -7q-120 0 -192 83t-72 220q0 142 72 227t192 85t192 -85t72 -227q0 -137 -72 -220t-192 -83v0zM296 30q102 0 163 73q61 72 61 193q0 124 -61 199t-163 75t-163 -75t-61 -199q0 -121 61 -193q61 -73 163 -73v0zM198 626l-23 21q11 24 31 39q19 14 40 14q19 0 51 -23
q31 -23 50 -23q16 0 31 9q14 8 23 23l22 -23q-12 -21 -32 -33t-43 -12q-19 0 -51 22q-32 23 -51 23q-14 0 -27 -10t-21 -27v0z" />
    <glyph glyph-name="Odieresis" unicode="&#xd6;" horiz-adv-x="592" 
d="M296 -7q-120 0 -192 83t-72 220q0 142 72 227t192 85t192 -85t72 -227q0 -137 -72 -220t-192 -83v0zM296 30q102 0 163 73q61 72 61 193q0 124 -61 199t-163 75t-163 -75t-61 -199q0 -121 61 -193q61 -73 163 -73v0zM419 618h-61v49h61v-49v0zM238 618h-60v49h60v-49v0z
" />
    <glyph glyph-name="multiply" unicode="&#xd7;" horiz-adv-x="414" 
d="M320 73l-112 116l-112 -116l-32 32l112 112l-112 112l30 30l112 -112l112 112l32 -32l-112 -112l112 -112l-30 -30v0z" />
    <glyph glyph-name="Oslash" unicode="&#xd8;" horiz-adv-x="596" 
d="M298 -7q-94 0 -164 57l-51 -70h-41l68 93q-37 41 -56 98q-20 58 -20 125q0 142 72 227t192 85q47 0 88 -14q42 -14 74 -41l50 67h41l-66 -91q37 -41 57 -102q20 -60 20 -131q0 -137 -72 -220t-192 -83v0zM298 30q102 0 163 73q61 72 61 193q0 60 -16 111q-15 51 -45 88
l-303 -414q28 -25 65 -38q36 -13 75 -13v0zM436 521q-27 24 -63 36q-36 13 -75 13q-102 0 -163 -75t-61 -199q0 -56 15 -105q16 -49 45 -85l302 415v0z" />
    <glyph glyph-name="Ugrave" unicode="&#xd9;" horiz-adv-x="546" 
d="M277 -15q-92 0 -158 60q-65 60 -65 145v403h40v-403q0 -70 54 -119q53 -49 129 -49q72 0 124 49q51 49 51 119v403h40v-403q0 -85 -63 -145t-152 -60v0zM290 618h-28l-67 152h61l34 -152v0z" />
    <glyph glyph-name="Uacute" unicode="&#xda;" horiz-adv-x="546" 
d="M277 -15q-92 0 -158 60q-65 60 -65 145v403h40v-403q0 -70 54 -119q53 -49 129 -49q72 0 124 49q51 49 51 119v403h40v-403q0 -85 -63 -145t-152 -60v0zM262 614l35 152h61l-68 -152h-28v0z" />
    <glyph glyph-name="Ucircumflex" unicode="&#xdb;" horiz-adv-x="546" 
d="M277 -15q-92 0 -158 60q-65 60 -65 145v403h40v-403q0 -70 54 -119q53 -49 129 -49q72 0 124 49q51 49 51 119v403h40v-403q0 -85 -63 -145t-152 -60v0zM264 765h29l93 -153h-36l-70 114h-4l-69 -114h-37l94 153v0z" />
    <glyph glyph-name="Udieresis" unicode="&#xdc;" horiz-adv-x="546" 
d="M277 -15q-92 0 -158 60q-65 60 -65 145v403h40v-403q0 -70 54 -119q53 -49 129 -49q72 0 124 49q51 49 51 119v403h40v-403q0 -85 -63 -145t-152 -60v0zM397 614h-61v49h61v-49v0zM216 614h-61v49h61v-49v0z" />
    <glyph glyph-name="Yacute" unicode="&#xdd;" horiz-adv-x="502" 
d="M278 0h-46v258l-228 335h57l193 -289l187 289h57l-220 -335v-258v0zM242 614l34 152h61l-67 -152h-28v0z" />
    <glyph glyph-name="Thorn" unicode="&#xde;" horiz-adv-x="477" 
d="M104 0h-40v593h40v-132h216q56 0 95 -49q40 -48 40 -117q0 -68 -40 -117q-40 -48 -97 -48h-214v-130v0zM104 421v-251h214q40 0 68 37q28 36 28 88t-27 89t-66 37h-217v0z" />
    <glyph glyph-name="germandbls" unicode="&#xdf;" horiz-adv-x="483" 
d="M60 478q0 47 34 81q34 33 82 33h106q62 0 99 -34q37 -35 37 -92q0 -33 -23 -64q-22 -31 -61 -52q-31 -17 -50 -34q-18 -17 -18 -30q0 -16 23 -31q22 -16 58 -25q52 -13 86 -47q33 -35 33 -76q0 -51 -45 -82t-119 -31q-61 0 -106 29t-54 73h38q7 -31 41 -51t81 -20
q53 0 91 23q37 23 37 56q0 30 -27 56q-26 26 -69 38q-47 13 -76 37q-30 24 -31 49q0 21 23 45q23 25 62 47q32 18 51 42t19 48q0 40 -28 66q-29 26 -72 26h-101q-34 0 -57 -24q-24 -23 -24 -57v-477h-40v478v0z" />
    <glyph glyph-name="agrave" unicode="&#xe0;" horiz-adv-x="429" 
d="M181 -15q-63 0 -107 35q-45 36 -45 86q0 48 44 84q43 36 108 42q63 6 103 20q41 14 41 33v38q0 33 -36 56q-35 23 -86 23q-48 0 -83 -22q-34 -23 -34 -54v-22h-38v26q0 43 45 73q46 30 110 30q66 0 113 -29t47 -70v-258q0 -25 11 -43t27 -18q5 0 9 1t6 3v-19
q-15 -7 -38 -7t-40 20q-16 20 -16 48q-12 -34 -51 -55t-90 -21v0zM181 15q53 0 94 35q41 34 50 87v98q-14 -12 -51 -20q-35 -8 -93 -13q-47 -4 -79 -32q-32 -27 -32 -64q0 -38 33 -64q32 -27 78 -27v0zM218 456h-28l-68 153h61l35 -153v0z" />
    <glyph glyph-name="aacute" unicode="&#xe1;" horiz-adv-x="429" 
d="M181 -15q-63 0 -107 35q-45 36 -45 86q0 48 44 84q43 36 108 42q63 6 103 20q41 14 41 33v38q0 33 -36 56q-35 23 -86 23q-48 0 -83 -22q-34 -23 -34 -54v-22h-38v26q0 43 45 73q46 30 110 30q66 0 113 -29t47 -70v-258q0 -25 11 -43t27 -18q5 0 9 1t6 3v-19
q-15 -7 -38 -7t-40 20q-16 20 -16 48q-12 -34 -51 -55t-90 -21v0zM181 15q53 0 94 35q41 34 50 87v98q-14 -12 -51 -20q-35 -8 -93 -13q-47 -4 -79 -32q-32 -27 -32 -64q0 -38 33 -64q32 -27 78 -27v0zM190 462l34 152h61l-67 -152h-28v0z" />
    <glyph glyph-name="acircumflex" unicode="&#xe2;" horiz-adv-x="429" 
d="M181 -15q-63 0 -107 35q-45 36 -45 86q0 48 44 84q43 36 108 42q63 6 103 20q41 14 41 33v38q0 33 -36 56q-35 23 -86 23q-48 0 -83 -22q-34 -23 -34 -54v-22h-38v26q0 43 45 73q46 30 110 30q66 0 113 -29t47 -70v-258q0 -25 11 -43t27 -18q5 0 9 1t6 3v-19
q-15 -7 -38 -7t-40 20q-16 20 -16 48q-12 -34 -51 -55t-90 -21v0zM181 15q53 0 94 35q41 34 50 87v98q-14 -12 -51 -20q-35 -8 -93 -13q-47 -4 -79 -32q-32 -27 -32 -64q0 -38 33 -64q32 -27 78 -27v0zM187 617h29l93 -153h-36l-70 114h-4l-69 -114h-37l94 153v0z" />
    <glyph glyph-name="atilde" unicode="&#xe3;" horiz-adv-x="429" 
d="M181 -15q-63 0 -107 35q-45 36 -45 86q0 48 44 84q43 36 108 42q63 6 103 20q41 14 41 33v38q0 33 -36 56q-35 23 -86 23q-48 0 -83 -22q-34 -23 -34 -54v-22h-38v26q0 43 45 73q46 30 110 30q66 0 113 -29t47 -70v-258q0 -25 11 -43t27 -18q5 0 9 1t6 3v-19
q-15 -7 -38 -7t-40 20q-16 20 -16 48q-12 -34 -51 -55t-90 -21v0zM181 15q53 0 94 35q41 34 50 87v98q-14 -12 -51 -20q-35 -8 -93 -13q-47 -4 -79 -32q-32 -27 -32 -64q0 -38 33 -64q32 -27 78 -27v0zM115 474l-23 21q11 24 31 39q19 14 40 14q19 0 51 -23q31 -23 50 -23
q16 0 31 9q14 8 23 23l22 -23q-12 -21 -32 -33t-43 -12q-19 0 -51 22q-32 23 -51 23q-14 0 -27 -10t-21 -27v0z" />
    <glyph glyph-name="adieresis" unicode="&#xe4;" horiz-adv-x="429" 
d="M181 -15q-63 0 -107 35q-45 36 -45 86q0 48 44 84q43 36 108 42q63 6 103 20q41 14 41 33v38q0 33 -36 56q-35 23 -86 23q-48 0 -83 -22q-34 -23 -34 -54v-22h-38v26q0 43 45 73q46 30 110 30q66 0 113 -29t47 -70v-258q0 -25 11 -43t27 -18q5 0 9 1t6 3v-19
q-15 -7 -38 -7t-40 20q-16 20 -16 48q-12 -34 -51 -55t-90 -21v0zM181 15q53 0 94 35q41 34 50 87v98q-14 -12 -51 -20q-35 -8 -93 -13q-47 -4 -79 -32q-32 -27 -32 -64q0 -38 33 -64q32 -27 78 -27v0zM332 464h-61v50h61v-50v0zM151 464h-61v50h61v-50v0z" />
    <glyph glyph-name="aring" unicode="&#xe5;" horiz-adv-x="429" 
d="M181 -15q-63 0 -107 35q-45 36 -45 86q0 48 44 84q43 36 108 42q63 6 103 20q41 14 41 33v38q0 33 -36 56q-35 23 -86 23q-48 0 -83 -22q-34 -23 -34 -54v-22h-38v26q0 43 45 73q46 30 110 30q66 0 113 -29t47 -70v-258q0 -25 11 -43t27 -18q5 0 9 1t6 3v-19
q-15 -7 -38 -7t-40 20q-16 20 -16 48q-12 -34 -51 -55t-90 -21v0zM181 15q53 0 94 35q41 34 50 87v98q-14 -12 -51 -20q-35 -8 -93 -13q-47 -4 -79 -32q-32 -27 -32 -64q0 -38 33 -64q32 -27 78 -27v0zM157 527q0 -20 14 -35q15 -14 35 -14t35 14q14 15 14 35q0 21 -14 35
q-15 15 -35 15t-35 -15q-14 -14 -14 -35v0zM128 527q0 33 23 56t55 23q33 0 56 -23t23 -56q0 -32 -23 -55t-56 -23q-32 0 -55 23t-23 55v0z" />
    <glyph glyph-name="ae" unicode="&#xe6;" horiz-adv-x="734" 
d="M181 -15q-63 0 -107 35q-45 36 -45 86q0 48 44 84q43 36 108 42q63 6 103 20q41 14 41 33v38q0 36 -36 62q-35 25 -86 25q-48 0 -83 -25q-34 -24 -34 -59v-22h-38v26q0 46 45 78q46 33 110 33q57 0 100 -25t54 -65q24 42 66 66t91 24q86 0 138 -57t52 -152v-19h-340v-39
q0 -63 44 -107q44 -45 106 -45q51 0 92 27q42 28 58 73h40q-10 -59 -64 -98t-126 -39q-56 0 -102 31q-45 31 -65 82q-19 -51 -64 -82q-46 -31 -102 -31v0zM181 15q53 0 94 35q41 34 50 87v98q-14 -12 -51 -20q-35 -8 -93 -13q-47 -4 -79 -32q-32 -27 -32 -64q0 -38 33 -64
q32 -27 78 -27v0zM364 251h300v15q-5 59 -48 100q-44 40 -102 40t-101 -41q-44 -42 -49 -103v-11v0z" />
    <glyph glyph-name="ccedilla" unicode="&#xe7;" horiz-adv-x="417" 
d="M201 -17q-72 13 -118 78q-47 65 -47 152q0 94 57 161t137 67q68 0 115 -40q48 -40 48 -97h-40q-4 45 -39 75q-36 31 -84 31q-64 0 -109 -58q-45 -57 -45 -139t45 -140t109 -58q50 0 85 38t35 91h43q-6 -68 -51 -114q-46 -47 -108 -49l-10 -21q27 -7 43 -26q17 -18 17 -40
q0 -27 -24 -47q-25 -19 -59 -19q-25 0 -43 5q-19 6 -28 16v39q14 -13 33 -20q18 -7 39 -7q19 0 33 10q13 9 13 23q0 16 -20 29q-20 12 -50 15l23 45v0z" />
    <glyph glyph-name="egrave" unicode="&#xe8;" horiz-adv-x="448" 
d="M228 -15q-86 0 -138 62q-52 63 -52 166t52 166q52 62 138 62t138 -57t52 -152v-19h-340v-39q0 -63 44 -107q44 -45 106 -45q51 0 92 27q42 28 58 73h40q-10 -59 -64 -98t-126 -39v0zM78 251h300v15q-5 59 -48 100q-44 40 -102 40t-101 -41q-44 -42 -49 -103v-11v0z
M242 468h-28l-67 153h61l34 -153v0z" />
    <glyph glyph-name="eacute" unicode="&#xe9;" horiz-adv-x="448" 
d="M228 -15q-86 0 -138 62q-52 63 -52 166t52 166q52 62 138 62t138 -57t52 -152v-19h-340v-39q0 -63 44 -107q44 -45 106 -45q51 0 92 27q42 28 58 73h40q-10 -59 -64 -98t-126 -39v0zM78 251h300v15q-5 59 -48 100q-44 40 -102 40t-101 -41q-44 -42 -49 -103v-11v0z
M218 470l35 152h61l-68 -152h-28v0z" />
    <glyph glyph-name="ecircumflex" unicode="&#xea;" horiz-adv-x="448" 
d="M228 -15q-86 0 -138 62q-52 63 -52 166t52 166q52 62 138 62t138 -57t52 -152v-19h-340v-39q0 -63 44 -107q44 -45 106 -45q51 0 92 27q42 28 58 73h40q-10 -59 -64 -98t-126 -39v0zM78 251h300v15q-5 59 -48 100q-44 40 -102 40t-101 -41q-44 -42 -49 -103v-11v0z
M212 617h29l93 -153h-36l-70 114h-4l-69 -114h-37l94 153v0z" />
    <glyph glyph-name="edieresis" unicode="&#xeb;" horiz-adv-x="448" 
d="M228 -15q-86 0 -138 62q-52 63 -52 166t52 166q52 62 138 62t138 -57t52 -152v-19h-340v-39q0 -63 44 -107q44 -45 106 -45q51 0 92 27q42 28 58 73h40q-10 -59 -64 -98t-126 -39v0zM78 251h300v15q-5 59 -48 100q-44 40 -102 40t-101 -41q-44 -42 -49 -103v-11v0z
M353 464h-61v50h61v-50v0zM172 464h-61v50h61v-50v0z" />
    <glyph glyph-name="igrave" unicode="&#xec;" horiz-adv-x="168" 
d="M104 0h-40v426h40v-426v0zM97 470h-28l-67 152h60l35 -152v0z" />
    <glyph glyph-name="iacute" unicode="&#xed;" horiz-adv-x="168" 
d="M104 0h-40v426h40v-426v0zM73 470l34 152h61l-67 -152h-28v0z" />
    <glyph glyph-name="icircumflex" unicode="&#xee;" horiz-adv-x="168" 
d="M104 0h-40v426h40v-426v0zM70 617h29l93 -153h-36l-70 114h-4l-68 -114h-38l94 153v0z" />
    <glyph glyph-name="idieresis" unicode="&#xef;" horiz-adv-x="168" 
d="M104 0h-40v426h40v-426v0zM203 464h-61v50h61v-50v0zM22 464h-60v50h60v-50v0z" />
    <glyph glyph-name="eth" unicode="&#xf0;" horiz-adv-x="474" 
d="M237 -7q-91 0 -145 60q-55 60 -55 160q0 103 55 166q54 62 145 62q25 0 77 -17q-53 61 -75 76l-97 -55l-22 24l91 53l-81 49l22 27q57 -26 90 -52l91 49l25 -25l-86 -48q78 -65 121 -146q43 -82 43 -163q0 -100 -54 -160q-55 -60 -145 -60v0zM237 26q72 0 116 51
q43 51 43 136q0 88 -43 140q-44 53 -116 53q-73 0 -116 -53q-44 -52 -44 -140q0 -85 44 -136q43 -51 116 -51v0z" />
    <glyph glyph-name="ntilde" unicode="&#xf1;" horiz-adv-x="450" 
d="M104 0h-40v426h40v-76q19 40 56 63q37 24 81 24q63 0 107 -41q45 -42 45 -100v-296h-40v296q0 44 -33 75t-79 31q-50 0 -89 -34q-39 -35 -48 -87v-281v0zM156 474l-23 21q11 24 31 39q19 14 40 14q19 0 50 -23q32 -23 51 -23q16 0 30 9q14 8 23 23l23 -23
q-12 -21 -32 -33t-43 -12q-19 0 -51 22q-32 23 -51 23q-14 0 -27 -10t-21 -27v0z" />
    <glyph glyph-name="ograve" unicode="&#xf2;" horiz-adv-x="473" 
d="M237 -7q-91 0 -145 60q-55 60 -55 160q0 103 55 166q54 62 145 62q90 0 145 -62q54 -63 54 -166q0 -100 -54 -160q-55 -60 -145 -60v0zM237 26q72 0 116 51q43 51 43 136q0 88 -43 140q-44 53 -116 53q-73 0 -116 -53q-44 -52 -44 -140q0 -85 44 -136q43 -51 116 -51v0z
M251 478h-28l-67 152h61l34 -152v0z" />
    <glyph glyph-name="oacute" unicode="&#xf3;" horiz-adv-x="473" 
d="M237 -7q-91 0 -145 60q-55 60 -55 160q0 103 55 166q54 62 145 62q90 0 145 -62q54 -63 54 -166q0 -100 -54 -160q-55 -60 -145 -60v0zM237 26q72 0 116 51q43 51 43 136q0 88 -43 140q-44 53 -116 53q-73 0 -116 -53q-44 -52 -44 -140q0 -85 44 -136q43 -51 116 -51v0z
M223 478l35 152h60l-67 -152h-28v0z" />
    <glyph glyph-name="ocircumflex" unicode="&#xf4;" horiz-adv-x="473" 
d="M237 -7q-91 0 -145 60q-55 60 -55 160q0 103 55 166q54 62 145 62q90 0 145 -62q54 -63 54 -166q0 -100 -54 -160q-55 -60 -145 -60v0zM237 26q72 0 116 51q43 51 43 136q0 88 -43 140q-44 53 -116 53q-73 0 -116 -53q-44 -52 -44 -140q0 -85 44 -136q43 -51 116 -51v0z
M225 617h29l92 -153h-36l-69 114h-4l-69 -114h-38l95 153v0z" />
    <glyph glyph-name="otilde" unicode="&#xf5;" horiz-adv-x="473" 
d="M237 -7q-91 0 -145 60q-55 60 -55 160q0 103 55 166q54 62 145 62q90 0 145 -62q54 -63 54 -166q0 -100 -54 -160q-55 -60 -145 -60v0zM237 26q72 0 116 51q43 51 43 136q0 88 -43 140q-44 53 -116 53q-73 0 -116 -53q-44 -52 -44 -140q0 -85 44 -136q43 -51 116 -51v0z
M149 474l-23 21q11 24 31 39q19 14 40 14q19 0 50 -23q32 -23 51 -23q16 0 30 9q14 8 23 23l23 -23q-12 -21 -32 -33q-21 -12 -44 -12q-19 0 -50 22q-32 23 -51 23q-14 0 -27 -10t-21 -27v0z" />
    <glyph glyph-name="odieresis" unicode="&#xf6;" horiz-adv-x="473" 
d="M237 -7q-91 0 -145 60q-55 60 -55 160q0 103 55 166q54 62 145 62q90 0 145 -62q54 -63 54 -166q0 -100 -54 -160q-55 -60 -145 -60v0zM237 26q72 0 116 51q43 51 43 136q0 88 -43 140q-44 53 -116 53q-73 0 -116 -53q-44 -52 -44 -140q0 -85 44 -136q43 -51 116 -51v0z
M358 464h-61v50h61v-50v0zM177 464h-61v50h61v-50v0z" />
    <glyph glyph-name="divide" unicode="&#xf7;" horiz-adv-x="470" 
d="M64 202v37h342v-37h-342v0zM214 56v61h49v-61h-49v0zM214 324v61h49v-61h-49v0z" />
    <glyph glyph-name="oslash" unicode="&#xf8;" horiz-adv-x="474" 
d="M238 -7q-58 0 -105 27l-41 -68h-38l52 86q-32 28 -50 74t-18 101q0 103 55 166q54 62 145 62q53 0 96 -24l48 79h38l-59 -98q36 -30 56 -79q20 -48 20 -106q0 -100 -54 -160q-55 -60 -145 -60v0zM238 26q72 0 116 51q43 51 43 136q0 47 -14 87q-15 40 -41 66l-190 -315
q38 -25 86 -25v0zM316 386q-33 20 -78 20q-73 0 -116 -53q-44 -52 -44 -140q0 -44 12 -81q13 -36 36 -60l190 314v0z" />
    <glyph glyph-name="ugrave" unicode="&#xf9;" horiz-adv-x="453" 
d="M204 -15q-60 0 -103 40t-43 97v304h40v-304q0 -41 31 -71q31 -29 75 -29q52 0 93 40t52 101v263h40v-426h-40v83q-21 -45 -60 -71q-40 -27 -85 -27v0zM243 474h-28l-67 152h61l34 -152v0z" />
    <glyph glyph-name="uacute" unicode="&#xfa;" horiz-adv-x="453" 
d="M204 -15q-60 0 -103 40t-43 97v304h40v-304q0 -41 31 -71q31 -29 75 -29q52 0 93 40t52 101v263h40v-426h-40v83q-21 -45 -60 -71q-40 -27 -85 -27v0zM203 474l35 152h60l-67 -152h-28v0z" />
    <glyph glyph-name="ucircumflex" unicode="&#xfb;" horiz-adv-x="453" 
d="M204 -15q-60 0 -103 40t-43 97v304h40v-304q0 -41 31 -71q31 -29 75 -29q52 0 93 40t52 101v263h40v-426h-40v83q-21 -45 -60 -71q-40 -27 -85 -27v0zM213 617h29l92 -153h-36l-69 114h-4l-69 -114h-38l95 153v0z" />
    <glyph glyph-name="udieresis" unicode="&#xfc;" horiz-adv-x="453" 
d="M204 -15q-60 0 -103 40t-43 97v304h40v-304q0 -41 31 -71q31 -29 75 -29q52 0 93 40t52 101v263h40v-426h-40v81q-20 -44 -60 -70q-39 -26 -85 -26v0zM342 464h-61v50h61v-50v0zM161 464h-61v50h61v-50v0z" />
    <glyph glyph-name="yacute" unicode="&#xfd;" horiz-adv-x="390" 
d="M58 -152v30h31q19 0 43 35q23 34 44 91l-163 422h37l145 -373l144 373h39l-183 -472q-17 -48 -45 -77q-27 -29 -54 -29h-38v0zM182 474l35 152h61l-68 -152h-28v0z" />
    <glyph glyph-name="thorn" unicode="&#xfe;" horiz-adv-x="476" 
d="M104 -152h-40v745h40v-263q18 50 58 80q40 31 87 31q86 0 137 -62q52 -63 52 -166q0 -100 -50 -160q-49 -60 -132 -60q-48 0 -89 28q-41 27 -63 74v-247v0zM253 22q66 0 105 53q40 54 40 142t-40 140q-39 53 -105 53q-62 0 -105 -57q-44 -56 -44 -136q0 -81 44 -138
q43 -57 105 -57v0z" />
    <glyph glyph-name="ydieresis" unicode="&#xff;" horiz-adv-x="390" 
d="M58 -152v30h31q19 0 43 35q23 34 44 91l-163 422h37l145 -373l144 373h39l-183 -472q-17 -48 -45 -77q-27 -29 -54 -29h-38v0zM313 464h-61v50h61v-50v0zM132 464h-61v50h61v-50v0z" />
    <glyph glyph-name="OE" unicode="&#x152;" horiz-adv-x="834" 
d="M273 -7q-108 0 -174 83q-65 83 -65 220q0 142 65 227q66 85 174 85q64 0 118 -38q55 -37 83 -100v123h349v-39h-313v-228h286v-37h-286v-251h313v-38h-349v127q-29 -61 -83 -98q-55 -36 -118 -36v0zM273 30q91 0 146 73q55 72 55 193q0 124 -55 199t-146 75
q-92 0 -148 -75q-55 -75 -55 -199q0 -121 55 -193q56 -73 148 -73v0z" />
    <glyph glyph-name="oe" unicode="&#x153;" horiz-adv-x="804" 
d="M237 -7q-91 0 -145 60q-55 60 -55 160q0 103 55 166q54 62 145 62q58 0 107 -34q48 -34 70 -90q20 56 67 90q46 34 102 34q87 0 139 -57t52 -152v-19h-340v-35q0 -64 45 -110t108 -46q50 0 90 27q41 28 57 73h40q-10 -59 -63 -98t-124 -39q-59 0 -107 34q-48 35 -67 91
q-21 -53 -70 -85q-48 -32 -106 -32v0zM237 26q72 0 116 51q43 51 43 136q0 88 -43 140q-44 53 -116 53q-73 0 -116 -53q-44 -52 -44 -140q0 -85 44 -136q43 -51 116 -51v0zM434 251h300v15q-5 59 -49 100q-43 40 -102 40q-58 0 -101 -41q-43 -42 -48 -103v-11v0z" />
    <glyph glyph-name="Scaron" unicode="&#x160;" horiz-adv-x="479" 
d="M232 -15q-86 0 -146 58q-61 57 -61 139h40q0 -66 49 -113t118 -47q75 0 129 40q53 40 53 97q0 49 -47 82q-46 33 -124 40q-95 8 -152 54t-57 113q0 66 58 113t140 47q88 0 151 -49q62 -49 62 -118h-40q0 53 -51 91q-50 38 -122 38q-65 0 -112 -36q-46 -35 -46 -86
q0 -50 48 -84q49 -34 129 -41q92 -8 148 -53q55 -45 55 -111q0 -72 -65 -123t-157 -51v0zM217 622l-95 153h38l69 -113h4l69 113h36l-92 -153h-29v0z" />
    <glyph glyph-name="scaron" unicode="&#x161;" horiz-adv-x="392" 
d="M192 -11q-68 0 -115 40q-48 40 -48 97h37q0 -43 37 -74q37 -30 89 -30q60 0 97 27q36 28 36 73q0 34 -38 58q-38 23 -102 29q-68 6 -108 38q-41 32 -41 79q0 53 41 82t115 29q71 0 113 -31q43 -31 43 -83h-38q-7 39 -38 61t-80 22q-54 0 -86 -22t-32 -58q0 -34 39 -58
q38 -23 102 -29q67 -6 108 -40q40 -34 40 -85q0 -57 -47 -91q-46 -34 -124 -34v0zM178 464l-94 153h38l68 -114h4l70 114h36l-93 -153h-29v0z" />
    <glyph glyph-name="Ydieresis" unicode="&#x178;" horiz-adv-x="502" 
d="M278 0h-46v258l-228 335h57l193 -289l187 289h57l-220 -335v-258v0zM376 624h-61v50h61v-50v0zM195 624h-61v50h61v-50v0z" />
    <glyph glyph-name="florin" unicode="&#x192;" horiz-adv-x="461" 
d="M69 -122h57q21 0 38 23q16 23 22 61l61 409h-66l6 39h67l13 92q6 39 33 65t61 26h36l-5 -31h-23q-23 0 -40 -19q-18 -20 -23 -49l-12 -84h76l-7 -39h-76l-61 -409q-8 -52 -35 -83q-26 -31 -62 -31h-65l5 30v0z" />
    <glyph glyph-name="circumflex" unicode="&#x2c6;" horiz-adv-x="344" 
d="M158 617h29l93 -153h-36l-70 114h-4l-68 -114h-38l94 153v0z" />
    <glyph glyph-name="lozenge" unicode="&#x2dc;" horiz-adv-x="376" 
d="M87 474l-23 21q11 24 31 39q19 14 40 14q19 0 51 -23q31 -23 50 -23q16 0 31 9q14 8 23 23l22 -23q-12 -21 -32 -33t-43 -12q-19 0 -51 22q-32 23 -51 23q-14 0 -27 -10t-21 -27v0z" />
    <glyph glyph-name="uni0900" unicode="&#x900;" 
d="M-99 749q59 0 104 -40q45 -39 56 -100h-55q-7 41 -37 68t-68 27t-68 -27t-37 -68h-55q11 61 56 100q45 40 104 40v0zM-134 639h50v-65h-50v65v0z" />
    <glyph glyph-name="uni0901" unicode="&#x901;" 
d="M-99 570q-59 0 -104 40q-45 39 -56 100h55q7 -41 37 -68t68 -27t68 27t37 68h55q-11 -61 -56 -100q-45 -40 -104 -40v0zM-139 680v65h75v-65h-75v0z" />
    <glyph glyph-name="uni0902" unicode="&#x902;" 
d="M-133 625v70h75v-70h-75v0z" />
    <glyph glyph-name="uni0903" unicode="&#x903;" horiz-adv-x="260" 
d="M130 80q-23 0 -39 16t-16 39t16 39t39 16t39 -16t16 -39t-16 -39t-39 -16v0zM130 300q-23 0 -39 16t-16 39t16 39t39 16t39 -16t16 -39t-16 -39t-39 -16v0z" />
    <glyph glyph-name="uni0904" unicode="&#x904;" horiz-adv-x="577" 
d="M362 455v45h225v-45h-85v-455h-50v225q-12 -10 -26 -15t-29 -5q-19 0 -34 4q-16 4 -26 11q10 -8 15 -22q5 -15 5 -33q0 -54 -37 -92q-36 -38 -88 -38q-60 0 -116 50q-57 50 -99 140l37 21q36 -76 82 -119q47 -42 96 -42q31 0 53 23t22 56q0 40 -25 68t-60 28
q-23 0 -50 -10l-20 45q45 4 79 33q35 29 35 62q0 27 -17 46q-18 19 -42 19q-29 0 -61 -18q-31 -19 -59 -52l-35 35q28 40 69 62q41 23 86 23t77 -34q32 -33 32 -81q0 -28 -12 -53q-11 -24 -32 -42q19 -19 52 -30q32 -10 73 -10q20 0 55 20v180h-90v0zM352 610q-55 0 -97 38
q-43 38 -53 97h50q7 -37 35 -61t65 -24q62 0 106 -45q44 -46 44 -110h-50q0 43 -29 74q-30 31 -71 31v0z" />
    <glyph glyph-name="uni0905" unicode="&#x905;" horiz-adv-x="577" 
d="M362 455v45h225v-45h-85v-455h-50v225q-12 -10 -26 -15t-29 -5q-19 0 -34 4q-16 4 -26 11q10 -8 15 -22q5 -15 5 -33q0 -54 -37 -92q-36 -38 -88 -38q-60 0 -116 50q-57 50 -99 140l37 21q36 -76 82 -119q47 -42 96 -42q31 0 53 23t22 56q0 40 -25 68t-60 28
q-23 0 -50 -10l-20 45q45 4 79 33q35 29 35 62q0 27 -17 46q-18 19 -42 19q-29 0 -61 -18q-31 -19 -59 -52l-35 35q26 38 67 59t88 21q45 0 77 -32t32 -78q0 -28 -12 -53q-11 -24 -32 -42q19 -19 52 -30q32 -10 73 -10q20 0 55 20v180h-90v0z" />
    <glyph glyph-name="uni0906" unicode="&#x906;" horiz-adv-x="783" 
d="M233 35q-60 0 -116 50q-57 50 -99 140l35 30q38 -81 85 -125q47 -45 95 -45q31 0 53 26q22 27 22 64q0 35 -25 60t-60 25q-23 0 -50 -10l-20 45q45 4 80 33t35 62q0 27 -21 46q-20 19 -49 19q-24 0 -53 -18q-29 -19 -57 -52l-35 35q28 40 66 62q39 23 79 23q50 0 85 -34
q35 -33 35 -81q0 -27 -12 -52t-33 -43q69 -40 130 -40q8 0 20 5q13 5 30 15v180h-90v45h430v-45h-85v-455h-50v455h-155v-455h-50v225q-12 -10 -24 -15q-13 -5 -26 -5q-21 0 -38 4t-27 11q10 -8 15 -22q5 -15 5 -33q0 -54 -37 -92q-36 -38 -88 -38v0z" />
    <glyph glyph-name="uni0907" unicode="&#x907;" horiz-adv-x="377" 
d="M-10 455v45h397v-45h-91v-130h-175q-13 0 -22 -6t-9 -14q0 -17 32 -48q32 -32 49 -32t50 13q33 12 50 12q29 0 49 -25q21 -25 21 -60q0 -62 -38 -106t-92 -44q38 -55 125 -95l-25 -40q-110 63 -160 135q-50 0 -85 19t-35 46q0 21 15 35q14 15 35 15q29 0 57 -20t48 -55
q43 0 74 32q31 33 31 78q0 14 -6 25q-6 10 -14 10q-17 0 -50 -12q-33 -13 -50 -13q-32 0 -82 49q-49 49 -49 81q0 29 24 49q24 21 58 21h124v80h-256v0z" />
    <glyph glyph-name="uni0908" unicode="&#x908;" horiz-adv-x="383" 
d="M-10 455v45h251q-26 23 -40 49t-14 51q0 50 35 85t85 35q6 0 22 -7l33 -13v-45q-41 15 -55 15q-29 0 -49 -21q-21 -20 -21 -49q0 -28 16 -55q17 -26 46 -45h94v-45h-91v-130h-180q-14 0 -25 -6q-10 -6 -10 -14q0 -17 34 -48q33 -32 51 -32q16 0 50 13q31 12 50 12
q31 0 53 -25t22 -60q0 -62 -37 -106q-36 -44 -88 -44q12 -27 44 -50q31 -24 76 -40l-30 -45q-110 63 -160 135q-50 0 -85 19t-35 46q0 21 15 35q14 15 35 15q29 0 57 -20t48 -55q45 0 78 32q32 33 32 78q0 14 -7 25q-8 10 -18 10q-24 0 -45 -10q-32 -15 -55 -15
q-33 0 -84 49t-51 81q0 29 25 49q25 21 60 21h130v80h-262v0z" />
    <glyph glyph-name="uni0909" unicode="&#x909;" horiz-adv-x="474" 
d="M-10 455v45h494v-45h-107q15 -17 22 -38q8 -21 8 -42q0 -33 -13 -60q-14 -27 -37 -40q32 -11 51 -44t19 -76q0 -58 -40 -99q-39 -41 -95 -41q-77 0 -149 81q-72 82 -126 229l41 18q48 -132 109 -205q62 -73 125 -73q35 0 60 26q25 27 25 64q0 41 -23 71q-24 29 -57 29
h-100l-20 50h110q29 0 49 21q21 20 21 49q0 21 -12 42t-33 38h-322v0z" />
    <glyph glyph-name="uni090A" unicode="&#x90a;" horiz-adv-x="691" 
d="M-10 455v45h711v-45h-330q16 -18 24 -39t8 -41q0 -34 -15 -60t-39 -35q24 -11 39 -26t18 -30q18 44 51 70q34 26 72 26q54 0 92 -37q38 -36 38 -88q0 -50 -23 -93q-22 -44 -62 -72l-33 37q32 18 50 53q18 34 18 75q0 31 -23 53q-24 22 -57 22q-37 0 -68 -41t-42 -104
q-8 -48 -47 -79q-38 -31 -88 -31q-79 0 -153 89t-112 231l45 20q34 -128 96 -209q61 -81 124 -81q37 0 64 29q26 30 26 71q0 37 -26 64q-27 26 -64 26h-90l-20 50h100q33 0 56 21q23 20 23 49q0 18 -13 39t-36 41h-314v0z" />
    <glyph glyph-name="uni090B" unicode="&#x90b;" horiz-adv-x="645" 
d="M-10 455v45h665v-45h-285v-175q21 -10 55 -10q13 0 30 10q-10 14 -10 30q0 19 16 32t39 13t39 -15q16 -14 16 -35q0 -19 -8 -34t-22 -21q43 -43 67 -86q23 -43 23 -79q0 -39 -28 -67t-67 -28q-31 0 -56 21t-34 54l45 20q3 -20 16 -32q13 -13 29 -13q19 0 32 13t13 32
q0 35 -24 75q-23 39 -66 75q-32 -15 -50 -15q-38 0 -55 10v-230h-50v190l-250 -150l-30 40l245 140l-60 60q-23 22 -43 33q-19 12 -32 12q-21 0 -51 -13q-29 -13 -64 -37l-20 45q38 27 73 41q34 14 62 14q19 0 43 -13q23 -13 47 -37l80 -80v210h-330v0z" />
    <glyph glyph-name="uni090C" unicode="&#x90c;" horiz-adv-x="528" 
d="M-10 455v45h548v-45h-145v-110q45 -14 72 -59q28 -46 28 -106q0 -54 -31 -96t-79 -54q-33 -8 -54 -31q-21 -22 -21 -49t22 -46t53 -19q29 0 53 6q25 7 42 19l15 -45q-43 -30 -110 -30q-52 0 -88 34q-37 33 -37 81q0 44 30 78t76 42q34 6 57 37q22 31 22 73q0 48 -25 81
q-25 34 -60 34q-28 0 -55 -38q-26 -38 -40 -97l-50 15q8 36 25 70q-14 23 -35 37q-22 13 -45 13q-31 0 -53 -28t-22 -67q0 -49 34 -92q34 -44 91 -68l-20 -40q-70 30 -113 84q-42 55 -42 116q0 60 37 103q36 42 88 42q27 0 54 -16q26 -16 46 -44q15 23 37 38q22 16 48 22
v110h-353v0z" />
    <glyph glyph-name="uni090D" unicode="&#x90d;" horiz-adv-x="365" 
d="M-10 455v45h385v-45h-59v-150q0 -39 -17 -69q-16 -29 -43 -36l-30 35q18 5 29 26t11 49v145h-170v-190q0 -19 6 -36q7 -17 19 -29l175 -165q17 -14 26 -30q9 -15 9 -30q0 -23 -15 -42t-40 -28l-40 35q20 3 32 13q13 10 13 22q0 7 -5 16t-15 19l-185 170q-14 14 -22 29
q-8 14 -8 26v220h-56v0zM291 565q-55 0 -97 38q-43 38 -53 97h50q7 -37 35 -61t65 -24t65 24t35 61h50q-10 -59 -53 -97q-42 -38 -97 -38v0z" />
    <glyph glyph-name="uni090E" unicode="&#x90e;" horiz-adv-x="365" 
d="M-10 455v45h385v-45h-59v-155q0 -37 -17 -65q-16 -28 -43 -35l-30 35q18 5 29 26t11 49v145h-170v-190q0 -19 6 -36q7 -17 19 -29l175 -165q17 -14 26 -30q9 -15 9 -30q0 -23 -15 -42t-40 -28l-40 35q20 3 32 13q13 10 13 22q0 7 -5 16t-15 19l-185 170q-14 14 -22 29
q-8 14 -8 26v220h-56v0zM166 615q-55 0 -97 38q-43 38 -53 97h50q7 -37 35 -61t65 -24q62 0 106 -45q44 -46 44 -110h-50q0 43 -29 74q-30 31 -71 31v0z" />
    <glyph glyph-name="uni090F" unicode="&#x90f;" horiz-adv-x="364" 
d="M-10 455v45h384v-45h-59v-146q0 -41 -17 -71q-16 -31 -43 -38l-30 35q18 5 29 26t11 49v145h-170v-190q0 -19 6 -36q7 -17 19 -29l175 -165q17 -14 26 -30q9 -15 9 -30q0 -23 -15 -42t-40 -28l-40 35q20 3 32 13q13 10 13 22q0 7 -5 16t-15 19l-185 170q-14 14 -22 36
t-8 47v192h-55v0z" />
    <glyph glyph-name="uni0910" unicode="&#x910;" horiz-adv-x="369" 
d="M-10 455v45h274l-145 180l40 30l161 -210h59v-45h-55v-145q0 -33 -17 -63q-17 -31 -48 -52l-30 40q21 18 33 38t12 39v143h-180v-200q0 -12 10 -29q11 -17 30 -36l165 -155q16 -16 24 -31q9 -16 9 -29q0 -22 -16 -41t-42 -29l-40 35q21 4 34 14q14 9 14 21q0 8 -7 20
q-8 12 -21 25l-165 155q-21 18 -33 39t-12 42v199h-54v0z" />
    <glyph glyph-name="uni0911" unicode="&#x911;" horiz-adv-x="783" 
d="M233 35q-60 0 -116 50q-57 50 -99 140l35 30q38 -81 85 -125q47 -45 95 -45q31 0 53 26q22 27 22 64q0 35 -25 60t-60 25q-23 0 -50 -10l-20 45q45 4 80 31q35 28 35 59q0 27 -21 46q-20 19 -49 19q-26 0 -55 -17t-55 -48l-35 35q26 38 65 59q38 21 80 21q50 0 85 -34
q35 -33 35 -81q0 -25 -12 -48q-12 -24 -33 -42q69 -40 125 -40q20 0 55 20v180h-90v45h430v-45h-85v-455h-50v455h-155v-455h-50v225q-12 -10 -26 -15t-29 -5q-19 0 -34 4q-16 4 -26 11q10 -10 15 -23t5 -27q0 -56 -37 -95q-36 -40 -88 -40v0zM685 560q-54 0 -97 40
q-42 39 -53 100h50q7 -39 35 -65q29 -25 65 -25t65 25q28 26 35 65h50q-11 -61 -53 -100q-43 -40 -97 -40v0z" />
    <glyph glyph-name="uni0912" unicode="&#x912;" horiz-adv-x="783" 
d="M233 35q-60 0 -116 50q-57 50 -99 140l35 30q38 -81 85 -125q47 -45 95 -45q31 0 53 26q22 27 22 64q0 35 -25 60t-60 25q-23 0 -50 -10l-20 45q45 4 80 33t35 62q0 27 -21 46q-20 19 -49 19q-24 0 -53 -18q-29 -19 -57 -52l-35 35q28 40 66 62q39 23 79 23q50 0 85 -34
q35 -33 35 -81q0 -27 -12 -52t-33 -43q69 -40 125 -40q20 0 55 20v180h-90v45h430v-45h-85v-455h-50v455h-155v-455h-50v225q-12 -10 -24 -15q-13 -5 -26 -5q-21 0 -38 4t-27 11q10 -8 15 -22q5 -15 5 -33q0 -54 -37 -92q-36 -38 -88 -38v0zM558 615q-55 0 -97 38
q-43 38 -53 97h50q7 -37 35 -61t65 -24q62 0 106 -45q44 -46 44 -110h-50q0 43 -29 74q-30 31 -71 31v0z" />
    <glyph glyph-name="uni0913" unicode="&#x913;" horiz-adv-x="783" 
d="M233 35q-60 0 -116 50q-57 50 -99 140l35 30q38 -81 85 -125q47 -45 95 -45q31 0 53 23q22 24 22 57q0 39 -25 67t-60 28q-23 0 -50 -10l-20 45q45 4 80 33t35 62q0 27 -21 46q-20 19 -49 19q-24 0 -53 -18q-29 -19 -57 -52l-35 35q28 40 66 62q39 23 79 23q50 0 85 -34
q35 -33 35 -81q0 -27 -12 -52t-33 -43q69 -40 120 -40q31 0 60 20v180h-90v45h291l-181 220l35 30l196 -250h89v-45h-85v-455h-50v455h-155v-455h-50v225q-12 -10 -24 -15q-13 -5 -26 -5q-21 0 -38 4t-27 11q10 -8 15 -22q5 -15 5 -33q0 -54 -37 -92q-36 -38 -88 -38v0z" />
    <glyph glyph-name="uni0914" unicode="&#x914;" horiz-adv-x="783" 
d="M233 35q-60 0 -116 50q-57 50 -99 140l35 30q38 -81 85 -125q47 -45 95 -45q31 0 53 23q22 24 22 57q0 39 -25 67t-60 28q-23 0 -50 -10l-20 45q45 4 80 31q35 28 35 59q0 29 -23 49q-24 21 -57 21q-23 0 -48 -17q-26 -17 -47 -48l-40 30q28 40 64 62q36 23 71 23
q54 0 92 -35t38 -85q0 -25 -12 -48q-12 -24 -33 -42q69 -40 125 -40q20 0 55 20v180h-90v45h272l-207 135l30 45l220 -175l-105 215l50 30l83 -250h87v-45h-85v-455h-50v455h-155v-455h-50v225q-12 -10 -24 -15q-13 -5 -26 -5q-21 0 -38 4t-27 11q10 -8 15 -22q5 -15 5 -33
q0 -54 -37 -92q-36 -38 -88 -38v0z" />
    <glyph glyph-name="uni0915" unicode="&#x915;" horiz-adv-x="573" 
d="M-10 455v45h593v-45h-264v-135q16 28 44 44t61 16q48 0 81 -40q34 -39 34 -95q0 -48 -25 -95t-70 -85l-45 30q42 30 66 69q24 40 24 81q0 35 -19 60t-46 25q-35 0 -64 -26q-30 -27 -41 -69v-235h-50v150q-18 -21 -44 -33t-56 -12q-58 0 -99 40t-41 97t41 98q41 40 99 40
q28 0 60 -15l-15 -45q-17 10 -45 10q-37 0 -64 -26q-26 -26 -26 -62t26 -62q27 -25 64 -25q29 0 56 17q27 18 44 48v235h-279v0z" />
    <glyph glyph-name="uni0916" unicode="&#x916;" horiz-adv-x="620" 
d="M-10 455v45h640v-45h-85v-455h-50v60q-35 -29 -84 -45q-49 -15 -106 -15q-87 0 -166 92q-80 92 -119 238l40 20q11 -32 31 -51q19 -19 39 -19q17 0 28 19q12 19 12 46v110h-180v0zM220 455v-110q0 -48 -26 -81q-27 -34 -64 -34q-19 0 -30 5q36 -84 92 -135
q55 -50 113 -50q66 0 117 22t73 61v18q-15 -13 -36 -19q-20 -7 -44 -7q-58 0 -99 38t-41 92t41 92t99 38q39 0 65 -15l-15 -45q-27 10 -50 10q-37 0 -64 -23q-26 -24 -26 -57t26 -57q27 -23 64 -23q24 0 45 9t35 26v245h-275v0z" />
    <glyph glyph-name="uni0917" unicode="&#x917;" horiz-adv-x="389" 
d="M-10 455v45h409v-45h-85v-455h-50v455h-125v-290q0 -12 -7 -21q-8 -9 -18 -9q-19 0 -59 47q-41 47 -41 68q0 8 6 14t14 6h35q8 0 14 7q6 8 6 18v160h-99v0z" />
    <glyph glyph-name="uni0918" unicode="&#x918;" horiz-adv-x="480" 
d="M-10 455v45h500v-45h-85v-455h-50v160q-30 -36 -71 -55q-40 -20 -84 -20q-62 0 -106 37q-44 36 -44 88q0 28 16 53q16 26 44 42q-32 11 -51 36t-19 54q0 17 6 32q7 16 19 28h-75v0zM200 135q38 0 78 24q41 23 77 66v230h-205q-25 0 -42 -18q-18 -17 -18 -42q0 -26 25 -44
t60 -18h55v-50h-40q-37 0 -64 -21q-26 -22 -26 -52q0 -31 29 -53q30 -22 71 -22v0z" />
    <glyph glyph-name="uni0919" unicode="&#x919;" horiz-adv-x="481" 
d="M431 250q-15 0 -26 10q-11 11 -11 25t11 25q11 10 26 10q16 0 27 -10q11 -11 11 -25t-11 -25q-11 -10 -27 -10v0zM-10 455v45h501v-45h-152v-130h-185q-6 0 -11 -4q-4 -5 -4 -11q0 -21 30 -53t50 -32q16 0 47 10q32 10 48 10q37 0 64 -26q26 -27 26 -64q0 -64 -44 -110
q-44 -45 -106 -45q-69 0 -134 52q-65 51 -106 138l40 25q35 -75 89 -120q55 -45 111 -45q41 0 71 31q29 31 29 74q0 17 -12 28q-11 12 -28 12q-16 0 -48 -10q-31 -10 -47 -10q-38 0 -84 48t-46 87q0 27 19 46t46 19h135v80h-299v0z" />
    <glyph glyph-name="uni091A" unicode="&#x91a;" horiz-adv-x="479" 
d="M-10 455v45h499v-45h-85v-455h-50v150q-24 -29 -59 -44q-36 -16 -76 -16q-50 0 -85 35t-35 85q0 36 15 66q14 29 40 44h-145v50h295v-50h-70q-38 -14 -62 -44q-23 -30 -23 -66q0 -29 21 -49q20 -21 49 -21q40 0 76 23t59 62v230h-364v0z" />
    <glyph glyph-name="uni091B" unicode="&#x91b;" horiz-adv-x="540" 
d="M-10 455v45h560v-45h-125v-100q37 -7 61 -36q24 -30 24 -69q0 -88 -88 -169q-87 -81 -182 -81q-75 0 -127 45q-53 46 -53 110q0 33 17 63q17 31 48 52q-35 6 -57 34q-23 29 -23 66q0 28 14 51q13 23 36 34h-105v0zM240 50q32 0 64 13t61 37q-34 34 -52 71q-18 38 -18 74
q0 42 23 73q22 31 57 37v100h-215q-30 -14 -47 -37q-18 -23 -18 -48q0 -29 31 -49q31 -21 74 -21h50l-15 -50h-35q-37 0 -64 -28q-26 -28 -26 -67q0 -43 38 -74t92 -31v0zM400 135q28 20 44 50q16 31 16 65q0 23 -18 39q-17 16 -42 16q-23 0 -39 -18q-16 -17 -16 -42
q0 -34 15 -63q14 -29 40 -47v0z" />
    <glyph glyph-name="uni091C" unicode="&#x91c;" horiz-adv-x="546" 
d="M-10 455v45h566v-45h-85v-455h-50v300h-120q30 -43 30 -90q0 -48 -32 -81q-32 -34 -78 -34q-55 0 -111 63t-94 167l45 20q33 -91 77 -145q43 -55 83 -55q25 0 42 19q18 19 18 46q0 31 -19 68q-20 36 -56 72h215v105h-431v0z" />
    <glyph glyph-name="uni091D" unicode="&#x91d;" horiz-adv-x="549" 
d="M-10 455v45h569v-45h-85v-455h-50v200q-32 -15 -65 -15q-28 0 -55 10v-10q0 -48 -33 -84q-33 -35 -92 -51l80 -60l-30 -35l-100 85q-39 0 -67 18q-28 17 -28 42q0 17 12 28q11 12 28 12q21 0 42 -13q22 -13 38 -37q43 8 72 35q28 26 28 60q0 12 -7 21q-8 9 -18 9
q-15 0 -43 -10q-27 -10 -42 -10q-27 0 -69 47q-41 47 -41 78q0 27 22 46t53 19h125v70h-244v0zM284 455v-120h-175q-10 0 -18 -4q-7 -5 -7 -11q0 -19 23 -47q22 -28 37 -28t42 10q28 10 43 10q23 0 65 -15t65 -15q33 0 65 15v205h-140v0z" />
    <glyph glyph-name="uni091E" unicode="&#x91e;" horiz-adv-x="552" 
d="M-10 455v45h572v-45h-85v-455h-50v220q-41 -15 -70 -15q-24 0 -50 15q-5 -55 -47 -93q-41 -37 -98 -37q-39 0 -79 25t-71 70l40 25q19 -32 48 -51q30 -19 62 -19q39 0 67 29q28 30 28 71q0 35 -23 60q-24 25 -57 25q-24 0 -47 -10q-22 -11 -38 -30l-35 40q24 24 55 37
t65 13q45 0 81 -29q37 -30 49 -76q6 -7 19 -11t31 -4q22 0 40 5t30 15v180h-437v0z" />
    <glyph glyph-name="uni091F" unicode="&#x91f;" horiz-adv-x="425" 
d="M-10 455v45h445v-45h-96v-150h-160q-39 0 -67 -28t-28 -67q0 -66 47 -113t113 -47q42 0 76 19q35 19 54 51l40 -35q-23 -39 -68 -62q-46 -23 -102 -23q-87 0 -148 62q-62 61 -62 148q0 60 42 103q43 42 103 42h110v100h-299v0z" />
    <glyph glyph-name="uni0920" unicode="&#x920;" horiz-adv-x="447" 
d="M-10 455v45h467v-45h-118v-145h-175q-33 0 -57 -29q-23 -30 -23 -71q0 -61 50 -113q51 -52 110 -52q50 0 85 35t35 85q0 28 -16 57q-15 29 -44 53l40 30q33 -28 52 -65q18 -36 18 -75q0 -70 -50 -120t-120 -50q-78 0 -144 68q-66 67 -66 147q0 62 38 106t92 44h125v95
h-299v0z" />
    <glyph glyph-name="uni0921" unicode="&#x921;" horiz-adv-x="434" 
d="M-10 455v45h454v-45h-105v-130h-185q-6 0 -11 -4q-4 -5 -4 -11q0 -21 30 -53t50 -32q16 0 47 10q32 10 48 10q37 0 64 -26q26 -27 26 -64q0 -64 -44 -110q-44 -45 -106 -45q-69 0 -134 52q-65 51 -106 138l40 25q35 -75 89 -120q55 -45 111 -45q41 0 71 31q29 31 29 74
q0 17 -12 28q-11 12 -28 12q-16 0 -48 -10q-31 -10 -47 -10q-38 0 -84 48t-46 87q0 27 19 46t46 19h135v80h-299v0z" />
    <glyph glyph-name="uni0922" unicode="&#x922;" horiz-adv-x="436" 
d="M-10 455v45h456v-45h-104v-150h-165q-39 0 -67 -26q-28 -27 -28 -64q0 -58 52 -111q52 -54 113 -59q-17 20 -26 41q-9 20 -9 39q0 41 28 71q28 29 67 29q41 0 71 -29q29 -30 29 -71q0 -57 -44 -91q-43 -34 -116 -34q-80 0 -147 68q-68 67 -68 147q0 58 42 99
q43 41 103 41h115v100h-302v0zM297 50q26 5 43 26t17 49q0 21 -15 35q-14 15 -35 15q-19 0 -32 -15q-13 -14 -13 -35q0 -22 9 -41q9 -20 26 -34v0z" />
    <glyph glyph-name="uni0923" unicode="&#x923;" horiz-adv-x="502" 
d="M-10 455v45h522v-45h-85v-455h-50v455h-95v-210q0 -50 -34 -85t-81 -35q-50 0 -85 35q-35 36 -35 85v210h-57v0zM167 175q27 0 46 21q19 20 19 49v210h-135v-210q0 -29 21 -49q20 -21 49 -21v0z" />
    <glyph glyph-name="uni0924" unicode="&#x924;" horiz-adv-x="457" 
d="M-10 455v45h477v-45h-85v-455h-50v310h-195q-23 0 -39 -19t-16 -46q0 -48 34 -103t96 -107l-30 -35q-71 60 -111 124q-39 64 -39 121q0 48 31 81q31 34 74 34h195v95h-342v0z" />
    <glyph glyph-name="uni0925" unicode="&#x925;" horiz-adv-x="530" 
d="M30 290q11 -4 61 -5h14q54 0 92 31q38 30 38 74q0 38 -23 64q-24 27 -57 26q-29 0 -50 -16q-21 -17 -20 -39q0 -19 18 -32q17 -13 42 -13v-50q-50 0 -81 26q-30 26 -29 69q0 43 35 74t85 31q54 0 92 -41t38 -99q0 -65 -54 -110q-55 -46 -131 -45q23 -52 64 -82
q37 -28 76 -28q40 0 84 25q43 25 81 70v235h-50v45h185v-45h-85v-455h-50v150q-36 -36 -79 -56q-43 -19 -86 -19q-80 11 -137 70q-57 58 -73 145v0z" />
    <glyph glyph-name="uni0926" unicode="&#x926;" horiz-adv-x="409" 
d="M-10 455v45h429v-45h-73v-130h-175q-37 0 -64 -25q-26 -25 -26 -60q0 -60 54 -103q54 -42 131 -42q-6 6 -10 16q-3 10 -3 22q0 22 17 37t41 15q25 0 42 -19q18 -19 18 -46q0 -20 -11 -38q-10 -19 -29 -32l60 -125l-45 -20l-65 140q-104 0 -177 57t-73 138q0 56 41 95
q41 40 99 40h125v80h-306v0z" />
    <glyph glyph-name="uni0927" unicode="&#x927;" horiz-adv-x="494" 
d="M309 455v45h195v-45h-85v-455h-50v165q-32 -38 -73 -59q-40 -21 -82 -21q-60 0 -103 37q-42 36 -42 88q0 27 11 49q10 23 29 36q-40 28 -62 64q-23 36 -23 71q0 43 29 74q30 31 71 31q43 0 69 -23t26 -62q0 -33 -26 -57q-27 -23 -64 -23v50q17 0 28 9q12 9 12 21
q0 14 -13 25q-13 10 -32 10q-21 0 -35 -16q-15 -16 -15 -39q0 -29 20 -57t55 -48q32 15 55 15l25 -50q-46 0 -78 -23q-32 -24 -32 -57q0 -31 28 -53t67 -22q40 0 81 26q41 27 74 74v220h-60v0z" />
    <glyph glyph-name="uni0928" unicode="&#x928;" horiz-adv-x="439" 
d="M-10 455v45h459v-45h-85v-455h-50v275h-145q-12 0 -21 -6t-9 -14v-50q0 -10 -6 -18q-6 -7 -14 -7q-17 0 -61 50t-44 70q0 10 10 18q11 7 25 7h265v130h-324v0z" />
    <glyph glyph-name="uni0929" unicode="&#x929;" horiz-adv-x="440" 
d="M-10 455v45h460v-45h-85v-455h-50v275h-145q-12 0 -21 -6t-9 -14v-50q0 -12 -7 -21q-8 -9 -18 -9q-17 0 -58 52q-42 52 -42 73q0 10 10 18q11 7 25 7h265v130h-325v0zM170 -5l-40 35l40 40l40 -40l-40 -35v0z" />
    <glyph glyph-name="uni092A" unicode="&#x92a;" horiz-adv-x="403" 
d="M-10 455v45h423v-45h-85v-455h-50v190q-22 -22 -48 -33q-26 -12 -52 -12q-56 0 -95 38q-40 38 -40 92v180h-53v0zM178 195q31 0 58 19t42 51v190h-185v-180q0 -33 25 -57q25 -23 60 -23v0z" />
    <glyph glyph-name="uni092B" unicode="&#x92b;" horiz-adv-x="572" 
d="M-10 455v45h592v-45h-266v-155q18 21 43 33t52 12q52 0 88 -41q37 -41 37 -99q0 -45 -17 -89q-17 -43 -48 -81l-40 30q27 32 41 68t14 72q0 37 -22 64q-22 26 -53 26q-21 0 -46 -16q-25 -15 -49 -44v-235h-50v200q-19 -19 -45 -30q-26 -10 -55 -10q-52 0 -88 35
q-37 35 -37 85v175h-51v0zM166 210q29 0 55 15q27 14 45 40v190h-175v-175q0 -29 22 -49q22 -21 53 -21v0z" />
    <glyph glyph-name="uni092C" unicode="&#x92c;" horiz-adv-x="405" 
d="M-10 455v45h425v-45h-85v-455h-50v155q-22 -22 -50 -33q-29 -12 -60 -12q-58 0 -99 38t-41 92q0 62 41 106t99 44q49 0 75 -15l-15 -45q-21 10 -60 10q-16 0 -28 -4t-17 -11l140 -115l15 20v225h-290v0zM170 160q18 0 33 5t27 15l-135 110q-7 -9 -11 -22q-4 -12 -4 -28
q0 -33 26 -57q27 -23 64 -23v0z" />
    <glyph glyph-name="uni092D" unicode="&#x92d;" horiz-adv-x="487" 
d="M232 455v45h265v-45h-85v-455h-50v215h-165v-40q0 -8 -7 -14q-8 -6 -18 -6q-15 0 -52 38q-38 37 -38 52q0 8 7 14q8 6 18 6h40v185q0 19 -13 32t-32 13t-32 -12q-13 -11 -13 -28t13 -28q13 -12 32 -12v-40q-39 0 -67 23q-28 24 -28 57q0 37 28 64q28 26 67 26t67 -28
t28 -67v-185h165v190h-130v0z" />
    <glyph glyph-name="uni092E" unicode="&#x92e;" horiz-adv-x="436" 
d="M-10 455v45h456v-45h-85v-455h-50v215h-180v-40q0 -10 -6 -18q-6 -7 -14 -7q-16 0 -55 38q-40 37 -40 52q0 10 7 18q8 7 18 7h40v190h-91v0zM131 265h180v190h-180v-190v0z" />
    <glyph glyph-name="uni092F" unicode="&#x92f;" horiz-adv-x="448" 
d="M-10 455v45h468v-45h-85v-455h-50v155q-29 -29 -63 -44q-33 -16 -67 -16q-72 0 -124 53q-51 52 -51 127q57 0 91 22t34 58q0 24 -13 50t-37 50h-103v0zM193 145q39 0 74 21q35 22 56 59v230h-170q19 -23 30 -49q10 -26 10 -51q0 -43 -34 -77t-86 -43q7 -39 41 -65
q34 -25 79 -25v0z" />
    <glyph glyph-name="uni0930" unicode="&#x930;" horiz-adv-x="328" 
d="M-10 455v45h348v-45h-68v-115q0 -46 -31 -78t-74 -32q-13 0 -40 10q65 -113 175 -205l-30 -35q-162 136 -255 335l45 25q13 -36 42 -58t63 -22q23 0 39 18q16 17 16 42v115h-230v0z" />
    <glyph glyph-name="uni0931" unicode="&#x931;" horiz-adv-x="332" 
d="M-10 455v45h352v-45h-68v-115q0 -46 -31 -78t-74 -32q-13 0 -40 10q65 -113 175 -205l-30 -35q-162 136 -255 335l45 35q15 -41 44 -65q28 -25 61 -25q23 0 39 18q16 17 16 42v115h-234v0zM94 -5l-40 35l40 40l40 -40l-40 -35v0z" />
    <glyph glyph-name="uni0932" unicode="&#x932;" horiz-adv-x="546" 
d="M-10 455v45h566v-45h-85v-455h-50v300q-43 0 -81 -39q-37 -39 -54 -101l-50 15q9 48 35 80q-15 21 -39 33t-51 12q-41 0 -71 -29q-29 -30 -29 -71q0 -45 45 -89q46 -44 120 -71l-20 -45q-88 32 -141 88q-54 57 -54 117q0 62 44 106t106 44q37 0 70 -14q33 -15 55 -41
q22 26 52 41q30 14 63 14v105h-431v0z" />
    <glyph glyph-name="uni0933" unicode="&#x933;" horiz-adv-x="562" 
d="M-10 455v45h582v-45h-154v-95q48 -8 79 -52t31 -103q0 -62 -38 -106t-92 -44q-31 0 -62 27q-32 27 -53 73q-21 -46 -51 -73t-59 -27q-58 0 -99 44t-41 107q0 66 41 112q41 47 99 47q34 0 64 -26t46 -69q14 37 36 61q23 24 49 29v95h-378v0zM173 105q22 0 45 27
q24 28 40 73q-13 49 -37 79q-23 31 -48 31q-37 0 -64 -32q-26 -32 -26 -77q0 -42 26 -71q27 -30 64 -30v0zM398 105q33 0 57 29q23 30 23 71q0 46 -23 78q-24 32 -57 32q-27 0 -52 -29q-26 -30 -38 -76q17 -47 42 -76t48 -29v0z" />
    <glyph glyph-name="uni0934" unicode="&#x934;" horiz-adv-x="552" 
d="M-10 455v45h572v-45h-153v-100q49 -13 79 -53q31 -41 31 -92q0 -64 -37 -110q-36 -45 -88 -45q-31 0 -62 27q-32 27 -53 73q-21 -46 -51 -73t-59 -27q-56 0 -95 46q-40 46 -40 111q0 63 40 108q39 45 95 45q34 0 64 -26t46 -69q15 32 36 54q21 23 44 31v100h-369v0z
M169 105q22 0 45 27q24 28 40 73q-13 49 -37 79q-23 31 -48 31q-35 0 -60 -31t-25 -74t25 -74t60 -31v0zM394 105q31 0 53 31t22 74t-22 74t-53 31q-27 0 -52 -29q-26 -30 -38 -76q17 -47 42 -76t48 -29v0zM279 -15l-40 40l40 40l40 -40l-40 -40v0z" />
    <glyph glyph-name="uni0935" unicode="&#x935;" horiz-adv-x="409" 
d="M-10 455v45h429v-45h-85v-455h-50v160q-20 -24 -47 -37q-28 -13 -58 -13q-62 0 -106 40q-44 39 -44 95q0 58 44 99t106 41q44 0 80 -25l-25 -40q-9 7 -23 11t-32 4q-41 0 -71 -26q-29 -27 -29 -64q0 -35 29 -60q30 -25 71 -25q29 0 57 20t48 55v220h-294v0z" />
    <glyph glyph-name="uni0936" unicode="&#x936;" horiz-adv-x="508" 
d="M248 0l-225 190l25 35q14 -12 29 -19q14 -6 26 -6q58 0 99 41t41 99q-13 -23 -36 -37q-23 -13 -49 -13q-46 0 -78 31t-32 74q0 48 32 81q32 34 78 34q56 0 95 -50q40 -50 40 -120q0 -77 -47 -131t-113 -54l145 -120l-30 -35v0zM158 340q20 0 39 15t31 40q-11 29 -30 47
t-40 18q-25 0 -42 -19q-18 -19 -18 -46q0 -23 18 -39q17 -16 42 -16v0zM283 455v45h235v-45h-85v-455h-50v455h-100v0z" />
    <glyph glyph-name="uni0937" unicode="&#x937;" horiz-adv-x="402" 
d="M-10 455v45h422v-45h-85v-455h-50v180q-17 -17 -40 -26q-24 -9 -50 -9q-60 0 -103 40q-42 39 -42 95v175h-52v0zM187 195q21 0 44 10q23 11 46 30l-185 170v-125q0 -35 28 -60t67 -25v0zM277 290v165h-175l175 -165v0z" />
    <glyph glyph-name="uni0938" unicode="&#x938;" horiz-adv-x="533" 
d="M-10 455v45h553v-45h-85v-455h-50v240h-135l-35 50h170v165h-175v-135q0 -39 -25 -67t-60 -28q-6 0 -11 1q-6 2 -9 4l150 -210l-40 -25l-225 320l40 30q15 -32 37 -51q21 -19 43 -19q21 0 35 13q15 13 15 32v135h-193v0z" />
    <glyph glyph-name="uni0939" unicode="&#x939;" horiz-adv-x="384" 
d="M-10 455v45h404v-45h-65v-130h-195q-14 0 -25 -7q-10 -8 -10 -18q0 -16 15 -32t40 -28q32 15 65 15q52 0 88 -32q37 -32 37 -78q0 -26 -11 -48q-10 -21 -29 -32l-40 35q14 8 22 20t8 25q0 25 -22 42q-22 18 -53 18q-50 0 -85 -32t-35 -78q0 -58 72 -99t173 -41v-50
q-122 0 -209 56q-86 55 -86 134q0 40 16 72t44 48q-28 20 -44 42q-16 23 -16 43q0 31 25 53t60 22h145v80h-289v0z" />
    <glyph glyph-name="uni093A" unicode="&#x93a;" 
d="M-72 485h-50v115h50v-115v0z" />
    <glyph glyph-name="uni093B" unicode="&#x93b;" horiz-adv-x="200" 
d="M-10 455v45h85v100h50v-100h85v-45h-85v-455h-50v455h-85v0z" />
    <glyph glyph-name="uni093C" unicode="&#x93c;" 
d="M-365 -35l-40 35l40 40l40 -40l-40 -35v0z" />
    <glyph glyph-name="uni093D" unicode="&#x93d;" horiz-adv-x="340" 
d="M181 0q-56 0 -99 46t-51 115l45 24q7 -56 37 -94q30 -37 68 -37q33 0 57 22q23 22 23 53t-36 71q-36 41 -99 82q-33 21 -51 53q-19 31 -19 65q0 41 31 71q31 29 74 29h120v-45h-120q-23 0 -39 -17q-16 -16 -16 -40t25 -55q26 -30 70 -59q51 -33 81 -75q29 -41 29 -80
q0 -53 -38 -91t-92 -38v0z" />
    <glyph glyph-name="uni093E" unicode="&#x93e;" horiz-adv-x="200" 
d="M-10 455v45h220v-45h-85v-455h-50v455h-85v0z" />
    <glyph glyph-name="uni093F" unicode="&#x93f;" horiz-adv-x="200" 
d="M-10 455v45h85q-7 9 -11 25q-4 17 -4 40q0 62 47 106t113 44q77 0 154 -55q76 -55 131 -150h-60q-42 72 -102 113q-60 42 -123 42q-46 0 -78 -29q-32 -30 -32 -71q0 -23 4 -40q4 -16 11 -25h85v-45h-85v-455h-50v455h-85v0z" />
    <glyph glyph-name="uni0940" unicode="&#x940;" horiz-adv-x="200" 
d="M-10 455v45h85q-13 72 -47 118q-34 47 -73 47q-25 0 -42 -19q-18 -19 -18 -46q0 -24 10 -47q11 -24 30 -43h-55q-17 17 -26 40q-9 24 -9 50q0 48 32 81q32 34 78 34q57 0 105 -61q49 -61 65 -154h85v-45h-85v-455h-50v455h-85v0z" />
    <glyph glyph-name="uni0941" unicode="&#x941;" 
d="M-125 -225q-66 0 -132 26q-65 26 -123 74l30 40q52 -44 110 -67t115 -23q43 0 74 22t31 53q0 25 -22 42q-22 18 -53 18q-24 0 -45 -9t-35 -26l-35 35q20 24 50 37t65 13q52 0 88 -32q37 -32 37 -78q0 -52 -45 -88q-46 -37 -110 -37v0z" />
    <glyph glyph-name="uni0942" unicode="&#x942;" 
d="M-95 -215q-52 0 -88 32q-37 32 -37 78q0 48 37 81q36 34 88 34q80 0 161 -59q80 -59 139 -161l-45 -20q-51 88 -119 139q-69 51 -136 51q-31 0 -53 -18q-22 -19 -22 -45t22 -44t53 -18q16 0 31 7q14 6 24 18l25 -45q-14 -14 -35 -22t-45 -8v0z" />
    <glyph glyph-name="uni0943" unicode="&#x943;" 
d="M-126 -205q-52 0 -88 34q-37 33 -37 81q0 46 40 78q39 32 95 32h45v-45h-45q-35 0 -60 -19t-25 -46t22 -46t53 -19q29 0 54 9q24 9 41 26l25 -45q-23 -19 -54 -30q-31 -10 -66 -10v0z" />
    <glyph glyph-name="uni0944" unicode="&#x944;" 
d="M-127 -200q-50 0 -85 21q-35 20 -35 49q0 17 14 32q13 15 36 23q-18 5 -29 19t-11 31q0 25 25 42q25 18 60 18h80v-35h-80q-17 0 -28 -7q-12 -8 -12 -18q0 -12 15 -21q14 -9 35 -9h45v-40h-45q-25 0 -42 -10q-18 -11 -18 -25q0 -12 22 -21t53 -9q32 0 57 5q24 5 38 15
l15 -35q-17 -12 -46 -19q-28 -6 -64 -6v0z" />
    <glyph glyph-name="uni0945" unicode="&#x945;" 
d="M-95 565q-55 0 -97 38q-43 38 -53 97h50q7 -41 36 -68q28 -27 64 -27t64 27q29 27 36 68h50q-10 -59 -53 -97q-42 -38 -97 -38v0z" />
    <glyph glyph-name="uni0946" unicode="&#x946;" 
d="M-222 615q-55 0 -97 38q-43 38 -53 97h50q7 -41 36 -68q28 -27 64 -27q62 0 106 -42q44 -43 44 -103h-50q0 43 -29 74q-30 31 -71 31v0z" />
    <glyph glyph-name="uni0947" unicode="&#x947;" 
d="M-122 500l-185 220l35 30l200 -250h-50v0z" />
    <glyph glyph-name="uni0948" unicode="&#x948;" 
d="M-134 500l-215 135l30 45l220 -175l-105 215l50 30l85 -250h-65v0z" />
    <glyph glyph-name="uni0949" unicode="&#x949;" horiz-adv-x="200" 
d="M-10 455v45h220v-45h-85v-455h-50v455h-85v0zM100 565q-55 0 -97 38q-43 38 -53 97h50q7 -37 35 -61t65 -24t65 24t35 61h50q-10 -59 -53 -97q-42 -38 -97 -38v0z" />
    <glyph glyph-name="uni094A" unicode="&#x94a;" horiz-adv-x="200" 
d="M-10 455v45h220v-45h-85v-455h-50v455h-85v0zM-25 615q-55 0 -97 38q-43 38 -53 97h50q7 -37 35 -61t65 -24q62 0 106 -45q44 -46 44 -110h-50q0 43 -29 74q-30 31 -71 31v0z" />
    <glyph glyph-name="uni094B" unicode="&#x94b;" horiz-adv-x="200" 
d="M-10 455v45h81l-181 220l35 30l196 -250h89v-45h-85v-455h-50v455h-85v0z" />
    <glyph glyph-name="uni094C" unicode="&#x94c;" horiz-adv-x="200" 
d="M-10 455v45h67l-207 135l30 45l220 -180l-105 220l50 30l83 -250h82v-45h-85v-455h-50v455h-85v0z" />
    <glyph glyph-name="uni094D" unicode="&#x94d;" 
d="M-131 -75l-25 30l60 50l180 -140l-30 -30l-150 120l-35 -30v0z" />
    <glyph glyph-name="uni094F" unicode="&#x94f;" horiz-adv-x="200" 
d="M-10 455v45h62q-6 20 -22 33q-16 12 -35 12q-13 0 -40 -3q-27 -2 -40 -2q-40 0 -71 28q-31 29 -39 72h50q4 -24 21 -39q17 -16 39 -16q13 0 40 3q27 2 40 2q40 0 71 -25q30 -26 37 -65h12q-3 53 -32 89t-68 36q-55 0 -97 38q-43 38 -53 97h50q7 -41 36 -68q28 -27 64 -27
q59 0 103 -48q43 -48 47 -117h45v-45h-85v-455h-50v455h-85v0z" />
    <glyph glyph-name="uni0950" unicode="&#x950;" horiz-adv-x="735" 
d="M294 345q0 31 -23 53t-55 22q-24 0 -51 -20t-50 -55l-38 31q27 44 65 69q37 25 75 25q53 0 90 -37q37 -36 37 -88q0 -23 -12 -45q-11 -22 -32 -40q43 -25 90 -25q24 0 45 13q22 14 35 37q15 26 43 40q28 15 62 15q52 0 88 -45q37 -46 37 -110t-35 -110q-35 -45 -85 -45
q-52 0 -88 38q-37 38 -37 92h45q0 -33 23 -57q24 -23 57 -23q29 0 49 31q21 31 21 74t-22 74t-53 31q-23 0 -46 -16t-39 -44q-12 -21 -39 -33t-61 -12q-13 0 -50 10q7 -9 11 -23t4 -32q0 -54 -41 -92t-99 -38q-61 0 -116 49q-55 50 -84 131l45 20q25 -68 67 -109
q43 -41 88 -41q37 0 64 23q26 24 26 57q0 35 -16 60t-39 25q-26 0 -40 -5l-30 35q47 4 81 31q33 26 33 59v0zM455 455q-64 0 -114 42q-50 43 -61 108h50q16 -45 51 -73q34 -27 74 -27t74 27q35 28 51 73h50q-11 -65 -61 -108q-50 -42 -114 -42v0zM430 570v50h50v-50h-50v0z
" />
    <glyph glyph-name="uni0951" unicode="&#x951;" 
d="M-192 505v235h50v-235h-50v0zM-52 505v235h50v-235h-50v0z" />
    <glyph glyph-name="uni0952" unicode="&#x952;" 
d="M-525 -55v50h340v-50h-340v0z" />
    <glyph glyph-name="uni0953" unicode="&#x953;" 
d="M-122 505v235h50v-235h-50v0z" />
    <glyph glyph-name="uni0954" unicode="&#x954;" 
d="M-134 499l41 158h65l-69 -158h-37v0z" />
    <glyph glyph-name="uni0955" unicode="&#x955;" 
d="M-95 565q-55 0 -97 38q-43 38 -53 97h50q7 -41 36 -68q28 -27 64 -27t64 27q29 27 36 68h50q-10 -59 -53 -97q-42 -38 -97 -38v0zM-245 455v45h300v-45h-300v0z" />
    <glyph glyph-name="uni0956" unicode="&#x956;" 
d="M-285 -185q-63 0 -112 38q-48 38 -58 97h50q7 -41 41 -68t79 -27t79 27t41 68h50q-10 -59 -58 -97q-49 -38 -112 -38v0z" />
    <glyph glyph-name="uni0957" unicode="&#x957;" 
d="M-292 -145q-65 0 -113 33q-48 32 -57 82h50q6 -33 40 -54t80 -21t80 21t40 54h50q-9 -50 -57 -82q-48 -33 -113 -33v0zM-292 -265q-65 0 -113 33q-48 32 -57 82h50q6 -33 40 -54t80 -21t80 21t40 54h50q-9 -50 -57 -82q-48 -33 -113 -33v0z" />
    <glyph glyph-name="uni0958" unicode="&#x958;" horiz-adv-x="566" 
d="M-10 455v45h586v-45h-263v-135q15 26 43 40q28 15 62 15q48 0 81 -38q34 -38 34 -92q0 -46 -26 -93t-74 -87l-35 35q40 34 63 72q22 38 22 73q0 33 -19 57q-19 23 -46 23q-36 0 -65 -25t-40 -65v-235h-50v155q-18 -21 -43 -33t-52 -12q-58 0 -99 39q-41 38 -41 93t41 94
t99 39q27 0 48 -5q20 -5 32 -15l-15 -45q-26 15 -65 15q-37 0 -64 -24q-26 -25 -26 -59t26 -58q27 -24 64 -24q27 0 52 17q26 18 43 48v230h-273v0zM153 -10l-40 40l40 40l40 -40l-40 -40v0z" />
    <glyph glyph-name="uni0959" unicode="&#x959;" horiz-adv-x="627" 
d="M77 -10l-45 40l45 40l45 -40l-45 -40v0zM-10 455v45h647v-45h-85v-455h-50v60q-35 -29 -84 -45q-49 -15 -106 -15q-87 0 -166 92q-80 92 -119 238l40 20q11 -32 31 -51q19 -19 39 -19q17 0 28 19q12 19 12 46v110h-187v0zM227 455v-110q0 -48 -26 -81q-27 -34 -64 -34
q-19 0 -30 5q36 -84 92 -135q55 -50 113 -50q66 0 117 22t73 61v18q-15 -13 -36 -19q-20 -7 -44 -7q-58 0 -99 38t-41 92t41 92t99 38q39 0 65 -15l-15 -45q-27 10 -50 10q-37 0 -64 -23q-26 -24 -26 -57t26 -57q27 -23 64 -23q24 0 45 9t35 26v245h-275v0z" />
    <glyph glyph-name="uni095A" unicode="&#x95a;" horiz-adv-x="389" 
d="M-10 455v45h409v-45h-85v-455h-50v455h-125v-220q0 -14 -6 -25q-6 -10 -14 -10q-19 0 -62 39q-43 38 -43 56q0 8 6 14t14 6h35q8 0 14 7q6 8 6 18v115h-99v0zM99 -10l-40 40l40 40l40 -40l-40 -40v0z" />
    <glyph glyph-name="uni095B" unicode="&#x95b;" horiz-adv-x="551" 
d="M-10 455v45h571v-45h-85v-455h-50v300h-125q19 -23 30 -48q10 -24 10 -47q0 -46 -32 -78t-78 -32q-60 0 -118 63q-59 63 -97 167l40 25q34 -93 82 -149q47 -56 93 -56q25 0 42 18q18 17 18 42q0 21 -22 59q-22 37 -63 86h220v105h-436v0zM136 -10l-45 40l45 40l45 -40
l-45 -40v0z" />
    <glyph glyph-name="uni095C" unicode="&#x95c;" horiz-adv-x="475" 
d="M-10 455v45h495v-45h-86v-130h-190q-6 0 -11 -4q-4 -5 -4 -11q0 -21 30 -53t50 -32q16 0 48 10q31 10 47 10q29 0 49 -23q21 -24 21 -57q0 -64 -44 -110q-44 -45 -106 -45q-78 0 -152 61q-75 61 -123 164l40 25q43 -92 106 -146q64 -54 129 -54q41 0 71 31q29 31 29 74
q0 12 -6 21t-14 9q-16 0 -47 -10q-32 -10 -48 -10q-38 0 -84 48t-46 87q0 27 19 46t46 19h140v80h-359v0zM289 -100l-45 35l45 35l45 -35l-45 -35v0z" />
    <glyph glyph-name="uni095D" unicode="&#x95d;" horiz-adv-x="432" 
d="M-10 455v45h452v-45h-100v-145h-175q-35 0 -60 -25t-25 -60q0 -62 47 -108q48 -46 118 -52q-19 16 -30 38q-10 23 -10 47q0 41 28 71q28 29 67 29q41 0 71 -31q29 -31 29 -74q0 -52 -47 -88q-47 -37 -113 -37q-78 0 -144 64q-66 65 -66 141q0 56 40 95q39 40 95 40h125
v95h-302v0zM297 75q25 12 40 31t15 39q0 23 -15 39q-14 16 -35 16q-19 0 -32 -16t-13 -39q0 -17 10 -36q11 -18 30 -34v0zM242 -100l-45 35l45 35l45 -35l-45 -35v0z" />
    <glyph glyph-name="uni095E" unicode="&#x95e;" horiz-adv-x="575" 
d="M-10 455v45h595v-45h-276v-133q21 21 47 32t53 11q54 0 92 -41t38 -99q0 -45 -17 -89q-17 -43 -48 -81l-45 25q29 29 44 66q16 38 16 79q0 37 -23 64q-24 26 -57 26q-26 0 -52 -14q-26 -15 -48 -41v-260h-50v205q-22 -22 -48 -33q-26 -12 -52 -12q-48 0 -81 35
q-34 35 -34 85v175h-54v0zM159 210q26 0 52 17q27 17 48 48v180h-165v-175q0 -29 19 -49q19 -21 46 -21v0zM129 -5l-40 37l40 38l40 -38l-40 -37v0z" />
    <glyph glyph-name="uni095F" unicode="&#x95f;" horiz-adv-x="448" 
d="M-10 455v45h468v-45h-85v-455h-50v155q-24 -29 -58 -44q-34 -16 -72 -16q-72 0 -124 53q-51 52 -51 127q57 0 91 22t34 58q0 24 -13 50t-37 50h-103v0zM193 145q39 0 74 21q35 22 56 59v230h-170q19 -23 30 -49q10 -26 10 -51q0 -43 -34 -77t-86 -43q7 -39 41 -65
q34 -25 79 -25v0zM123 -5l-40 35l40 40l40 -40l-40 -35v0z" />
    <glyph glyph-name="uni0960" unicode="&#x960;" horiz-adv-x="661" 
d="M-10 455v45h681v-45h-299v-185l85 45q-6 23 6 41q13 19 34 19q19 0 32 -12q13 -11 13 -28q0 -16 -5 -28q-6 -12 -15 -17l35 -65q-35 -6 -57 -27q-23 -22 -23 -48q0 -29 23 -49q24 -21 57 -21q35 0 70 20l25 -45q-54 -25 -95 -25q-54 0 -92 35t-38 85q0 30 18 55
q17 26 47 40l-15 30l-105 -50v-225h-50v190l-240 -140l-25 40l230 130l-65 60q-23 22 -41 33q-19 12 -29 12q-21 0 -51 -13q-29 -13 -64 -37l-25 40q42 29 78 45q35 15 62 15q18 0 41 -13t49 -37l80 -75v205h-332v0z" />
    <glyph glyph-name="uni0961" unicode="&#x961;" horiz-adv-x="532" 
d="M-10 455v45h552v-45h-149v-110q47 -14 76 -59q29 -44 29 -101q0 -59 -38 -104q-38 -46 -97 -56q-15 -3 -25 -11q-10 -9 -10 -19q0 -12 16 -21t39 -9h35v-50h-35q-23 0 -39 -11t-16 -27q0 -15 16 -26t39 -11q29 0 53 6q25 7 42 19l20 -40q-50 -35 -115 -35q-43 0 -74 25
t-31 60q0 20 12 36q13 17 33 24q-20 5 -32 22q-13 17 -13 38q0 31 23 53q24 23 58 26q38 3 63 35q26 32 26 76q0 46 -25 78t-60 32q-30 0 -58 -38t-42 -97l-50 15q8 36 25 70q-14 23 -35 37q-22 13 -45 13q-31 0 -53 -28t-22 -67q0 -49 34 -92q34 -44 91 -68l-20 -40
q-70 30 -113 84q-42 55 -42 116q0 60 37 103q36 42 88 42q30 0 57 -16q28 -16 48 -44q15 24 36 39q21 16 44 21v110h-353v0z" />
    <glyph glyph-name="uni0962" unicode="&#x962;" 
d="M-163 -230q-53 22 -84 62q-32 40 -32 84t28 75q27 31 66 31q23 0 43 -10t33 -28q12 18 32 28q21 10 45 10q39 0 67 -35q28 -36 28 -86q0 -39 -23 -69q-23 -31 -60 -40q-23 -6 -37 -22q-15 -17 -15 -37t15 -34t37 -14q41 0 68 19l12 -33q-37 -26 -80 -26q-38 0 -65 26
t-27 62q0 35 22 61q22 27 56 33q25 4 41 25t16 49q0 34 -16 57q-16 24 -39 24q-25 0 -48 -28q-22 -28 -32 -71l-32 15q6 27 18 51q-9 15 -25 24t-34 9q-22 0 -38 -19q-16 -20 -16 -47q0 -34 25 -64q24 -31 65 -48l-14 -34v0z" />
    <glyph glyph-name="uni0963" unicode="&#x963;" 
d="M-163 -230q-53 22 -84 62q-32 40 -32 84q0 45 28 77q27 32 66 32q24 0 45 -11t34 -30q12 19 31 30t40 11q42 0 72 -34q30 -33 30 -81q0 -45 -28 -79q-27 -35 -70 -42q-11 -2 -19 -9q-7 -7 -7 -15q0 -12 11 -20t26 -8h24v-29h-24q-15 0 -26 -9t-11 -21q0 -10 11 -18
q11 -7 26 -7q44 0 73 20l14 -36q-34 -24 -87 -24q-32 0 -54 19q-23 19 -23 46q0 15 8 27t22 17q-13 4 -22 16q-8 12 -8 27q0 23 17 41q17 17 42 19q28 2 46 27q19 24 19 58q0 31 -18 53t-44 22q-22 0 -43 -27q-20 -28 -30 -71l-36 11q6 27 18 51q-10 17 -26 26
q-16 10 -33 10q-22 0 -38 -20t-16 -49q0 -34 25 -65q25 -30 66 -48l-15 -33v0z" />
    <glyph glyph-name="uni0964" unicode="&#x964;" horiz-adv-x="275" 
d="M150 0v500h50v-500h-50v0z" />
    <glyph glyph-name="uni0965" unicode="&#x965;" horiz-adv-x="435" 
d="M150 0v500h50v-500h-50v0zM310 0v500h50v-500h-50v0z" />
    <glyph glyph-name="uni0966" unicode="&#x966;" horiz-adv-x="450" 
d="M225 40q-72 0 -124 62q-51 61 -51 148t51 148q52 62 124 62t124 -62q51 -61 51 -148t-51 -148q-52 -62 -124 -62v0zM225 90q52 0 88 47q37 47 37 113t-37 113q-36 47 -88 47t-88 -47q-37 -47 -37 -113t37 -113q36 -47 88 -47v0z" />
    <glyph glyph-name="uni0967" unicode="&#x967;" horiz-adv-x="450" 
d="M310 -25v315q-17 -17 -40 -26q-24 -9 -50 -9q-54 0 -92 40q-38 39 -38 95t38 95q38 40 92 40q64 0 102 -41t38 -109v-400h-50v0zM220 300q35 0 60 26q25 27 25 64q0 39 -25 67t-60 28q-33 0 -57 -28q-23 -28 -23 -67q0 -37 23 -64q24 -26 57 -26v0z" />
    <glyph glyph-name="uni0968" unicode="&#x968;" horiz-adv-x="450" 
d="M335 -40l-130 175q-11 -5 -35 -5q-31 0 -53 18q-22 17 -22 42q0 17 15 28q14 12 35 12q19 0 40 -10q21 -11 40 -30q52 19 83 63q32 44 32 97q0 52 -34 88q-33 37 -81 37q-34 0 -68 -14q-35 -14 -67 -41l-30 40q38 31 80 48q43 17 85 17q68 0 117 -51q48 -52 48 -124
q0 -66 -37 -119q-37 -54 -98 -76l120 -165l-40 -30v0z" />
    <glyph glyph-name="uni0969" unicode="&#x969;" horiz-adv-x="449" 
d="M272 -100q-21 12 -44 44t-46 81q-37 0 -64 22q-26 22 -26 53q0 17 13 28q13 12 32 12q20 0 41 -17q22 -18 39 -48q46 8 75 38q30 29 30 67q0 41 -35 71q-35 29 -85 29h-55v45h65q37 0 64 23q26 24 26 57q0 31 -28 53t-67 22q-44 0 -105 -35l-25 35q29 24 64 37
q34 13 71 13q58 0 99 -37q41 -36 41 -88q0 -31 -17 -59q-18 -29 -48 -46q39 -18 62 -51q23 -32 23 -69q0 -52 -40 -93q-39 -41 -100 -52q24 -42 45 -67q20 -26 35 -33l-40 -35v0z" />
    <glyph glyph-name="uni096A" unicode="&#x96a;" horiz-adv-x="449" 
d="M227 0q-54 0 -92 37q-38 36 -38 88q0 39 24 75t66 60q-62 29 -98 72q-37 44 -37 88q0 25 12 48q12 24 33 42l40 -25q-17 -17 -26 -34t-9 -31q0 -38 34 -74q35 -36 91 -56q56 32 88 67t32 63q0 14 -9 32t-26 38l45 25q19 -19 30 -44q10 -25 10 -51q0 -41 -33 -84
q-34 -43 -92 -76q42 -24 66 -60t24 -75q0 -52 -40 -88q-39 -37 -95 -37v0zM227 45q35 0 60 23q25 24 25 57q0 30 -23 58q-23 29 -62 47q-36 -13 -58 -42t-22 -63q0 -33 23 -57q24 -23 57 -23v0z" />
    <glyph glyph-name="uni096B" unicode="&#x96b;" horiz-adv-x="450" 
d="M325 -65l-25 40q21 15 33 31t12 29q0 25 -20 80l-35 115q-36 -25 -80 -25q-66 0 -113 48q-47 49 -47 117q0 96 40 165l45 -20q-35 -61 -35 -145q0 -50 32 -85t78 -35q36 0 65 20q-10 21 -10 85q0 33 18 57q17 23 42 23q21 0 35 -23q15 -24 15 -57q0 -21 -10 -44
q-11 -23 -30 -46l45 -150q20 -55 20 -80q0 -26 -20 -53t-55 -47v0z" />
    <glyph glyph-name="uni096C" unicode="&#x96c;" horiz-adv-x="450" 
d="M345 -95q-41 41 -65 130q-77 0 -131 42q-54 43 -54 103q0 31 17 59q18 29 48 46q-41 7 -68 41t-27 79q0 48 38 81q38 34 92 34q72 0 115 -25l-15 -45q-55 20 -100 20q-33 0 -57 -19q-23 -19 -23 -46q0 -37 26 -64q27 -26 64 -26h90v-40h-45q-43 0 -74 -28t-31 -67
q0 -41 38 -71q38 -29 92 -29q0 33 19 57q19 23 46 23q14 0 25 -13q10 -13 10 -32q0 -20 -12 -40t-33 -35q10 -37 55 -115l-40 -20v0z" />
    <glyph glyph-name="uni096D" unicode="&#x96d;" horiz-adv-x="450" 
d="M230 0q-79 0 -134 78q-56 77 -56 187q0 115 15 210l50 -5q-15 -85 -15 -205q0 -91 41 -156q41 -64 99 -64q33 0 63 27q31 28 47 73q-62 0 -106 48q-44 49 -44 117q0 60 31 103q31 42 74 42q48 0 81 -53q34 -52 34 -127q0 -125 -49 -200t-131 -75v0zM350 180q10 57 10 95
q0 56 -19 95q-19 40 -46 40q-25 0 -42 -29q-18 -30 -18 -71q0 -54 34 -92q33 -38 81 -38v0z" />
    <glyph glyph-name="uni096E" unicode="&#x96e;" horiz-adv-x="450" 
d="M235 0q-77 0 -131 47t-54 113q0 28 12 55q11 28 33 50l235 245l35 -35l-230 -240q-14 -15 -22 -34q-8 -20 -8 -41q0 -48 38 -81q38 -34 92 -34q30 0 64 21t66 59l35 -35q-36 -43 -79 -66q-43 -24 -86 -24v0z" />
    <glyph glyph-name="uni096F" unicode="&#x96f;" horiz-adv-x="449" 
d="M287 -70l-15 45q27 0 46 10q19 11 19 25q0 8 -9 21q-8 12 -26 34l-155 170q-41 41 -63 86q-22 46 -22 89q0 56 41 95q41 40 99 40q56 0 95 -42q40 -43 40 -103q0 -58 -34 -99q-33 -41 -81 -41l-35 5l170 -190q15 -17 22 -34q8 -17 8 -31q0 -30 -29 -53t-71 -27v0z
M202 305q33 0 57 28q23 28 23 67q0 37 -23 64q-24 26 -57 26q-37 0 -64 -26q-26 -27 -26 -64q0 -39 26 -67q27 -28 64 -28v0z" />
    <glyph glyph-name="uni0970" unicode="&#x970;" horiz-adv-x="414" 
d="M205 -5q-54 0 -92 37q-38 38 -38 91q0 56 38 96t92 40q56 0 95 -40t39 -96q0 -53 -39 -91q-39 -37 -95 -37v0zM206 45q34 0 59 23q24 23 24 55q0 36 -24 61q-25 25 -59 25t-57 -25q-24 -25 -24 -61q0 -32 24 -55q23 -23 57 -23v0z" />
    <glyph glyph-name="uni0971" unicode="&#x971;" horiz-adv-x="75" 
d="M-133 625v70h75v-70h-75v0z" />
    <glyph glyph-name="uni0972" unicode="&#x972;" horiz-adv-x="577" 
d="M362 455v45h225v-45h-85v-455h-50v225q-12 -10 -26 -15t-29 -5q-19 0 -34 4q-16 4 -26 11q10 -8 15 -22q5 -15 5 -33q0 -54 -37 -92q-36 -38 -88 -38q-60 0 -116 50q-57 50 -99 140l37 21q36 -76 82 -119q47 -42 96 -42q31 0 53 23t22 56q0 40 -25 68t-60 28
q-23 0 -50 -10l-20 45q45 4 79 33q35 29 35 62q0 27 -17 46q-18 19 -42 19q-29 0 -61 -18q-31 -19 -59 -52l-35 35q28 40 69 62q41 23 86 23t77 -34q32 -33 32 -81q0 -28 -12 -53q-11 -24 -32 -42q19 -19 52 -30q32 -10 73 -10q20 0 55 20v180h-90v0zM479 565q-55 0 -97 38
q-43 38 -53 97h50q7 -37 35 -61t65 -24t65 24t35 61h50q-10 -59 -53 -97q-42 -38 -97 -38v0z" />
    <glyph glyph-name="uni0973" unicode="&#x973;" horiz-adv-x="577" 
d="M362 455v45h225v-45h-85v-455h-50v225q-12 -10 -26 -15t-29 -5q-19 0 -34 4q-16 4 -26 11q10 -8 15 -22q5 -15 5 -33q0 -54 -37 -92q-36 -38 -88 -38q-60 0 -116 50q-57 50 -99 140l37 21q36 -76 82 -119q47 -42 96 -42q31 0 53 23t22 56q0 40 -25 68t-60 28
q-23 0 -50 -10l-20 45q45 4 79 33q35 29 35 62q0 27 -17 46q-18 19 -42 19q-29 0 -61 -18q-31 -19 -59 -52l-35 35q26 38 67 59t88 21q45 0 77 -32t32 -78q0 -28 -12 -53q-11 -24 -32 -42q19 -19 52 -30q32 -10 73 -10q20 0 55 20v180h-90v0zM505 485h-50v115h50v-115v0z
" />
    <glyph glyph-name="uni0974" unicode="&#x974;" horiz-adv-x="783" 
d="M233 35q-60 0 -116 50q-57 50 -99 140l35 30q38 -81 85 -125q47 -45 95 -45q31 0 53 26q22 27 22 64q0 35 -25 60t-60 25q-23 0 -50 -10l-20 45q45 4 80 33t35 62q0 27 -21 46q-20 19 -49 19q-24 0 -53 -18q-29 -19 -57 -52l-35 35q28 40 66 62q39 23 79 23q50 0 85 -34
q35 -33 35 -81q0 -27 -12 -52t-33 -43q69 -40 130 -40q8 0 20 5q13 5 30 15v180h-90v45h430v-45h-85v-455h-50v455h-155v-455h-50v225q-12 -10 -24 -15q-13 -5 -26 -5q-21 0 -38 4t-27 11q10 -8 15 -22q5 -15 5 -33q0 -54 -37 -92q-36 -38 -88 -38v0zM711 485h-50v115h50
v-115v0z" />
    <glyph glyph-name="uni0975" unicode="&#x975;" horiz-adv-x="777" 
d="M362 455v45h225v-45h-85v-455h-50v225q-12 -10 -26 -15t-29 -5q-19 0 -34 4q-16 4 -26 11q10 -8 15 -22q5 -15 5 -33q0 -54 -37 -92q-36 -38 -88 -38q-60 0 -116 50q-57 50 -99 140l37 21q36 -76 82 -119q47 -42 96 -42q31 0 53 23t22 56q0 40 -25 68t-60 28
q-23 0 -50 -10l-20 45q45 4 79 33q35 29 35 62q0 27 -17 46q-18 19 -42 19q-29 0 -61 -18q-31 -19 -59 -52l-35 35q26 38 67 59t88 21q45 0 77 -32t32 -78q0 -28 -12 -53q-11 -24 -32 -42q19 -19 52 -30q32 -10 73 -10q20 0 55 20v180h-90v0zM567 455v45h62q-6 20 -22 33
q-16 12 -35 12q-13 0 -40 -3q-27 -2 -40 -2q-40 0 -71 28q-31 29 -39 72h50q4 -24 21 -39q17 -16 39 -16q13 0 40 3q27 2 40 2q40 0 71 -25q30 -26 37 -65h12q-3 53 -32 89t-68 36q-55 0 -97 38q-43 38 -53 97h50q7 -41 36 -68q28 -27 64 -27q59 0 103 -48q43 -48 47 -117
h45v-45h-85v-455h-50v455h-85v0z" />
    <glyph glyph-name="uni0976" unicode="&#x976;" horiz-adv-x="577" 
d="M362 455v45h225v-45h-85v-455h-50v225q-12 -10 -26 -15t-29 -5q-19 0 -34 4q-16 4 -26 11q10 -8 15 -22q5 -15 5 -33q0 -54 -37 -92q-36 -38 -88 -38q-60 0 -116 50q-57 50 -99 140l37 21q36 -76 82 -119q47 -42 96 -42q31 0 53 23t22 56q0 40 -25 68t-60 28
q-23 0 -50 -10l-20 45q45 4 79 33q35 29 35 62q0 27 -17 46q-18 19 -42 19q-29 0 -61 -18q-31 -19 -59 -52l-35 35q26 38 67 59t88 21q45 0 77 -32t32 -78q0 -28 -12 -53q-11 -24 -32 -42q19 -19 52 -30q32 -10 73 -10q20 0 55 20v180h-90v0zM292 -185q-63 0 -112 38
q-48 38 -58 97h50q7 -41 41 -68t79 -27t79 27t41 68h50q-10 -59 -58 -97q-49 -38 -112 -38v0z" />
    <glyph glyph-name="uni0977" unicode="&#x977;" horiz-adv-x="577" 
d="M362 455v45h225v-45h-85v-455h-50v225q-12 -10 -26 -15t-29 -5q-19 0 -34 4q-16 4 -26 11q10 -8 15 -22q5 -15 5 -33q0 -54 -37 -92q-36 -38 -88 -38q-60 0 -116 50q-57 50 -99 140l37 21q36 -76 82 -119q47 -42 96 -42q31 0 53 23t22 56q0 40 -25 68t-60 28
q-23 0 -50 -10l-20 45q45 4 79 33q35 29 35 62q0 27 -17 46q-18 19 -42 19q-29 0 -61 -18q-31 -19 -59 -52l-35 35q26 38 67 59t88 21q45 0 77 -32t32 -78q0 -28 -12 -53q-11 -24 -32 -42q19 -19 52 -30q32 -10 73 -10q20 0 55 20v180h-90v0zM285 -145q-65 0 -113 33
q-48 32 -57 82h50q6 -33 40 -54t80 -21t80 21t40 54h50q-9 -50 -57 -82q-48 -33 -113 -33v0zM285 -265q-65 0 -113 33q-48 32 -57 82h50q6 -33 40 -54t80 -21t80 21t40 54h50q-9 -50 -57 -82q-48 -33 -113 -33v0z" />
    <glyph glyph-name="uni0979" unicode="&#x979;" horiz-adv-x="551" 
d="M-10 455v45h571v-45h-85v-455h-50v300h-130q22 -31 33 -56q12 -24 12 -39q0 -46 -32 -78t-78 -32q-60 0 -118 63q-59 63 -97 167l40 25q34 -93 82 -149q47 -56 93 -56q25 0 42 18q18 17 18 42q0 21 -22 59q-22 37 -63 86h220v105h-436v0zM156 -10l-45 40l45 40l45 -40
l-45 -40v0zM316 -10l-45 40l45 40l45 -40l-45 -40v0zM231 -80l-45 40l45 40l45 -40l-45 -40v0z" />
    <glyph glyph-name="uni097A" unicode="&#x97a;" horiz-adv-x="448" 
d="M-10 455v45h468v-45h-85v-455h-50v155q-29 -29 -63 -44q-33 -16 -67 -16q-72 0 -124 53q-51 52 -51 127q57 0 91 22t34 58q0 24 -13 50t-37 50h-103v0zM193 145q31 0 60 14t51 39l-121 114q-14 -30 -44 -50q-29 -20 -66 -27q7 -39 41 -65q34 -25 79 -25v0zM323 245v210
h-170q33 -40 39 -86l131 -124v0z" />
    <glyph glyph-name="uni097B" unicode="&#x97b;" horiz-adv-x="389" 
d="M-10 455v45h409v-45h-85v-455h-50v455h-125v-245q0 -12 -7 -21q-8 -9 -18 -9q-19 0 -59 47q-41 47 -41 68q0 8 6 14t14 6h35q8 0 14 7q6 8 6 18v115h-99v0zM-10 -65v50h348v-50h-348v0z" />
    <glyph glyph-name="uni097C" unicode="&#x97c;" horiz-adv-x="546" 
d="M-10 455v45h566v-45h-85v-455h-50v300h-120q30 -43 30 -90q0 -48 -32 -81q-32 -34 -78 -34q-55 0 -111 63t-94 167l45 20q33 -91 77 -145q43 -55 83 -55q25 0 42 19q18 19 18 46q0 31 -19 68q-20 36 -56 72h215v105h-431v0zM42 -65v50h340v-50h-340v0z" />
    <glyph glyph-name="uni097D" unicode="&#x97d;" horiz-adv-x="390" 
d="M119 3h50v126q86 31 138 88t52 119q0 68 -54 116t-131 48q-45 0 -88 -21q-43 -20 -77 -58l30 -42q29 32 65 50q35 18 70 18q56 0 95 -33q40 -32 40 -78q0 -52 -53 -99t-137 -70v-164v0z" />
    <glyph glyph-name="uni097E" unicode="&#x97e;" horiz-adv-x="434" 
d="M-10 455v45h454v-45h-105v-130h-185q-6 0 -11 -4q-4 -5 -4 -11q0 -21 30 -53t50 -32q16 0 47 10q32 10 48 10q37 0 64 -26q26 -27 26 -64q0 -64 -44 -110q-44 -45 -106 -45q-69 0 -134 52q-65 51 -106 138l40 25q35 -75 89 -120q55 -45 111 -45q41 0 71 31q29 31 29 74
q0 17 -12 28q-11 12 -28 12q-16 0 -48 -10q-31 -10 -47 -10q-38 0 -84 48t-46 87q0 27 19 46t46 19h135v80h-299v0zM78 -65v50h340v-50h-340v0z" />
    <glyph glyph-name="uni097F" unicode="&#x97f;" horiz-adv-x="405" 
d="M-10 455v45h425v-45h-85v-455h-50v155q-22 -22 -50 -33q-29 -12 -60 -12q-58 0 -99 38t-41 92q0 62 41 106t99 44q49 0 75 -15l-15 -45q-21 10 -60 10q-16 0 -28 -4t-17 -11l140 -115l15 20v225h-290v0zM170 160q18 0 33 5t27 15l-135 110q-7 -9 -11 -22q-4 -12 -4 -28
q0 -33 26 -57q27 -23 64 -23v0zM15 -65v50h340v-50h-340v0z" />
    <glyph glyph-name="uni200C" unicode="&#x200c;" 
d="M0 -245v995h50v-995h-50v0z" />
    <glyph glyph-name="uni200D" unicode="&#x200d;" 
d="M0 -245v995h170v-40h-120v-955h-50v0z" />
    <glyph glyph-name="endash" unicode="&#x2013;" horiz-adv-x="474" 
d="M0 202v37h474v-37h-474v0z" />
    <glyph glyph-name="emdash" unicode="&#x2014;" horiz-adv-x="800" 
d="M0 202v37h800v-37h-800v0z" />
    <glyph glyph-name="quoteleft" unicode="&#x2018;" horiz-adv-x="186" 
d="M122 433h-58v99q0 31 13 54q14 22 33 22l12 -23q-13 0 -22 -13q-9 -14 -9 -33v-45h31v-61v0z" />
    <glyph glyph-name="quoteright" unicode="&#x2019;" horiz-adv-x="186" 
d="M76 426l-8 23q11 0 18 14q8 15 8 35v49h-30v61h58v-106q0 -31 -13 -54q-14 -22 -33 -22v0z" />
    <glyph glyph-name="quotesinglbase" unicode="&#x201a;" horiz-adv-x="186" 
d="M76 -121l-8 23q11 0 18 14q8 15 8 35v50h-30v61h58v-107q0 -31 -13 -54q-14 -22 -33 -22v0z" />
    <glyph glyph-name="quotedblleft" unicode="&#x201c;" horiz-adv-x="339" 
d="M122 433h-58v99q0 31 13 54q14 22 33 22l12 -23q-13 0 -22 -13q-9 -14 -9 -33v-45h31v-61v0zM275 433h-57v99q0 31 13 54q13 22 32 22l12 -23q-12 0 -21 -13q-9 -14 -9 -33v-45h30v-61v0z" />
    <glyph glyph-name="quotedblright" unicode="&#x201d;" horiz-adv-x="343" 
d="M76 426l-8 23q11 0 18 14q8 15 8 35v49h-30v61h58v-106q0 -31 -13 -54q-14 -22 -33 -22v0zM234 426l-8 23q11 0 18 14q8 15 8 35v49h-30v61h57v-106q0 -31 -13 -54q-13 -22 -32 -22v0z" />
    <glyph glyph-name="quotedblbase" unicode="&#x201e;" horiz-adv-x="311" 
d="M76 -121l-8 23q11 0 18 14q8 15 8 35v50h-30v61h58v-107q0 -31 -13 -54q-14 -22 -33 -22v0zM202 -121l-8 23q11 0 18 14q8 15 8 35v50h-30v61h57v-107q0 -31 -13 -54q-13 -22 -32 -22v0z" />
    <glyph glyph-name="dagger" unicode="&#x2020;" horiz-adv-x="439" 
d="M201 0v422h-137v38h137v137h37v-137h137v-38h-137v-422h-37v0z" />
    <glyph glyph-name="daggerdbl" unicode="&#x2021;" horiz-adv-x="439" 
d="M64 190v38h137v194h-137v38h137v137h37v-137h137v-38h-137v-194h137v-38h-137v-190h-37v190h-137v0z" />
    <glyph glyph-name="bullet" unicode="&#x2022;" horiz-adv-x="352" 
d="M64 240q0 46 33 79t79 33t79 -33t33 -79t-33 -79t-79 -33t-79 33t-33 79v0z" />
    <glyph glyph-name="ellipsis" unicode="&#x2026;" horiz-adv-x="550" 
d="M306 0h-61v62h61v-62v0zM125 0h-61v62h61v-62v0zM486 0h-61v62h61v-62v0z" />
    <glyph glyph-name="perthousand" unicode="&#x2030;" horiz-adv-x="834" 
d="M100 0l355 608h40l-353 -608h-42v0zM170 311q-44 0 -75 41q-31 42 -31 100t31 100q31 41 75 41q43 0 74 -41q30 -42 30 -100t-30 -100q-31 -41 -74 -41v0zM170 346q30 0 51 31t21 75t-21 75t-51 31t-51 -31t-21 -75t21 -75t51 -31v0zM411 0q-44 0 -75 41q-31 42 -31 100
t31 99t75 41t76 -41q31 -41 31 -99t-31 -100q-32 -41 -76 -41v0zM411 34q30 0 51 31q21 32 21 76q0 43 -21 74t-51 31t-51 -31t-21 -74q0 -44 21 -76q21 -31 51 -31v0zM663 0q-44 0 -75 41q-31 42 -31 100t31 99t75 41t76 -41q31 -41 31 -99t-31 -100q-32 -41 -76 -41v0z
M663 34q30 0 51 31q21 32 21 76q0 43 -21 74t-51 31t-51 -31t-21 -74q0 -44 21 -76q21 -31 51 -31v0z" />
    <glyph glyph-name="guilsinglleft" unicode="&#x2039;" horiz-adv-x="330" 
d="M64 195v46l202 181v-37l-176 -165l176 -166v-38l-202 179v0z" />
    <glyph glyph-name="guilsinglright" unicode="&#x203a;" horiz-adv-x="330" 
d="M266 199l-202 -179v38l176 166l-176 165v37l202 -181v-46v0z" />
    <glyph glyph-name="uni20B9" unicode="&#x20b9;" horiz-adv-x="505" 
d="M75 575h355v-55h-155q22 -8 40 -30q17 -23 25 -55h90v-55h-90q-5 -62 -55 -105t-120 -45l190 -220v-10h-70l-190 225v55q6 0 18 -2q11 -3 17 -3q57 0 97 30q41 31 43 75h-195v55h195q-12 38 -37 62q-25 23 -53 23h-105v55v0z" />
    <glyph glyph-name="trademark" unicode="&#x2122;" horiz-adv-x="866" 
d="M220 266h-34v342h-122v32h280v-32h-124v-342v0zM471 266h-35v374h35l147 -312l148 312h36v-374h-36v284l-132 -284h-28l-135 287v-287v0z" />
    <glyph glyph-name="uni2219" unicode="&#x2219;" horiz-adv-x="240" 
d="M64 240q0 23 16 40q17 16 40 16t40 -16q16 -17 16 -40t-16 -40q-17 -16 -40 -16t-40 16q-16 17 -16 40v0z" />
    <glyph glyph-name="uni25CC" unicode="&#x25cc;" horiz-adv-x="690" 
d="M309 484q0 15 11 25q10 11 25 11t25 -11q11 -10 11 -25t-11 -25q-10 -11 -25 -11t-25 11q-11 10 -11 25v0zM309 16q0 15 11 25q10 11 25 11t25 -11q11 -10 11 -25t-11 -25q-10 -11 -25 -11t-25 11q-11 10 -11 25v0zM75 250q0 15 11 25q10 11 25 11t25 -11q11 -10 11 -25
t-11 -25q-10 -11 -25 -11t-25 11q-11 10 -11 25v0zM543 250q0 15 11 25q10 11 25 11t25 -11q11 -10 11 -25t-11 -25q-10 -11 -25 -11t-25 11q-11 10 -11 25v0zM107 133q0 15 11 25q10 11 25 11t25 -11q11 -10 11 -25t-11 -25q-10 -11 -25 -11t-25 11q-11 10 -11 25v0z
M512 367q0 15 11 25q10 11 25 11t25 -11q11 -10 11 -25t-11 -25q-10 -11 -25 -11t-25 11q-11 10 -11 25v0zM426 453q0 15 11 25q10 11 25 11t25 -11q11 -10 11 -25t-11 -25q-10 -11 -25 -11t-25 11q-11 10 -11 25v0zM192 48q0 15 11 25q10 11 25 11t25 -11q11 -10 11 -25
t-11 -26q-10 -11 -25 -11t-25 11q-11 11 -11 26v0zM107 367q0 15 11 25q10 11 25 11t25 -11q11 -10 11 -25t-11 -25q-10 -11 -25 -11t-25 11q-11 10 -11 25v0zM512 133q0 15 11 25q10 11 25 11t25 -11q11 -10 11 -25t-11 -25q-10 -11 -25 -11t-25 11q-11 10 -11 25v0z
M192 453q0 15 11 25q10 11 25 11t25 -11q11 -10 11 -25t-11 -25q-10 -11 -25 -11t-25 11q-11 10 -11 25v0zM426 48q0 15 11 25q10 11 25 11t25 -11q11 -10 11 -25t-11 -26q-10 -11 -25 -11t-25 11q-11 11 -11 26v0z" />
    <glyph glyph-name="uni0947_uni0902.abvs" 
d="M-122 500l-185 215l35 35l200 -250h-50v0zM-97 650v70h75v-70h-75v0z" />
    <glyph glyph-name="uni0947_uni0930_uni094D.rphf.abvs" 
d="M-117 500l-195 215l35 35l110 -130q6 39 39 64q32 26 76 26q35 0 70 -20l-15 -35q-26 15 -55 15t-49 -21q-21 -20 -21 -49q0 -18 3 -31q2 -13 7 -19l45 -50h-50v0z" />
    <glyph glyph-name="uni0947_uni0930_uni094D.rphf.abvs_uni0902.abvs" 
d="M-77 550v75h70v-75h-70v0zM-112 500l-185 220l35 30l105 -130q6 39 37 64q32 26 73 26q38 0 70 -15l-15 -40q-26 15 -55 15t-49 -21q-21 -20 -21 -49q0 -18 3 -31q2 -13 7 -19l40 -50h-45v0z" />
    <glyph glyph-name="uni0948_uni0902.abvs" 
d="M-134 500l-215 105l25 45l220 -135l-105 205l50 30l90 -250h-65v0zM-74 625v70h75v-70h-75v0z" />
    <glyph glyph-name="uni0948_uni0930_uni094D.rphf.abvs" 
d="M-134 500l-220 100l25 50l225 -135l-120 205l50 30l45 -105q15 30 44 47q30 18 66 18q28 0 55 -10v-45q-41 15 -55 15q-35 0 -60 -22t-25 -53l35 -95h-65v0z" />
    <glyph glyph-name="uni0948_uni0930_uni094D.rphf.abvs_uni0902.abvs" 
d="M-49 545v70h70v-70h-70v0zM-129 500l-220 110l25 40l225 -135l-120 205l50 30l45 -105q15 30 44 47q30 18 66 18q28 0 55 -10l-10 -40q-27 10 -45 10q-35 0 -60 -22t-25 -53l35 -95h-65v0z" />
    <glyph glyph-name="uni0930_uni094D.rphf" 
d="M-96 500q-26 22 -41 48q-14 26 -14 52q0 46 35 78t85 32q35 0 70 -20l-20 -35q-26 15 -50 15q-29 0 -49 -21q-21 -20 -21 -49q0 -28 19 -54q19 -27 51 -46h-65v0z" />
    <glyph glyph-name="uni0930_uni094D.rphf_uni0902.abvs" 
d="M-156 500q-22 22 -33 48q-12 26 -12 52q0 46 37 78q36 32 88 32q39 0 65 -15l-15 -35q-21 10 -50 10q-31 0 -53 -21q-22 -20 -22 -49q0 -24 13 -50t37 -50h-55v0zM-66 550v70h70v-70h-70v0z" />
    <glyph glyph-name="uni0930_uni094D.blwf" 
d="M-270 -165l135 200h65l125 -200h-50l-105 165l-110 -165h-60v0z" />
    <glyph glyph-name="uni0936_uni0930_uni094D.blwf.vatu" horiz-adv-x="529" 
d="M314 455v45h225v-45h-85v-455h-50v230l-240 -185l-30 40l190 140l-140 70l-145 -95l-28 38l133 89q-32 18 -51 46q-18 28 -18 57q0 41 30 71q31 29 74 29q41 0 71 -29q29 -30 29 -71q0 -29 -14 -56q-14 -28 -39 -49l138 -70l40 30v170h-90v0zM184 355q21 15 33 35t12 40
q0 21 -15 35q-14 15 -35 15q-22 0 -38 -15q-16 -14 -16 -35q0 -19 16 -39t43 -36v0z" />
    <glyph glyph-name="uni095E_uni0930_uni094D.blwf.vatu" horiz-adv-x="597" 
d="M-10 455v45h617v-45h-276v-140q20 24 47 37q28 13 58 13q52 0 88 -41q37 -41 37 -99q0 -45 -17 -89q-17 -43 -48 -81l-45 25q29 29 44 66q16 38 16 79q0 37 -22 64q-22 26 -53 26q-26 0 -54 -16q-27 -15 -51 -44v-255h-50v131l-225 -126l-20 40l245 136v44
q-22 -22 -48 -33q-26 -12 -52 -12q-52 0 -88 35q-37 35 -37 85v155h-66v0zM181 230q29 0 55 15q27 14 45 40v170h-175v-155q0 -29 22 -49q22 -21 53 -21v0zM186 -40l-40 37l40 38l40 -38l-40 -37v0z" />
    <glyph glyph-name="uni0924_uni094D.half_uni0924.pres" horiz-adv-x="559" 
d="M-10 455v45h579v-45h-85v-455h-50v320h-155q-37 0 -64 -22q-26 -22 -26 -53q0 -63 35 -119t95 -91l-30 -35q-71 49 -110 114q-40 65 -40 131q0 22 9 41q9 20 26 34h-165v50h425v85h-444v0z" />
    <glyph glyph-name="uni0915_uni094D_uni0937.akhn" horiz-adv-x="494" 
d="M319 455v45h185v-45h-85v-455h-50v275q-35 -20 -75 -20q-69 0 -130 35q-35 -9 -58 -32q-22 -22 -22 -48q0 -35 29 -60q28 -25 69 -25q-8 17 -8 22q0 20 15 34q14 14 35 14t35 -15q15 -14 15 -35q0 -17 -8 -32t-22 -23l50 -85l-40 -25l-60 100q-66 0 -113 38t-47 92
q0 35 25 65q24 30 65 45q-28 20 -44 44q-16 23 -16 46q0 43 31 74t74 31t74 -31t31 -74q0 -26 -16 -50t-44 -40q32 -15 80 -15q40 0 75 20v130h-50v0zM164 345q27 10 44 28q16 18 16 37q0 23 -16 39q-17 16 -40 16q-22 0 -38 -16t-16 -39q0 -14 13 -31q13 -18 37 -34v0z" />
    <glyph glyph-name="uni091C_uni094D_uni091E.akhn" horiz-adv-x="534" 
d="M-10 455v45h554v-45h-85v-455h-50v335h-290q-10 0 -18 -4q-7 -5 -7 -11q0 -20 26 -50q27 -30 44 -30q14 0 40 10t40 10q35 0 60 -25t25 -60q0 -50 -45 -85q-46 -35 -110 -35q9 -20 34 -34q25 -15 61 -21l-35 -35q-66 18 -110 70q-39 0 -67 19t-28 46q0 19 13 32t32 13
q11 0 30 -14q18 -15 40 -41q57 5 96 29q39 25 39 56q0 14 -10 25q-11 10 -25 10t-40 -10t-40 -10q-32 0 -76 48t-44 83q0 27 22 45q22 19 53 19h290v70h-419v0z" />
    <glyph glyph-name="uni0915_uni094D.half" horiz-adv-x="439" 
d="M-10 455v45h459v-45h-140v-135q20 28 48 44q27 16 57 16q6 0 25 -7l20 -8v-55q-10 10 -21 15q-12 5 -24 5q-38 0 -68 -28q-29 -29 -37 -72v-230h-50v140q-17 -17 -40 -26q-24 -9 -50 -9q-58 0 -99 38t-41 92q0 60 41 103q41 42 99 42q45 0 80 -20l-20 -45q-32 15 -60 15
q-37 0 -64 -28q-26 -28 -26 -67q0 -33 26 -57q27 -23 64 -23q27 0 51 15q24 14 39 40v245h-269v0z" />
    <glyph glyph-name="uni0916_uni094D.half" horiz-adv-x="475" 
d="M-10 455v45h495v-45h-265v-110q0 -48 -26 -81q-27 -34 -64 -34q-19 0 -30 5q36 -84 92 -135q55 -50 113 -50q66 0 117 22t73 61v-73q-35 -29 -84 -45q-49 -15 -106 -15q-87 0 -166 92q-80 92 -119 238l40 20q11 -32 31 -51q19 -19 39 -19q17 0 28 19q12 19 12 46v110
h-180v0zM275 255q0 54 41 92t99 38q39 0 65 -15l-15 -45q-27 10 -50 10q-37 0 -64 -23q-26 -24 -26 -57t26 -57q27 -23 64 -23q24 0 45 9t35 26v-59q-13 -13 -34 -19q-21 -7 -46 -7q-58 0 -99 38t-41 92v0z" />
    <glyph glyph-name="uni0917_uni094D.half" horiz-adv-x="190" 
d="M-10 455v45h210v-45h-56v-255q0 -12 -6 -21t-14 -9q-20 0 -65 45t-45 65q0 12 6 21t14 9h40q8 0 14 9t6 21v115h-104v0z" />
    <glyph glyph-name="uni0918_uni094D.half" horiz-adv-x="335" 
d="M-10 455v45h355v-45h-195q-25 0 -42 -18q-18 -17 -18 -42q0 -26 25 -44t60 -18h55v-50h-40q-37 0 -64 -21q-26 -22 -26 -52q0 -31 29 -53q30 -22 71 -22q38 0 78 24q41 23 77 66v-65q-30 -36 -71 -55q-40 -20 -84 -20q-62 0 -106 37q-44 36 -44 88q0 28 16 53
q16 26 44 42q-32 11 -51 36t-19 54q0 17 6 32q7 16 19 28h-75v0z" />
    <glyph glyph-name="uni0919_uni094D.half" horiz-adv-x="544" 
d="M-10 455v45h564v-45h-156v-125h-170q-14 0 -25 -6q-10 -6 -10 -14q0 -21 32 -53t53 -32q17 0 47 13q31 12 48 12q31 0 53 -23q22 -24 22 -57q0 -66 -44 -113t-106 -47q-70 0 -148 61q-78 62 -137 164l40 30q59 -101 120 -153q62 -52 125 -52q41 0 71 32q29 32 29 78
q0 12 -7 21q-8 9 -18 9q-17 0 -47 -12q-31 -13 -48 -13q-33 0 -84 58q-51 59 -51 97q0 21 16 35q16 15 39 15h150v75h-358v0zM493 250q-17 0 -28 10q-12 11 -12 25t12 25q11 10 28 10t28 -10q12 -11 12 -25t-12 -25q-11 -10 -28 -10v0zM263 -65l-20 40l55 25l180 -135
l-30 -30l-150 120l-35 -20v0z" />
    <glyph glyph-name="uni091A_uni094D.half" horiz-adv-x="359" 
d="M244 90q-60 0 -103 38q-42 38 -42 92q0 31 13 57q13 27 37 43h-140v50h290v-50h-60q-39 -7 -65 -35q-25 -29 -25 -65q0 -33 28 -57q28 -23 67 -23q37 0 73 25q37 26 62 70v-70q-25 -35 -60 -55q-36 -20 -75 -20v0zM-10 455v45h379v-45h-379v0z" />
    <glyph glyph-name="uni091B_uni094D.half" horiz-adv-x="540" 
d="M-10 455v45h560v-45h-125v-100q37 -7 61 -36q24 -30 24 -69q0 -88 -88 -169q-87 -81 -182 -81q-75 0 -127 45q-53 46 -53 110q0 33 17 63q17 31 48 52q-35 6 -57 34q-23 29 -23 66q0 30 8 53q8 22 22 32h-85v0zM240 50q32 0 64 13t61 37q-34 34 -52 71q-18 38 -18 74
q0 42 23 73q22 31 57 37v100h-245q-17 -14 -26 -36q-9 -23 -9 -49q0 -29 31 -49q31 -21 74 -21h40v-50h-40q-37 0 -64 -28q-26 -28 -26 -67q0 -43 38 -74t92 -31v0zM400 135q28 20 44 50q16 31 16 65q0 23 -18 39q-17 16 -42 16q-23 0 -39 -18q-16 -17 -16 -42q0 -34 15 -63
q14 -29 40 -47v0zM205 -100l-30 30l65 45l180 -140l-30 -30l-150 120l-35 -25v0z" />
    <glyph glyph-name="uni091C_uni094D.half" horiz-adv-x="442" 
d="M242 55q-56 0 -118 76q-62 75 -107 199l45 20q40 -110 90 -178q49 -67 90 -67q31 0 53 22t22 53q0 34 -26 78t-74 92h245v-50h-145q24 -29 37 -60t13 -60q0 -52 -37 -88q-36 -37 -88 -37v0zM-10 455v45h462v-45h-462v0z" />
    <glyph glyph-name="uni091D_uni094D.half" horiz-adv-x="411" 
d="M-10 455v45h431v-45h-135v-120h-175q-8 0 -14 -4q-6 -5 -6 -11q0 -23 23 -52q23 -28 42 -28q15 0 43 12q27 13 42 13q23 0 65 -15t65 -15q20 0 36 4q15 4 24 11v-50q-41 -15 -60 -15q-22 0 -44 8q2 -3 3 -7q1 -5 1 -11q0 -49 -43 -89q-44 -39 -110 -51q28 -32 83 -50
l-25 -35q-70 33 -110 80q-39 0 -67 19t-28 46q0 17 13 28q13 12 32 12q27 0 51 -15q24 -14 39 -40q51 14 83 40q32 27 32 55q0 17 -12 28q-11 12 -28 12q-15 0 -43 -13q-27 -12 -42 -12q-28 0 -72 49q-43 49 -43 81q0 27 21 46q20 19 49 19h125v70h-246v0z" />
    <glyph glyph-name="uni091E_uni094D.half" horiz-adv-x="345" 
d="M170 90q-38 0 -80 21t-80 59l25 35q31 -31 66 -48t69 -17q37 0 64 28q26 28 26 67q0 37 -25 64q-25 26 -60 26q-41 0 -70 -20l-25 40q43 30 95 30q50 0 88 -31q39 -31 47 -79q27 -10 50 -10q22 0 40 5t30 15v-55q-26 -15 -70 -15q-23 0 -50 10q-5 -53 -45 -89t-95 -36v0z
M-10 455v45h365v-45h-365v0z" />
    <glyph glyph-name="uni091F_uni094D.half" horiz-adv-x="425" 
d="M-10 455v45h445v-45h-96v-150h-185q-29 0 -49 -25q-21 -25 -21 -60q0 -66 47 -113t113 -47q42 0 76 19q35 19 54 51l40 -35q-23 -39 -68 -62q-46 -23 -102 -23q-87 0 -148 62q-62 61 -62 148q0 56 35 95q35 40 85 40h135v100h-299v0zM209 -90l-30 35l65 35l180 -135
l-30 -30l-150 120l-35 -25v0z" />
    <glyph glyph-name="uni0920_uni094D.half" horiz-adv-x="434" 
d="M-10 455v45h454v-45h-106v-145h-175q-33 0 -57 -26q-23 -27 -23 -64q0 -61 50 -113q51 -52 110 -52q43 0 74 32t31 78q0 24 -9 45t-26 35l40 30q21 -18 33 -47t12 -63q0 -66 -45 -113q-46 -47 -110 -47q-78 0 -144 68q-66 67 -66 147q0 58 38 99t92 41h125v95h-298v0z
M208 -85l-20 40l55 25l180 -135l-30 -30l-150 120l-35 -20v0z" />
    <glyph glyph-name="uni0921_uni094D.half" horiz-adv-x="474" 
d="M-10 455v45h494v-45h-90v-130h-185q-8 0 -14 -4q-6 -5 -6 -11q0 -21 32 -53t53 -32q16 0 45 10t45 10q31 0 53 -23q22 -24 22 -57q0 -64 -44 -110q-44 -45 -106 -45q-71 0 -163 74q-93 73 -112 146l40 25q17 -64 96 -130q79 -65 139 -65q41 0 71 31q29 31 29 74
q0 12 -7 21q-8 9 -18 9q-16 0 -45 -10t-45 -10q-39 0 -87 50t-48 90q0 25 21 42q20 18 49 18h135v80h-354v0zM254 -80l-20 40l55 25l180 -135l-30 -30l-150 120l-35 -20v0z" />
    <glyph glyph-name="uni0922_uni094D.half" horiz-adv-x="435" 
d="M-10 455v45h455v-45h-103v-150h-195q-27 0 -46 -23q-19 -24 -19 -57q0 -58 52 -111q52 -54 113 -59q-17 14 -26 36q-9 23 -9 49q0 39 28 67t67 28q41 0 71 -29q29 -30 29 -71q0 -52 -47 -88q-47 -37 -113 -37q-80 0 -147 68q-68 67 -68 147q0 54 34 92q33 38 81 38h145
v100h-302v0zM297 60q26 5 43 26t17 49q0 21 -15 35q-14 15 -35 15q-19 0 -32 -13t-13 -32q0 -24 9 -45t26 -35v0zM212 -90l-20 40l55 25l180 -135l-30 -30l-150 120l-35 -20v0z" />
    <glyph glyph-name="uni0923_uni094D.half" horiz-adv-x="341" 
d="M-10 455v45h361v-45h-58v-220q0 -46 -35 -78t-85 -32q-52 0 -88 32q-37 32 -37 78v220h-58v0zM173 175q29 0 49 18q21 17 21 42v220h-145v-220q0 -25 22 -42q22 -18 53 -18v0z" />
    <glyph glyph-name="uni0924_uni094D.half" horiz-adv-x="284" 
d="M189 15q-76 64 -118 127t-42 113q0 43 35 74t85 31h155v-50h-155q-29 0 -49 -16q-21 -16 -21 -39q0 -44 37 -99q36 -55 103 -111l-30 -30v0zM-10 455v45h304v-45h-304v0z" />
    <glyph glyph-name="uni0925_uni094D.half" horiz-adv-x="385" 
d="M325 455v45h70v-45h-70v0zM30 290q11 -4 61 -5h14q54 0 92 31q38 30 38 74q0 38 -23 64q-24 27 -57 26q-29 0 -50 -16q-21 -17 -20 -39q0 -19 18 -32q17 -13 42 -13v-50q-50 0 -81 26q-30 26 -29 69q0 43 35 74t85 31q54 0 92 -41t38 -99q0 -65 -54 -110
q-55 -46 -131 -45q23 -52 64 -82q37 -28 76 -28q40 0 84 25q43 25 81 70v-70q-36 -36 -79 -56q-43 -19 -86 -19q-80 11 -137 70q-57 58 -73 145v0z" />
    <glyph glyph-name="uni0926_uni094D.half" horiz-adv-x="413" 
d="M129 -15l65 30l165 -125l-30 -30l-140 105l-40 -15l-20 35v0zM-10 455v45h433v-45h-84v-130h-190q-29 0 -49 -21q-21 -20 -21 -49q0 -57 52 -91t138 -34q-3 11 -3 28q0 26 16 44q15 18 37 18q21 0 35 -13q15 -13 15 -32q0 -26 -11 -46t-29 -29q17 -46 45 -95l-45 -20
l-50 100q-113 0 -182 46q-68 47 -68 124q0 50 35 85t85 35h140v80h-299v0z" />
    <glyph glyph-name="uni0927_uni094D.half" horiz-adv-x="349" 
d="M274 455v45h85v-45h-85v0zM69 210q0 27 11 49q10 23 29 36q-40 28 -62 64q-23 36 -23 71q0 43 29 74q30 31 71 31q43 0 69 -23t26 -62q0 -33 -26 -57q-27 -23 -64 -23v50q17 0 28 9q12 9 12 21q0 14 -13 25q-13 10 -32 10q-21 0 -35 -16q-15 -16 -15 -39q0 -29 20 -57
t55 -48q32 15 55 15l25 -50q-46 0 -78 -23q-32 -24 -32 -57q0 -31 28 -53t67 -22q40 0 81 26q41 27 74 74v-70q-32 -38 -73 -59q-40 -21 -82 -21q-60 0 -103 37q-42 36 -42 88v0z" />
    <glyph glyph-name="uni0928_uni094D.half" horiz-adv-x="297" 
d="M112 175q-20 0 -57 50q-38 49 -38 75q0 12 10 21q11 9 25 9h265v-50h-155q-12 0 -21 -6t-9 -14v-55q0 -12 -6 -21t-14 -9v0zM-10 455v45h317v-45h-317v0z" />
    <glyph glyph-name="uni0929_uni094D.half" horiz-adv-x="297" 
d="M112 175q-20 0 -57 50q-38 49 -38 75q0 12 10 21q11 9 25 9h265v-50h-155q-12 0 -21 -6t-9 -14v-55q0 -12 -6 -21t-14 -9v0zM-10 455v45h317v-45h-317v0zM197 -5l-40 35l40 40l40 -40l-40 -35v0z" />
    <glyph glyph-name="uni092A_uni094D.half" horiz-adv-x="265" 
d="M-10 455v45h285v-45h-185v-160q0 -37 26 -64q27 -26 64 -26q32 0 61 20q28 21 44 55v-70q-18 -26 -46 -40q-28 -15 -59 -15q-58 0 -99 42q-41 43 -41 103v155h-50v0z" />
    <glyph glyph-name="uni092B_uni094D.half" horiz-adv-x="442" 
d="M-10 455v45h462v-45h-140v-140q22 26 47 41q25 14 48 14q20 0 55 -20v-50q-29 20 -55 20q-20 0 -45 -20t-50 -55v-245h-50v200q-18 -21 -42 -33q-23 -12 -48 -12q-54 0 -92 37q-38 36 -38 88v175h-52v0zM172 205q23 0 46 16q24 16 44 44v190h-170v-175q0 -31 23 -53
q24 -22 57 -22v0z" />
    <glyph glyph-name="uni092C_uni094D.half" horiz-adv-x="275" 
d="M170 95q-58 0 -99 41t-41 99q0 62 44 106t106 44q29 0 50 -10v-50q-7 5 -20 7q-13 3 -30 3q-18 0 -33 -5t-27 -15l155 -115l20 25v-65q-21 -31 -55 -48q-33 -17 -70 -17v0zM170 145q22 0 41 8q20 8 34 22l-150 110q-7 -9 -11 -22q-4 -12 -4 -28q0 -37 26 -64
q27 -26 64 -26v0zM-10 455v45h295v-45h-295v0z" />
    <glyph glyph-name="uni092D_uni094D.half" horiz-adv-x="343" 
d="M233 455v45h120v-45h-120v0zM78 235q0 12 9 21t21 9h40v180q0 21 -13 35q-13 15 -32 15t-32 -10q-13 -11 -13 -25q0 -17 12 -28q11 -12 28 -12v-50q-37 0 -64 26q-26 27 -26 64q0 35 28 60t67 25t67 -29q28 -30 28 -71v-180h165v-50h-165v-40q0 -8 -7 -14q-8 -6 -18 -6
q-16 0 -55 33q-40 34 -40 47v0z" />
    <glyph glyph-name="uni092E_uni094D.half" horiz-adv-x="301" 
d="M-10 455v45h321v-45h-180v-190h190v-50h-190v-45q0 -8 -6 -14t-14 -6q-16 0 -55 35q-40 36 -40 50q0 12 7 21q8 9 18 9h40v190h-91v0z" />
    <glyph glyph-name="uni092F_uni094D.half" horiz-adv-x="310" 
d="M-10 455v45h330v-45h-170q19 -19 30 -43q10 -23 10 -47q0 -47 -32 -81q-31 -35 -78 -39q16 -43 47 -69q32 -26 68 -26q37 0 73 25q37 26 62 70v-70q-30 -36 -65 -55q-36 -20 -70 -20q-58 0 -108 50q-51 50 -72 130q52 0 88 25q37 25 37 60q0 19 -13 43q-13 23 -37 47
h-100v0z" />
    <glyph glyph-name="glyph166" horiz-adv-x="200" 
d="M-10 455v45h85q-12 12 -19 31q-6 20 -6 44q0 56 47 95q47 40 113 40q71 0 134 -55t96 -145h-50q-32 69 -81 109q-49 41 -99 41q-46 0 -78 -25t-32 -60q0 -19 8 -38q7 -20 22 -37h80v-45h-85v-455h-50v455h-85v0z" />
    <glyph glyph-name="glyph167" horiz-adv-x="200" 
d="M-10 455v45h85q-7 9 -11 20q-4 12 -4 25q0 70 81 120q80 50 194 50q116 0 224 -54q109 -54 191 -151h-60q-74 74 -167 115q-92 40 -188 40q-93 0 -159 -35t-66 -85q0 -13 4 -25q4 -11 11 -20h85v-45h-85v-455h-50v455h-85v0z" />
    <glyph glyph-name="uni0932_uni094D.half" horiz-adv-x="406" 
d="M221 0q-86 31 -138 89t-52 121q0 58 44 99t106 41q31 0 64 -16q32 -15 61 -44q24 24 55 37t65 13v-50q-51 0 -93 -36t-57 -94l-45 20q11 29 21 48t19 27q-18 21 -42 33q-23 12 -48 12q-41 0 -71 -26q-29 -27 -29 -64q0 -50 44 -97t116 -73l-20 -40v0zM-10 455v45h426v-45
h-426v0z" />
    <glyph glyph-name="uni0933_uni094D.half" horiz-adv-x="494" 
d="M164 55q-54 0 -92 45q-38 46 -38 110t38 110q38 45 92 45q36 0 68 -26q31 -26 47 -69q16 43 46 69t64 26q52 0 88 -44q37 -44 37 -106q0 -66 -37 -113q-36 -47 -88 -47q-35 0 -67 27q-32 28 -48 73q-16 -45 -47 -73q-30 -27 -63 -27v0zM164 105q22 0 47 30t43 80
q-16 45 -41 73q-25 27 -49 27q-33 0 -57 -31q-23 -31 -23 -74t23 -74q24 -31 57 -31v0zM389 105q31 0 53 32t22 78q0 41 -22 71q-22 29 -53 29t-56 -30q-26 -29 -34 -75q8 -46 34 -75q25 -30 56 -30v0zM-10 455v45h514v-45h-514v0z" />
    <glyph glyph-name="uni0934_uni094D.half" horiz-adv-x="495" 
d="M165 55q-54 0 -92 45q-38 46 -38 110q0 66 38 113t92 47q35 0 67 -27q32 -28 48 -73q16 43 46 69t64 26q52 0 88 -44q37 -44 37 -106q0 -66 -37 -113q-36 -47 -88 -47q-35 0 -67 27q-32 28 -48 73q-16 -45 -47 -73q-30 -27 -63 -27v0zM165 105q22 0 47 30t43 80
q-17 47 -42 76t-48 29q-33 0 -57 -32q-23 -32 -23 -78q0 -43 23 -74q24 -31 57 -31v0zM390 105q31 0 53 32t22 78q0 41 -22 71q-22 29 -53 29t-56 -30q-26 -29 -34 -75q8 -46 34 -75q25 -30 56 -30v0zM-10 455v45h515v-45h-515v0zM275 -20l-40 40l40 40l40 -40l-40 -40v0z
" />
    <glyph glyph-name="uni0935_uni094D.half" horiz-adv-x="260" 
d="M170 110q-58 0 -99 41q-41 42 -41 100t41 98q41 41 99 41q45 0 80 -20l-20 -45q-10 7 -26 11q-15 4 -34 4q-37 0 -64 -26q-26 -26 -26 -63q0 -38 26 -64q27 -27 64 -27q26 0 55 17t55 48v-65q-24 -24 -53 -37q-28 -13 -57 -13v0zM-10 455v45h280v-45h-280v0z" />
    <glyph glyph-name="uni0936_uni094D.half" horiz-adv-x="333" 
d="M252 0l-230 195l30 35l50 -30q58 0 99 39q41 38 41 93q-13 -19 -33 -29q-19 -11 -42 -11q-50 0 -85 35q-35 34 -35 83q0 48 35 81q35 34 85 34q59 0 92 -45q33 -44 33 -125q0 -79 -48 -134q-49 -56 -117 -56l155 -130l-30 -35v0zM167 342q27 0 46 20t19 48q0 27 -19 46
t-46 19q-29 0 -49 -19q-21 -19 -21 -46q0 -28 21 -48q20 -20 49 -20v0z" />
    <glyph glyph-name="uni0937_uni094D.half" horiz-adv-x="277" 
d="M-10 455v45h297v-45h-175l185 -190v-75q-31 -22 -60 -33q-28 -12 -50 -12q-60 0 -103 40q-42 39 -42 95v175h-52v0zM187 195q24 0 46 8q22 7 39 22l-180 185v-130q0 -35 28 -60t67 -25v0z" />
    <glyph glyph-name="uni0938_uni094D.half" horiz-adv-x="393" 
d="M-10 455v45h413v-45h-165v-135q0 -41 -22 -71q-22 -29 -53 -29q-10 0 -16 1q-7 2 -9 4l135 -200l-35 -25l-225 325l40 30q23 -39 46 -62q22 -23 39 -23q21 0 35 15q15 14 15 35v135h-198v0zM268 245l-25 50h170v-50h-145v0z" />
    <glyph glyph-name="uni0939_uni094D.half" horiz-adv-x="377" 
d="M-10 455v45h397v-45h-57v-130h-195q-14 0 -25 -7q-10 -8 -10 -18q0 -16 15 -32t40 -28q32 15 65 15h135v-50h-135q-50 0 -85 -32t-35 -78q0 -58 72 -99t173 -41v-50q-122 0 -209 56q-86 55 -86 134q0 41 15 73q14 32 40 47q-26 22 -41 44q-14 23 -14 41q0 31 25 53t60 22
h145v80h-290v0z" />
    <glyph glyph-name="uni0958_uni094D.half" horiz-adv-x="440" 
d="M-10 455v45h460v-45h-140v-135q16 28 40 44t50 16q12 0 27 -6q16 -7 33 -19v-50q-12 12 -28 19q-15 6 -32 6q-31 0 -57 -28q-25 -29 -33 -72v-230h-50v155q-24 -24 -50 -37t-50 -13q-54 0 -92 38t-38 92q0 60 40 103q39 42 95 42q45 0 80 -20l-20 -45q-10 7 -26 11
q-15 4 -34 4q-35 0 -60 -28t-25 -67q0 -33 23 -57q24 -23 57 -23q28 0 54 19q27 19 46 51v230h-270v0zM150 -10l-45 40l45 40l45 -40l-45 -40v0z" />
    <glyph glyph-name="uni0959_uni094D.half" horiz-adv-x="483" 
d="M73 -10l-40 40l40 40l40 -40l-40 -40v0zM-10 455v45h503v-45h-265v-110q0 -48 -26 -81q-27 -34 -64 -34q-19 0 -30 5q36 -84 92 -135q55 -50 113 -50q66 0 117 22t73 61v-73q-35 -29 -84 -45q-49 -15 -106 -15q-87 0 -166 92q-80 92 -119 238l40 20q11 -32 31 -51
q19 -19 39 -19q17 0 28 19q12 19 12 46v110h-188v0zM283 255q0 54 41 92t99 38q39 0 65 -15l-15 -45q-27 10 -50 10q-37 0 -64 -23q-26 -24 -26 -57t26 -57q27 -23 64 -23q24 0 45 9t35 26v-59q-13 -13 -34 -19q-21 -7 -46 -7q-58 0 -99 38t-41 92v0z" />
    <glyph glyph-name="uni095A_uni094D.half" horiz-adv-x="201" 
d="M-10 455v45h221v-45h-64v-255q0 -12 -9 -21t-21 -9q-19 0 -59 45q-41 45 -41 65q0 12 6 21t14 9h40q8 0 14 9t6 21v115h-107v0zM102 -10l-40 40l40 40l40 -40l-40 -40v0z" />
    <glyph glyph-name="uni095B_uni094D.half" horiz-adv-x="450" 
d="M245 110q-68 0 -131 60q-63 61 -99 160l45 20q31 -86 82 -138t103 -52q27 0 46 15q19 14 19 35q0 20 -22 56q-21 34 -63 84h245v-50h-150q19 -19 30 -43q10 -23 10 -47q0 -41 -34 -71q-33 -29 -81 -29v0zM-10 455v45h470v-45h-470v0zM210 -5l-40 35l40 40l40 -40l-40 -35
v0z" />
    <glyph glyph-name="uni095E_uni094D.half" horiz-adv-x="442" 
d="M-10 455v45h462v-45h-140v-145q24 29 49 44q25 16 46 16q7 0 21 -6l34 -19v-45q-29 20 -55 20q-20 0 -45 -20t-50 -55v-245h-50v200q-18 -21 -42 -33q-23 -12 -48 -12q-54 0 -92 37q-38 36 -38 88v175h-52v0zM172 205q23 0 46 16q24 16 44 44v190h-170v-175q0 -31 23 -53
q24 -22 57 -22v0zM147 0l-40 35l40 35l40 -35l-40 -35v0z" />
    <glyph glyph-name="uni0936_uni094D.half_uni0930_uni094D.blwf.vatu" horiz-adv-x="310" 
d="M395 195l-215 100q-73 -62 -145 -95l-25 35q92 53 130 85q-30 17 -48 44q-17 27 -17 56q0 39 30 67t72 28q43 0 73 -28t30 -67q0 -23 -14 -48q-15 -25 -41 -47l170 -75v-55v0zM180 345q24 16 37 36t13 39t-16 32q-15 13 -37 13t-37 -13t-15 -32q0 -20 15 -40
q14 -20 40 -35v0z" />
    <glyph glyph-name="uni0924_uni094D.half_uni0930_uni094D.blwf.vatu" horiz-adv-x="259" 
d="M-10 455v45h279v-45h-279v0zM109 40l-30 40l220 140q-50 50 -91 78q-40 27 -64 27q-19 0 -46 -13t-59 -37l-30 40q42 29 76 45q35 15 59 15q39 0 92 -37q52 -36 108 -103v-35l-235 -160v0z" />
    <glyph glyph-name="uni0924_uni094D.half_uni0924_uni094D.half.pres" horiz-adv-x="299" 
d="M224 0q-62 52 -96 114q-34 61 -34 121q0 22 10 44q11 22 30 41h-125v50h375v-50h-150q-37 0 -64 -25q-26 -25 -26 -60q0 -54 29 -107q29 -54 81 -98l-30 -30v0zM-10 455v45h319v-45h-319v0z" />
    <glyph glyph-name="uni0915_uni094D_uni0937.akhn_uni094D.half" horiz-adv-x="411" 
d="M276 5q-48 22 -70 70q-14 -5 -30 -5q-58 0 -99 38t-41 92q0 39 25 72q24 33 65 48q-28 20 -44 45t-16 50q0 43 32 74t78 31q43 0 74 -31t31 -74q0 -28 -16 -53q-16 -26 -44 -42q32 -15 75 -15q78 0 135 40v-50q-69 -40 -135 -40q-73 0 -130 40q-37 -17 -58 -43
q-22 -26 -22 -52q0 -33 25 -57q25 -23 60 -23q19 0 30 5q0 29 15 49q14 21 35 21q19 0 32 -15q13 -14 13 -35q0 -15 -9 -30q-9 -16 -26 -30q6 -13 50 -50l-35 -30v0zM171 340q27 13 44 33q16 20 16 42q0 23 -16 39t-39 16q-25 0 -42 -16q-18 -16 -18 -39t15 -43t40 -32v0z
M326 455v45h95v-45h-95v0z" />
    <glyph glyph-name="uni091C_uni094D_uni091E.akhn_uni094D.half" horiz-adv-x="361" 
d="M231 -35q-46 27 -110 80q-40 0 -65 15q-24 15 -25 40q0 17 13 28q13 12 32 12q14 0 31 -13q17 -14 34 -37q59 11 97 39t38 61q0 8 -6 14t-14 6q-16 0 -47 -7q-31 -8 -48 -8q-40 0 -80 40t-40 80q0 29 20 50q21 21 50 20h270v-50h-270q-8 0 -14 -6t-6 -14q0 -22 24 -46
t46 -24q16 0 47 7q31 8 48 8q29 0 50 -20q21 -21 20 -50q0 -47 -41 -86q-41 -38 -104 -49q15 -15 85 -55l-35 -35v0zM-10 455v45h381v-45h-381v0z" />
    <glyph glyph-name="uni0940_uni0902.abvs" horiz-adv-x="200" 
d="M-10 455v45h85q-20 73 -56 119t-74 46q-23 0 -39 -19t-16 -46q0 -24 10 -47q11 -24 30 -43h-55q-17 17 -26 40q-9 24 -9 50q0 48 31 81q31 34 74 34q54 0 104 -60q51 -60 76 -155h85v-45h-85v-455h-50v455h-85v0zM115 640v75h75v-75h-75v0z" />
    <glyph glyph-name="uni0940_uni0930_uni094D.rphf.abvs" horiz-adv-x="200" 
d="M-10 455v45h85q-20 73 -56 119t-74 46q-23 0 -39 -19t-16 -46q0 -24 10 -47q11 -24 30 -43h-55q-17 17 -26 40q-9 24 -9 50q0 48 31 81q31 34 74 34q31 0 63 -20q31 -20 57 -55q14 36 45 58q32 22 70 22q33 0 60 -10l-15 -50q-17 10 -45 10q-33 0 -57 -26
q-23 -27 -23 -64l7 -19q18 -49 18 -61h85v-45h-85v-455h-50v455h-85v0z" />
    <glyph glyph-name="uni0940_uni0930_uni094D.rphf.abvs_uni0902.abvs" horiz-adv-x="200" 
d="M-10 455v45h85q-13 72 -47 118q-34 47 -73 47q-27 0 -46 -19t-19 -46q0 -24 10 -47q11 -24 30 -43h-55q-17 17 -26 40q-9 24 -9 50q0 48 34 81q33 34 81 34q29 0 59 -20t56 -55q14 36 44 58t66 22q28 0 55 -10l-15 -50q-27 10 -40 10q-31 0 -53 -26q-22 -27 -22 -64
q20 -55 20 -80h85v-45h-85v-455h-50v455h-85v0zM160 540v75h70v-75h-70v0z" />
    <glyph glyph-name="glyph189" horiz-adv-x="200" 
d="M-10 455v45h85q-27 74 -93 120q-66 45 -147 45q-50 0 -85 -23q-35 -24 -35 -57q0 -22 10 -43q11 -21 30 -37h-55q-17 14 -26 35t-9 45q0 54 50 92t120 38q95 0 175 -59t115 -156h85v-45h-85v-455h-50v455h-85v0z" />
    <glyph glyph-name="glyph190" horiz-adv-x="200" 
d="M-10 455v45h85q-27 74 -93 120q-66 45 -147 45q-48 0 -81 -23q-34 -24 -34 -57q0 -27 10 -50q11 -24 30 -40h-55q-17 14 -26 38q-9 23 -9 52q0 54 48 92q49 38 117 38q95 0 175 -59t115 -156h85v-45h-85v-455h-50v455h-85v0zM100 640v70h75v-70h-75v0z" />
    <glyph glyph-name="glyph191" horiz-adv-x="200" 
d="M-10 455v45h85q-27 74 -93 120q-66 45 -147 45q-48 0 -81 -23q-34 -24 -34 -57q0 -27 10 -50q11 -24 30 -40h-55q-17 14 -26 38q-9 23 -9 52q0 54 48 92q49 38 117 38q60 0 118 -27q57 -26 103 -75q6 46 40 76q34 31 79 31q6 0 22 -7l33 -13v-45q-21 15 -55 15
q-29 0 -49 -21q-21 -20 -21 -49q0 -31 7 -56q7 -26 21 -44h77v-45h-85v-455h-50v455h-85v0z" />
    <glyph glyph-name="glyph192" horiz-adv-x="200" 
d="M160 560v50h50v-50h-50v0zM-10 455v45h85q-27 74 -93 120q-66 45 -147 45q-48 0 -81 -23q-34 -24 -34 -57q0 -27 10 -50q11 -24 30 -40h-55q-17 14 -26 38q-9 23 -9 52q0 54 48 92q49 38 117 38q60 0 118 -27q57 -26 103 -75q6 46 40 76q34 31 79 31q6 0 22 -7l33 -13
v-45q-9 7 -23 11t-32 4q-29 0 -49 -21q-21 -20 -21 -49q0 -31 7 -56q7 -26 21 -44h77v-45h-85v-455h-50v455h-85v0z" />
    <glyph glyph-name="uni0930_uni094D.blwf_uni0941.blws" 
d="M-151 -255q-65 0 -118 20q-52 19 -82 55l25 30q29 -29 74 -44q46 -16 101 -16q41 0 71 15q29 14 29 35q0 17 -12 28q-11 12 -28 12q-19 0 -38 -13q-19 -14 -32 -37l-30 30q16 28 43 44t57 16q33 0 57 -23q23 -24 23 -57q0 -39 -41 -67t-99 -28v0zM-271 -90l175 90
l180 -85l-20 -35l-160 75l-155 -80l-20 35v0z" />
    <glyph glyph-name="uni0930_uni094D.blwf_uni0942.blws" 
d="M-75 -245q-52 0 -88 22q-37 22 -37 53q0 35 29 60q30 25 71 25q65 0 132 -37q67 -36 123 -103l-35 -25q-50 59 -108 92q-57 33 -112 33q-23 0 -39 -13t-16 -32q0 -14 19 -25q19 -10 46 -10h25l-10 -40v0zM-275 -70l175 70l180 -70l-20 -35l-160 60l-155 -65l-20 40v0z
" />
    <glyph glyph-name="glyph195" 
d="M-105 -275q-75 0 -132 14q-56 14 -88 41l20 35q32 -27 83 -41q52 -14 117 -14q48 0 81 21q34 20 34 49q0 25 -21 42q-20 18 -49 18q-20 0 -39 -10q-20 -11 -36 -30l-25 30q24 24 50 37t50 13q46 0 78 -29q32 -30 32 -71q0 -43 -45 -74q-46 -31 -110 -31v0z" />
    <glyph glyph-name="glyph196" 
d="M-65 -255q-41 0 -71 26q-29 27 -29 64q0 39 31 67t74 28q64 0 131 -52q67 -53 119 -143l-40 -20q-46 79 -102 124q-56 46 -108 46q-25 0 -42 -15q-18 -14 -18 -35q0 -19 16 -32t39 -13q18 0 33 5t27 15l20 -40q-36 -25 -80 -25v0z" />
    <glyph glyph-name="glyph198" horiz-adv-x="442" 
d="M-122 455v45h574v-45h-85v-455h-50v125q-20 -24 -50 -37t-65 -13q-63 0 -113 47q-49 46 -62 118h50q45 0 67 14q23 14 23 41q0 21 -22 35q-22 15 -53 15q-33 0 -98 -10q-64 -10 -97 -10v50q33 0 98 10q64 10 97 10q52 0 88 -29q37 -30 37 -71q0 -43 -34 -69t-91 -26
q12 -34 43 -54q30 -21 67 -21q40 0 72 19t43 51v260h-439v0z" />
    <glyph glyph-name="uni0930_uni094D_uni200C.half" horiz-adv-x="216" 
d="M151 220q-62 0 -140 45v45q86 -40 140 -40q31 0 85 25v-55q-43 -20 -85 -20v0zM-10 455v45h236v-45h-236v0z" />
    <glyph glyph-name="uni0915_uni0930_uni094D.blwf.vatu" horiz-adv-x="578" 
d="M-10 455v45h598v-45h-264v-135q16 28 44 44t61 16q48 0 81 -40q34 -39 34 -95q0 -48 -25 -95t-70 -85l-45 30q42 30 66 69q24 40 24 81q0 35 -19 60t-46 25q-35 0 -64 -26q-30 -27 -41 -69v-235h-50v146l-215 -161l-30 35l122 86q-46 6 -77 43q-30 37 -30 86q0 60 44 103
q44 42 106 42q18 0 31 -3q13 -2 19 -7l-10 -50q-17 10 -40 10q-41 0 -71 -28q-29 -28 -29 -67q0 -33 23 -57q24 -23 57 -23q29 0 56 17q27 18 44 48v235h-284v0z" />
    <glyph glyph-name="uni0916_uni0930_uni094D.blwf.vatu" horiz-adv-x="616" 
d="M-10 455v45h636v-45h-85v-455h-50v100l-365 -180l-20 40l155 75q-56 10 -103 44t-77 86q-32 55 -60 160l35 25q11 -29 27 -47q17 -18 33 -18q21 0 35 18q15 17 15 42v110h-176v0zM301 75q30 0 78 19t112 56v55q-20 -17 -43 -26q-24 -9 -47 -9q-46 0 -78 31t-32 74
q0 46 34 78q33 32 81 32q27 0 70 -20l-15 -45q-22 15 -55 15q-27 0 -46 -18q-19 -17 -19 -42q0 -23 18 -39q17 -16 42 -16q23 0 47 9q23 9 43 26v200h-275v-110q0 -46 -26 -78q-27 -32 -64 -32q-9 0 -30 10q20 -75 77 -123q57 -47 128 -47v0z" />
    <glyph glyph-name="uni0917_uni0930_uni094D.blwf.vatu" horiz-adv-x="398" 
d="M-10 455v45h418v-45h-85v-455h-50v137l-230 -122l-20 40l250 132v268h-125v-245q0 -12 -7 -21q-8 -9 -18 -9q-19 0 -59 47q-41 47 -41 68q0 8 6 14t14 6h35q8 0 14 7q6 8 6 18v115h-108v0z" />
    <glyph glyph-name="uni091C_uni0930_uni094D.blwf.vatu" horiz-adv-x="545" 
d="M-10 455v45h565v-45h-85v-455h-50v115l-235 -125l-20 40l255 130v140h-125q17 -24 26 -46t9 -39q0 -41 -29 -71q-30 -29 -71 -29q-63 0 -122 57q-58 58 -93 153l45 20q30 -82 76 -131q47 -49 94 -49q21 0 35 15q15 14 15 35q0 29 -19 64q-20 35 -56 71h215v105h-430v0z
" />
    <glyph glyph-name="uni091D_uni0930_uni094D.blwf.vatu" horiz-adv-x="554" 
d="M-10 455v45h574v-45h-85v-455h-50v80l-115 -60l-20 40l135 70v70q-32 -15 -55 -15q-24 0 -65 15q0 -61 -32 -101q-31 -39 -88 -49q40 -34 85 -50l-30 -35q-66 31 -110 75q-43 0 -74 18q-31 17 -31 42q0 17 15 28q14 12 35 12t42 -13q22 -13 38 -37q43 8 72 32
q28 24 28 53q0 17 -7 28q-8 12 -18 12q-15 0 -43 -10q-27 -10 -42 -10q-27 0 -69 47q-41 47 -41 78q0 27 22 46t53 19h125v70h-249v0zM364 235q33 0 65 15v205h-140v-120h-175q-10 0 -18 -4q-7 -5 -7 -11q0 -19 24 -47q25 -28 41 -28q15 0 42 10q28 10 43 10q29 0 50 -15
q10 -7 30 -11q19 -4 45 -4v0z" />
    <glyph glyph-name="uni0924_uni0930_uni094D.blwf.vatu" horiz-adv-x="436" 
d="M-10 455v45h456v-45h-85v-455h-50v185l-220 -145l-25 45l221 140q-43 43 -79 67q-35 23 -57 23q-30 0 -59 -10q-28 -11 -51 -30l-30 40q29 24 65 37t75 13q29 0 70 -26q42 -26 90 -74v190h-321v0z" />
    <glyph glyph-name="uni0926_uni0930_uni094D.blwf.vatu" horiz-adv-x="412" 
d="M-10 455v45h432v-45h-73v-130h-175q-39 0 -67 -25t-28 -60q0 -62 56 -106q55 -44 134 -44q-15 21 -15 45q0 21 18 35q17 15 42 15t42 -19q18 -19 18 -46q0 -22 -11 -41q-10 -18 -29 -29l65 -140l-45 -20l-70 155l-170 -130l-35 35l135 105q-82 22 -133 74q-52 51 -52 111
q0 56 42 95q43 40 103 40h125v80h-309v0z" />
    <glyph glyph-name="uni092A_uni0930_uni094D.blwf.vatu" horiz-adv-x="433" 
d="M-10 455v45h453v-45h-85v-455h-50v190l-250 -190l-30 40l150 110q-48 12 -79 47t-31 78v180h-78v0zM203 190q11 0 19 1q7 2 11 4l75 50v210h-190v-180q0 -35 25 -60t60 -25v0z" />
    <glyph glyph-name="uni092B_uni0930_uni094D.blwf.vatu" horiz-adv-x="599" 
d="M-10 455v45h619v-45h-276v-140q20 24 47 37q28 13 58 13q52 0 88 -41q37 -41 37 -99q0 -45 -17 -89q-17 -43 -48 -81l-45 25q29 29 44 66q16 38 16 79q0 37 -22 64q-22 26 -53 26q-26 0 -54 -16q-27 -15 -51 -44v-255h-50v111l-225 -106l-20 40l245 116v44
q-22 -22 -48 -33q-26 -12 -52 -12q-52 0 -88 35q-37 35 -37 85v175h-68v0zM183 210q29 0 55 15q27 14 45 40v190h-175v-175q0 -29 22 -49q22 -21 53 -21v0z" />
    <glyph glyph-name="uni092C_uni0930_uni094D.blwf.vatu" horiz-adv-x="413" 
d="M-10 455v45h433v-45h-85v-455h-50v150l-225 -150l-25 40l117 76q-51 11 -84 46t-33 78q0 62 44 106t106 44q30 0 65 -20l-15 -40q-21 10 -50 10q-22 0 -38 -5q-15 -6 -22 -15l145 -110l15 20v225h-298v0zM178 160q18 0 33 5t27 15l-135 110q-7 -9 -11 -22q-4 -12 -4 -28
q0 -33 26 -57q27 -23 64 -23v0z" />
    <glyph glyph-name="uni092D_uni0930_uni094D.blwf.vatu" horiz-adv-x="487" 
d="M232 455v45h265v-45h-85v-455h-50v141l-218 -151l-30 40l248 167v18h-165v-40q0 -8 -7 -14q-8 -6 -18 -6q-15 0 -52 38q-38 37 -38 52q0 8 7 14q8 6 18 6h40v185q0 19 -13 32t-32 13t-32 -12q-13 -11 -13 -28t13 -28q13 -12 32 -12v-40q-39 0 -67 23q-28 24 -28 57
q0 37 28 64q28 26 67 26t67 -28t28 -67v-185h165v190h-130v0z" />
    <glyph glyph-name="uni092E_uni0930_uni094D.blwf.vatu" horiz-adv-x="438" 
d="M-10 455v45h458v-45h-85v-455h-50v119l-225 -124l-25 40l250 130v50h-180v-35q0 -12 -4 -21q-5 -9 -11 -9q-17 0 -58 38q-42 37 -42 52q0 10 7 18q8 7 18 7h40v190h-93v0zM133 265h180v190h-180v-190v0z" />
    <glyph glyph-name="uni0935_uni0930_uni094D.blwf.vatu" horiz-adv-x="416" 
d="M-10 455v45h436v-45h-85v-455h-50v155l-220 -155l-25 40l114 72q-54 8 -89 46t-35 87q0 58 44 99t106 41q14 0 31 -6q17 -7 34 -19l-25 -40q-9 7 -19 11t-21 4q-41 0 -71 -26q-29 -27 -29 -64q0 -35 29 -60q30 -25 71 -25q29 0 57 20t48 55v220h-301v0z" />
    <glyph glyph-name="uni0938_uni0930_uni094D.blwf.vatu" horiz-adv-x="589" 
d="M-10 455v45h609v-45h-85v-455h-50v160l-205 -80l-20 45l225 80v40h-175l-20 50h195v160h-235v-135q0 -39 -22 -67t-53 -28q-9 0 -15 1q-7 2 -10 4l140 -205l-40 -25l-215 320l40 35q17 -37 39 -58q21 -22 41 -22q19 0 32 13t13 32v135h-189v0z" />
    <glyph glyph-name="uni0939_uni0930_uni094D.blwf.vatu" horiz-adv-x="399" 
d="M-10 455v45h419v-45h-78v-120h-205q-10 0 -18 -4q-7 -5 -7 -11q0 -15 19 -41q19 -27 31 -29q32 15 80 15q56 0 95 -32q40 -32 40 -78q0 -22 -10 -43q-11 -21 -30 -37l-40 35q14 10 22 22t8 23q0 8 -4 17t-11 18l-100 -120l-40 30l95 110l-25 5q-51 9 -90 -17
q-40 -26 -40 -68q0 -75 69 -127q69 -53 166 -53l-10 -45q-114 0 -194 64q-81 65 -81 156q0 36 15 64q15 27 40 36q-26 22 -41 47q-14 25 -14 48q0 27 22 46t53 19h155v70h-291v0z" />
    <glyph glyph-name="glyph216" horiz-adv-x="475" 
d="M315 455v45h170v-45h-85v-455h-50v195l-165 100l-145 -95l-30 40l135 85q-30 15 -47 42q-18 27 -18 58q0 41 29 71q30 29 71 29t71 -31q29 -31 29 -74q0 -21 -16 -46q-15 -25 -44 -49l130 -80v210h-35v0zM180 350q23 13 37 32q13 19 13 38q0 23 -15 39q-14 16 -35 16
t-35 -15q-15 -14 -15 -35q0 -26 14 -46q13 -21 36 -29v0z" />
    <glyph glyph-name="uni0915_uni094D.half_uni0915.pres" horiz-adv-x="585" 
d="M-10 455v45h605v-45h-270v-115q22 26 51 41q29 14 59 14q43 0 74 -28t31 -67q0 -24 -8 -45t-22 -35q14 -8 22 -23t8 -32q0 -30 -21 -64t-59 -66l-30 40q28 16 44 40t16 50q0 19 -16 32t-39 13q-28 0 -57 -16q-29 -15 -53 -44v-150h-50v115q-20 -24 -51 -37
q-32 -13 -69 -13q-48 0 -81 23q-34 24 -34 57q0 22 16 41q17 19 44 29q-27 10 -44 32q-16 22 -16 48q0 41 38 71q38 29 92 29q22 0 46 -9q25 -9 49 -26l-25 -40q-36 25 -70 25q-33 0 -57 -15q-23 -14 -23 -35t25 -35q25 -15 60 -15q31 0 57 9t43 26v175h-285v0zM155 115
q40 0 72 16t48 44v50q-17 -8 -85 -20q-43 -8 -72 -25q-28 -17 -28 -35q0 -12 19 -21t46 -9v0zM325 210q20 24 47 37q28 13 58 13q23 0 40 -10q10 8 15 21t5 29q0 19 -16 32t-39 13q-34 0 -63 -17q-30 -18 -47 -48v-70v0z" />
    <glyph glyph-name="uni0915_uni094D.half_uni0924.pres" horiz-adv-x="627" 
d="M-10 455v45h647v-45h-272v-155q43 30 85 30q58 0 99 -41t41 -99q0 -51 -13 -94q-13 -42 -37 -71l-40 20q40 57 40 145q0 37 -26 64q-27 26 -64 26q-26 0 -49 -9q-22 -9 -36 -26v-245h-50v275h-135q-28 -5 -47 -29q-18 -24 -18 -56q0 -44 28 -85q28 -42 77 -70l-25 -35
q-60 35 -95 86t-35 104q0 30 11 53t29 32h-90v50h300v130h-325v0z" />
    <glyph glyph-name="uni0915_uni094D.half_uni0932.pres" horiz-adv-x="568" 
d="M-10 455v45h588v-45h-259v-100q18 21 43 33t52 12q50 0 85 -41t35 -99q0 -33 -16 -65q-15 -31 -44 -55l-40 30q24 20 37 44q13 23 13 46q0 37 -21 64q-20 26 -49 26q-35 0 -62 -24q-26 -24 -33 -61v-215q14 14 34 22q19 8 41 8q41 0 71 -28q29 -28 29 -67q0 -41 -26 -78
t-69 -57l-30 35q34 12 54 40q21 27 21 60q0 19 -15 32q-14 13 -35 13q-26 0 -53 -20t-47 -55l-40 25q6 14 13 23q6 9 12 12q-32 15 -70 15q-31 0 -53 -19t-22 -46t28 -50q29 -22 72 -30l-10 -42q-61 11 -100 45q-40 35 -40 77q0 48 37 81q36 34 88 34q34 0 60 -15v115
q-22 -22 -49 -33q-27 -12 -56 -12q-56 0 -95 39q-40 38 -40 93t40 94q39 39 95 39q48 0 80 -15l-15 -45q-21 10 -65 10q-35 0 -60 -25t-25 -60q0 -33 25 -57q25 -23 60 -23q36 0 65 19t40 51v200h-279v0z" />
    <glyph glyph-name="uni0915_uni094D.half_uni0935.pres" horiz-adv-x="574" 
d="M-10 455v45h594v-45h-261v-120q21 31 52 48q30 17 63 17q43 0 74 -35t31 -85q0 -49 -29 -95q-30 -46 -81 -75l-30 40q42 24 66 59t24 71q0 29 -16 49q-16 21 -39 21q-35 0 -66 -29q-32 -29 -49 -76v-245h-50v75q-28 -33 -62 -52q-34 -18 -68 -18q-37 0 -64 25
q-26 25 -26 60t21 63t54 37q-35 9 -58 40q-22 31 -22 70q0 50 38 85t92 35q44 0 80 -25l-20 -40q-26 15 -60 15q-33 0 -57 -21q-23 -20 -23 -49q0 -31 23 -53q24 -22 57 -22q27 0 52 12t43 33v185h-283v0zM143 55q38 0 72 23q35 23 58 62v65q-74 -13 -122 -46
q-48 -32 -48 -69q0 -14 12 -25q11 -10 28 -10v0z" />
    <glyph glyph-name="uni0917_uni094D.half_uni0928.pres" horiz-adv-x="394" 
d="M-10 455v45h414v-45h-85v-455h-50v195l-115 -85q-7 -4 -11 -9q-4 -6 -4 -11q0 -2 5 -5q6 -5 10 -10q5 -6 7 -14q3 -7 3 -16q0 -8 -9 -14t-21 -6h-55q-24 4 -39 16q-16 11 -16 24q0 8 28 31l17 14l200 145v200h-125v-210q0 -12 -6 -21t-14 -9q-20 0 -57 36q-38 35 -38 54
q0 10 8 15q7 5 22 5q17 0 26 8q9 7 9 22v100h-104v0z" />
    <glyph glyph-name="uni0919_uni094D.half_uni0915.pres" horiz-adv-x="528" 
d="M-10 455v45h548v-45h-152v-110h-215q-10 0 -18 -6q-7 -6 -7 -14q0 -14 25 -32t45 -18q18 0 45 10l33 13q16 7 22 7q41 0 71 -29q29 -30 29 -71q0 -43 -40 -74q-39 -31 -95 -31v-90q36 25 58 37q24 13 37 13q39 0 67 -23q28 -24 28 -57q0 -29 -27 -56q-28 -28 -73 -44
l-25 40q34 12 54 29q21 16 21 31q0 12 -13 21t-32 9q-13 0 -37 -13q-22 -12 -58 -37v-115h-50v90q-20 -17 -47 -26t-58 -9q-43 0 -74 22t-31 53q0 37 29 64q30 26 71 26q22 0 42 -9q21 -9 38 -26l-30 -35q-12 10 -24 15q-13 5 -26 5q-21 0 -35 -12q-15 -11 -15 -28
q0 -10 16 -18q16 -7 39 -7q32 0 60 12q27 12 45 33v105q-58 0 -115 29q-56 29 -100 81l35 30q30 -42 85 -66q56 -24 125 -24q43 0 74 18q31 17 31 42q0 19 -15 32q-14 13 -35 13q-6 0 -22 -7l-33 -13q-27 -10 -45 -10q-37 0 -79 35q-41 34 -41 65q0 29 22 49q22 21 53 21
h165v60h-346v0zM481 280q-14 0 -25 10q-10 11 -10 25t10 25q11 10 25 10t25 -10q10 -11 10 -25t-10 -25q-11 -10 -25 -10v0z" />
    <glyph glyph-name="uni0919_uni094D.half_uni0916.pres" horiz-adv-x="519" 
d="M-10 455v45h539v-45h-145v-110h-220q-10 0 -18 -6q-7 -6 -7 -14q0 -13 26 -32q25 -18 44 -18q23 0 60 10q15 4 32 10q14 5 18 5q41 0 71 -26q29 -27 29 -64q0 -25 -5 -42q-6 -18 -15 -23v-305h-50v85q-10 -12 -27 -18q-17 -7 -38 -7q-37 0 -64 26q-26 27 -26 64t26 64
q27 26 64 26q18 0 45 -10l-15 -45q-14 5 -30 5q-17 0 -28 -12q-12 -11 -12 -28t12 -28q11 -12 28 -12q21 0 38 9q18 10 27 26v125q-55 -20 -90 -20q-43 0 -70 10q0 -52 -19 -88q-19 -37 -46 -37q-8 0 -14 3q-7 2 -11 7q6 -31 30 -66q25 -35 65 -69l-30 -30q-52 44 -86 99
q-33 56 -44 116l45 10q0 -8 9 -14t21 -6q14 0 25 26q10 27 10 64q-98 56 -130 95l30 25q38 -45 94 -70q57 -25 121 -25q46 0 78 21q32 20 32 49q0 17 -15 28q-14 12 -35 12q-9 0 -50 -15q-27 -10 -55 -10q-41 0 -83 34q-42 33 -42 66q0 29 22 49q22 21 53 21h170v60h-344v0z
M474 280q-14 0 -25 9q-10 9 -10 21q0 14 10 25q11 10 25 10t25 -10q10 -11 10 -25q0 -12 -10 -21q-11 -9 -25 -9v0z" />
    <glyph glyph-name="uni0919_uni094D.half_uni0917.pres" horiz-adv-x="513" 
d="M-10 455v45h533v-45h-147v-110h-220q-12 0 -21 -6t-9 -14q0 -13 28 -29q29 -16 52 -16q41 0 60 5l29 8q24 7 31 7q33 0 57 -29q23 -30 23 -71q0 -25 -12 -47q-12 -21 -33 -33v-275h-50v255q-19 -5 -55 -5q-33 0 -70 10v-165q0 -10 -6 -18q-6 -7 -14 -7q-18 0 -51 26
q-34 26 -34 39q0 6 6 11q6 4 14 4h25q4 0 7 3t3 7v115q-77 28 -125 85l30 30q43 -43 99 -67q56 -23 116 -23q41 0 71 16q29 16 29 39q0 21 -9 35q-9 15 -21 15q-23 0 -60 -10t-65 -10q-41 0 -83 32t-42 63q0 29 23 49q24 21 57 21h170v60h-336v0zM466 280q-14 0 -25 10
q-10 11 -10 25q0 17 10 28q11 12 25 12t25 -12q10 -11 10 -28q0 -14 -10 -25q-11 -10 -25 -10v0z" />
    <glyph glyph-name="uni0919_uni094D.half_uni0918.pres" horiz-adv-x="515" 
d="M-10 455v45h535v-45h-145v-110h-220q-10 0 -18 -6q-7 -6 -7 -14q0 -14 25 -32t45 -18l120 20q33 0 57 -26q23 -27 23 -64q0 -34 -15 -60t-40 -35v-270h-50v80q-18 -21 -42 -33q-23 -12 -48 -12q-39 0 -67 21q-28 20 -28 49q0 22 7 38q7 15 18 17q-24 4 -39 23
q-16 18 -16 42q0 20 13 36q12 16 32 19q-18 3 -49 26q-30 23 -71 64l35 30q40 -48 92 -74q53 -26 108 -26q46 0 78 19t32 46q0 19 -10 32q-11 13 -25 13l-115 -20q-40 0 -80 32t-40 63q0 29 22 49q22 21 53 21h170v60h-340v0zM210 -75q21 0 44 14q24 15 46 41v120
q-17 -10 -55 -10q-25 0 -41 3q-17 2 -24 7q-19 0 -32 -12q-13 -11 -13 -28t12 -28q11 -12 28 -12q17 10 35 10l10 -35q-23 0 -39 -13t-16 -32q0 -10 13 -18q13 -7 32 -7v0zM467 280q-15 0 -26 9q-11 10 -11 23q0 14 11 23q11 10 26 10q16 0 27 -10q11 -9 11 -23
q0 -13 -11 -23q-11 -9 -27 -9v0z" />
    <glyph glyph-name="uni0919_uni094D.half_uni092E.pres" horiz-adv-x="542" 
d="M-10 455v45h562v-45h-161v-110h-215q-10 0 -18 -6q-7 -6 -7 -14q0 -13 20 -29q19 -16 35 -16l130 15q37 0 64 -25q26 -25 26 -60q0 -28 -9 -49q-10 -22 -26 -31v-290h-50v115h-130v-40q0 -4 -4 -7q-5 -3 -11 -3q-13 0 -47 33q-33 34 -33 47q0 6 6 11q6 4 14 4h25v115
q-91 24 -150 95l35 35q40 -48 102 -74q61 -26 133 -26q39 0 67 18q28 17 28 42q0 17 -12 28q-11 12 -28 12l-130 -15q-30 0 -68 34q-37 34 -37 61q0 29 22 49q22 21 53 21h165v60h-351v0zM211 0h130v105q-37 -10 -70 -10q-32 0 -60 5v-100v0zM491 275q-17 0 -28 10
q-12 11 -12 25t12 25q11 10 28 10t28 -10q12 -11 12 -25t-12 -25q-11 -10 -28 -10v0z" />
    <glyph glyph-name="uni0919_uni094D.half_uni0915_uni094D_uni0937.akhn.pres" horiz-adv-x="541" 
d="M-10 455v45h561v-45h-157v-95h-180q-10 0 -18 -3q-7 -3 -7 -7q0 -14 32 -34q32 -21 53 -21q17 0 47 13q31 12 48 12q29 0 49 -18q21 -17 21 -42q0 -21 -9 -38q-10 -18 -26 -27v-350h-50v180q-29 -15 -75 -15q-53 0 -140 30q-29 -8 -47 -26t-18 -39q0 -25 22 -42
q22 -18 53 -18l-4 6q-1 2 -1 4q0 14 13 25q13 10 32 10q23 0 39 -13t16 -32q0 -10 -10 -20q-9 -10 -25 -15l35 -45l-40 -20l-50 60q-54 0 -92 28t-38 67q0 36 20 64q19 28 50 36q-23 11 -36 26q-14 15 -14 29q0 29 25 51q24 23 61 28q-50 26 -91 61l35 35q43 -45 97 -67
q55 -23 118 -23q41 0 71 15q29 14 29 35q0 4 -6 7t-14 3l-100 -15q-32 0 -81 36q-49 35 -49 59q0 25 22 42q22 18 53 18h130v45h-354v0zM242 164q6 -6 9 -13q3 -6 3 -11q0 -24 -14 -43t-36 -27q25 -10 70 -10q53 0 80 15v95q-27 -10 -65 -10q-24 0 -47 4v0zM489 315
q-19 0 -32 12q-13 11 -13 28t13 28q13 12 32 12q17 0 28 -12q12 -11 12 -28t-12 -28q-11 -12 -28 -12v0zM144 85q25 0 42 15q18 14 18 35q0 12 -16 21t-39 9t-39 -12q-16 -11 -16 -28q0 -9 14 -20q13 -11 36 -20v0z" />
    <glyph glyph-name="uni091A_uni094D.half_uni091A.pres" horiz-adv-x="487" 
d="M-10 455v45h507v-45h-85v-455h-50v175q-28 -49 -67 -77t-78 -28q-41 0 -71 23q-29 24 -29 57q0 11 4 21t11 19h-115v50h110q-10 14 -10 35q0 15 8 29q8 13 22 21h-130v50h275v-50h-65q-27 -7 -43 -21q-17 -14 -17 -29q0 -14 9 -25q9 -10 21 -10h75v-50h-70q-14 0 -25 -12
q-10 -11 -10 -28q0 -12 15 -21q14 -9 35 -9q43 0 83 37t62 98v200h-372v0z" />
    <glyph glyph-name="uni091B_uni094D.half_uni0935.pres" horiz-adv-x="507" 
d="M-10 455v45h527v-45h-116v-51q34 -4 57 -29q23 -26 23 -59q0 -40 -37 -91q-38 -51 -78 -66v-324h-50v86q-19 -20 -48 -31t-62 -11q-54 0 -92 30t-38 73q0 47 38 80t92 33q46 0 85 -20l-20 -53q-32 19 -65 19q-31 0 -53 -16t-22 -38q0 -24 22 -42q22 -17 53 -17
q30 0 58 16q29 15 52 43v152l-95 -15q-66 0 -113 35q-47 34 -47 83q0 25 11 45t29 29q-31 10 -51 31q-19 21 -19 45q0 19 5 35t15 28h-61v0zM221 174q67 0 115 29q-28 21 -44 49q-16 29 -16 59q0 34 21 60t54 33v51h-230q-18 -7 -29 -24t-11 -39q0 -17 26 -30q27 -12 64 -12
h45v-49h-35q-27 0 -46 -17q-19 -18 -19 -42q0 -28 31 -48t74 -20v0zM381 228q24 18 37 41t13 47q0 16 -15 28q-14 11 -35 11q-23 0 -39 -13t-16 -31q0 -25 15 -48q15 -22 40 -35v0z" />
    <glyph glyph-name="uni091C_uni094D.half_uni091C.pres" horiz-adv-x="580" 
d="M-10 455v45h600v-45h-85v-455h-50v220l-130 -65q7 -9 11 -18t4 -17q0 -43 -31 -74t-74 -31q-56 0 -108 35t-87 95l40 25q22 -48 64 -77q42 -28 91 -28q23 0 39 16t16 39q0 14 -9 27q-10 14 -26 23l200 100v65h-185q5 -4 7 -14q3 -11 3 -26q0 -39 -26 -67q-27 -28 -64 -28
q-48 0 -95 48q-46 48 -75 127l45 10q22 -61 55 -98t65 -37q19 0 32 21q13 20 13 49q0 17 -6 34q-7 17 -19 31h250v70h-465v0z" />
    <glyph glyph-name="uni091E_uni094D.half_uni091A.pres" horiz-adv-x="541" 
d="M-10 455v45h561v-45h-85v-455h-50v90q-45 -43 -86 -67q-42 -23 -74 -23q-31 0 -53 25t-22 60q0 11 3 20q2 9 7 15l-90 -50l-30 35l215 120l20 -45q-34 -12 -54 -38q-21 -27 -21 -57q0 -14 7 -25q8 -10 18 -10q35 0 77 26t83 73v151h-140q-7 -41 -41 -68t-79 -27
q-41 0 -79 18q-38 19 -66 52l30 35q18 -26 49 -40q30 -15 66 -15q29 0 49 22q21 22 21 53q0 19 -15 32q-14 13 -35 13q-32 0 -75 -25l-25 45q52 30 90 30q42 0 73 -21t37 -54h140v105h-426v0z" />
    <glyph glyph-name="uni091E_uni094D.half_uni091C.pres" horiz-adv-x="541" 
d="M1 455v45h550v-45h-85v-455h-50v210l-100 -55q7 -6 11 -18t4 -27q0 -50 -40 -85q-39 -35 -95 -35q-45 0 -92 36t-83 99l40 20q28 -49 64 -77t71 -28t60 21q25 20 25 49q0 12 -13 27q-14 15 -37 28l185 90v45h-130q-7 -41 -40 -68q-32 -27 -75 -27q-41 0 -79 18
q-38 19 -66 52l30 35q18 -26 49 -40q30 -15 66 -15q27 0 46 21q19 20 19 49q0 21 -18 35q-17 15 -42 15q-8 0 -23 -6q-16 -7 -37 -19l-30 40q20 17 43 26q24 9 47 9q42 0 73 -21t37 -54h130v105h-415v0z" />
    <glyph glyph-name="uni091F_uni094D.half_uni091F.pres" horiz-adv-x="412" 
d="M-10 455v45h432v-45h-90v-135h-200q-21 0 -35 -10q-15 -11 -15 -25q0 -41 42 -65q43 -25 113 -25q41 0 73 10q33 11 52 30l35 -35q-18 -18 -65 -40v-135h-200q-21 0 -35 -15q-15 -14 -15 -35q0 -35 42 -60q43 -25 103 -25q42 0 76 13t54 37l35 -35q-31 -31 -74 -48
t-91 -17q-81 0 -138 40q-57 39 -57 95q0 41 29 71q30 29 71 29h150v75q-19 -5 -45 -5q-93 0 -149 38t-56 102q0 35 29 60q30 25 71 25h150v85h-292v0z" />
    <glyph glyph-name="uni091F_uni094D.half_uni0920.pres" horiz-adv-x="422" 
d="M-10 455v45h442v-45h-90v-140h-205q-23 0 -39 -12q-16 -11 -16 -28q0 -39 44 -62q43 -23 116 -23q41 0 73 10q33 11 52 30l35 -35q-28 -27 -60 -35v-132q21 -10 33 -33q12 -22 12 -50q0 -43 -45 -74q-46 -31 -110 -31q-83 0 -141 41q-59 41 -59 99q0 39 31 67t74 28h155
v70q-19 -5 -50 -5q-95 0 -153 37q-57 37 -57 98q0 37 31 64q31 26 74 26h155v90h-302v0zM309 25h-172q-23 0 -39 -13t-16 -32q0 -37 44 -64q44 -26 106 -26q43 0 74 16t31 39q0 20 -12 38q-12 17 -33 27l17 15v0z" />
    <glyph glyph-name="uni091F_uni094D.half_uni092F.pres" horiz-adv-x="873" 
d="M-10 455v45h893v-45h-85v-455h-50v125q-20 -24 -51 -37q-32 -13 -69 -13q-63 0 -112 48q-50 48 -63 122h95q21 0 35 13q15 13 15 32q0 23 -29 39q-30 16 -71 16q-59 0 -155 -35h-140q-50 0 -85 -32t-35 -78q0 -58 47 -99t113 -41q36 0 70 17t60 48l35 -30
q-34 -40 -77 -63q-43 -22 -88 -22q-87 0 -148 56q-62 55 -62 134q0 66 50 113t120 47h90v95h-303v0zM628 125q33 0 65 16q31 15 55 44v270h-405v-100q110 40 155 40q62 0 106 -31t44 -74q0 -45 -33 -67q-33 -23 -97 -23q12 -34 43 -54q30 -21 67 -21v0z" />
    <glyph glyph-name="uni091F_uni094D.half_uni0935.pres" horiz-adv-x="408" 
d="M-10 455v45h428v-45h-90v-120h-160q-35 0 -60 -19t-25 -46q0 -37 45 -64q46 -26 110 -26q38 0 71 12q32 11 54 33l30 -40q-18 -18 -65 -40v-310h-50v80q-55 -40 -110 -40q-56 0 -95 31q-40 31 -40 74q0 41 40 71q39 29 95 29q41 0 90 -25l-25 -45q-33 20 -65 20
q-35 0 -60 -15q-25 -14 -25 -35q0 -23 25 -39t60 -16q31 0 60 14q29 15 50 41v155q-19 -5 -40 -5q-85 0 -145 41t-60 99q0 48 40 81q39 34 95 34h110v70h-288v0z" />
    <glyph glyph-name="uni0920_uni094D.half_uni0920.pres" horiz-adv-x="438" 
d="M-10 455v45h458v-45h-106v-110l5 5q26 -15 40 -40q15 -26 15 -55q0 -23 -16 -46t-44 -39v-132l10 7q24 -16 37 -42q13 -25 13 -53q0 -46 -53 -78q-52 -32 -127 -32q-79 0 -134 41q-56 41 -56 99q0 41 31 71q31 29 74 29h155v75q-19 -5 -70 -5q-79 0 -134 38
q-56 38 -56 92q0 39 29 67q30 28 71 28h160v80h-302v0zM332 30h-195q-23 0 -39 -15q-16 -14 -16 -35q0 -37 41 -64q41 -26 99 -26q54 0 92 18q38 17 38 42q0 21 -11 39q-11 17 -29 26l20 15v0zM322 325h-190q-21 0 -35 -13q-15 -13 -15 -32q0 -33 41 -57q41 -23 99 -23
q54 0 92 16t38 39q0 17 -12 33q-13 15 -33 22l15 15v0z" />
    <glyph glyph-name="uni0920_uni094D.half_uni092F.pres" horiz-adv-x="905" 
d="M-10 455v45h925v-45h-85v-455h-50v130q-22 -26 -52 -41q-30 -14 -63 -14q-63 0 -112 48q-50 48 -63 122h80q23 0 39 13t16 32q0 25 -23 42q-24 18 -57 18q-85 0 -195 -40h-170q-39 0 -67 -28t-28 -67q0 -68 47 -117q47 -48 113 -48q50 0 85 31t35 74q0 25 -20 55
q-19 30 -55 60l35 35q42 -30 66 -69q24 -40 24 -81q0 -64 -50 -110q-50 -45 -120 -45q-87 0 -148 63q-62 63 -62 152q0 60 42 103q43 42 103 42h115v95h-305v0zM665 125q27 0 57 18q30 19 58 52v260h-435v-100q124 45 200 45q54 0 92 -32t38 -78q0 -45 -30 -67
q-31 -23 -90 -23q12 -34 43 -54q30 -21 67 -21v0z" />
    <glyph glyph-name="uni0921_uni094D.half_uni0921.pres" horiz-adv-x="474" 
d="M-10 455v45h494v-45h-78v-88h-205q-12 0 -21 -6q-9 -5 -9 -13q0 -10 26 -26q27 -16 44 -16q19 0 58 8q38 8 57 8q31 0 53 -20t22 -49q0 -17 -6 -33q-7 -17 -19 -31v-121h-205q-12 0 -21 -6q-9 -5 -9 -13q0 -12 26 -29q27 -18 44 -18q19 0 58 8q38 8 57 8q31 0 53 -19
q22 -18 22 -45q0 -47 -42 -81q-43 -33 -103 -33q-87 0 -160 33q-73 32 -115 90l30 29q35 -48 100 -75q64 -27 145 -27q39 0 67 19q28 18 28 45q0 8 -7 13q-8 6 -18 6q-20 0 -57 -9q-38 -10 -58 -10q-35 0 -77 37q-43 37 -43 67q0 25 23 42q24 18 57 18h155v35
q-31 -14 -70 -14q-87 0 -160 33q-73 32 -115 90l30 29q35 -48 100 -75q64 -27 145 -27q39 0 67 19q28 18 28 45q0 8 -7 13q-8 6 -18 6q-19 0 -58 -7q-38 -7 -57 -7q-35 0 -77 35q-43 35 -43 64q0 25 23 42q24 18 57 18h155v38h-366v0z" />
    <glyph glyph-name="uni0921_uni094D.half_uni0922.pres" horiz-adv-x="470" 
d="M-10 455v45h490v-45h-74v-110h-205q-10 0 -18 -6q-7 -6 -7 -14q0 -12 24 -31q25 -19 41 -19q20 0 58 10q37 10 57 10q31 0 53 -21q22 -20 22 -49q0 -23 -13 -46t-37 -39v-110h-185q-23 0 -39 -12q-16 -11 -16 -28q0 -39 41 -70q41 -30 94 -30q-9 7 -15 19q-5 11 -5 26
q0 33 28 57q28 23 67 23q41 0 71 -25q29 -25 29 -60q0 -41 -42 -65q-43 -25 -113 -25q-80 0 -143 47q-62 47 -62 108q0 35 31 60t74 25h135v33q-22 -8 -45 -8q-86 0 -159 34q-73 35 -116 96l30 30q36 -52 101 -81t144 -29q39 0 67 21q28 20 28 49q0 8 -7 14q-8 6 -18 6
q-20 0 -58 -10q-37 -10 -57 -10q-33 0 -74 36q-41 35 -41 64t22 49q22 21 53 21h155v60h-366v0zM351 -105q21 0 35 10q15 11 15 25q0 17 -15 28q-14 12 -35 12q-19 0 -32 -12q-13 -11 -13 -28q0 -14 13 -25q13 -10 32 -10v0z" />
    <glyph glyph-name="uni0921_uni094D.half_uni092F.pres" horiz-adv-x="872" 
d="M-10 455v45h892v-45h-85v-455h-50v130q-24 -24 -56 -37q-33 -13 -69 -13q-59 0 -106 47q-46 46 -59 118q58 0 99 16t41 39q0 25 -31 42q-31 18 -74 18q-24 0 -68 -18q-43 -17 -67 -17h-185q-12 0 -21 -6t-9 -14q0 -23 28 -52q29 -28 52 -28q17 0 47 13q31 12 48 12
q31 0 53 -25t22 -60q0 -66 -45 -113q-46 -47 -110 -47q-58 0 -118 47t-107 128l40 25q40 -70 90 -110q49 -40 95 -40q43 0 74 32t31 78q0 14 -7 25q-8 10 -18 10q-17 0 -47 -12q-31 -13 -48 -13q-38 0 -84 46t-46 84q0 29 23 49q24 21 57 21h135v80h-317v0zM622 130
q35 0 68 16q33 15 57 44v265h-390v-80q24 0 67 17q44 18 68 18q64 0 110 -32q45 -32 45 -78q0 -39 -37 -67q-36 -28 -88 -28q12 -34 40 -54q27 -21 60 -21v0z" />
    <glyph glyph-name="uni0922_uni094D.half_uni0922.pres" horiz-adv-x="438" 
d="M-10 455v45h458v-45h-83v-110h-200q-33 0 -57 -18q-23 -17 -23 -42q0 -41 44 -73t101 -32q-12 10 -18 20q-7 11 -7 20q0 35 28 60t67 25t67 -25t28 -60q0 -24 -8 -41q-9 -17 -22 -19v-115h-210q-29 0 -49 -16q-21 -16 -21 -39q0 -39 46 -70q45 -30 104 -30q-9 7 -15 19
q-5 11 -5 26q0 33 28 57q28 23 67 23q41 0 71 -26q29 -27 29 -64q0 -39 -37 -62t-98 -23q-94 0 -167 46q-73 45 -73 104q0 43 35 74t85 31h160v40h-80q-78 0 -139 47t-61 108q0 43 38 74t92 31h150v60h-325v0zM310 -115q21 0 35 12q15 11 15 28t-15 28q-14 12 -35 12
q-19 0 -32 -10q-13 -11 -13 -25q0 -19 13 -32t32 -13v0zM300 190q19 0 32 9t13 21q0 14 -13 25q-13 10 -32 10t-32 -10q-13 -11 -13 -25q0 -12 13 -21t32 -9v0z" />
    <glyph glyph-name="uni0922_uni094D.half_uni092F.pres" horiz-adv-x="894" 
d="M-10 455v45h914v-45h-85v-455h-50v135q-24 -29 -57 -44q-33 -16 -68 -16q-64 0 -111 49q-48 49 -54 121h70q27 0 46 15q19 14 19 35q0 23 -29 39q-30 16 -71 16q-63 0 -145 -30v-10h-210q-31 0 -53 -23q-22 -24 -22 -57q0 -70 45 -120q46 -50 110 -50q-17 20 -26 41
q-9 20 -9 39q0 39 28 67t67 28q41 0 71 -29q29 -30 29 -71q0 -52 -42 -88q-43 -37 -103 -37q-91 0 -156 64q-64 65 -64 156q0 54 37 92q36 38 88 38h160v95h-329v0zM289 60q26 5 43 26t17 49q0 21 -15 35q-14 15 -35 15q-19 0 -32 -15q-13 -14 -13 -35q0 -24 9 -44
q10 -19 26 -31v0zM644 125q34 0 67 20t58 55v255h-400v-85q82 30 145 30q62 0 106 -31t44 -74q0 -39 -37 -67q-36 -28 -88 -28q6 -33 35 -54q30 -21 70 -21v0z" />
    <glyph glyph-name="uni0926_uni094D.half_uni0917.pres" horiz-adv-x="409" 
d="M-10 455v45h429v-45h-73v-130h-175q-37 0 -64 -25q-26 -25 -26 -60q0 -60 54 -103q54 -42 131 -42q-7 7 -11 16t-4 19q0 23 18 39q17 16 42 16t42 -19q18 -19 18 -46q0 -21 -11 -39q-11 -17 -29 -26l55 -135l-50 -15l-50 135l-75 10l-15 -125q-3 -9 -8 -14q-6 -6 -12 -6
q-13 0 -50 10q-22 6 -36 14q-14 9 -14 16t4 12q4 6 11 8q16 6 43 5q17 0 17 5l20 85q-63 23 -102 72q-38 50 -38 108q0 56 41 95q41 40 99 40h125v80h-306v0z" />
    <glyph glyph-name="uni0926_uni094D.half_uni0918.pres" horiz-adv-x="507" 
d="M-10 455v45h527v-45h-74v-130h-175q-37 0 -64 -25q-26 -25 -26 -60q0 -60 54 -103q54 -42 131 -42q-7 7 -11 17q-4 9 -4 19q0 24 18 42q17 17 42 17t42 -21q18 -20 18 -49q0 -22 -11 -41q-10 -18 -29 -29l65 -140l-45 -20l-35 75q-34 -34 -71 -52q-38 -18 -74 -18
q-49 0 -86 27t-44 68q-48 0 -81 29q-34 30 -34 71q0 40 32 70q31 30 78 35q-5 15 -5 45q0 56 41 95q41 40 99 40h125v80h-403v0zM153 155q-34 -5 -57 -23q-23 -19 -23 -42q0 -25 21 -42q20 -18 49 -18q8 22 26 39q19 17 44 26q-39 23 -60 60v0zM268 -55q31 0 65 14
q33 14 65 41q-3 10 -12 26q-7 13 -8 19q-56 0 -125 25q-32 -11 -51 -29t-19 -36q0 -25 25 -42q25 -18 60 -18v0z" />
    <glyph glyph-name="uni0926_uni094D.half_uni0926.pres" horiz-adv-x="419" 
d="M-10 455v45h439v-45h-85v-130h-200q-27 0 -46 -10q-19 -11 -19 -25q0 -27 29 -46q30 -19 71 -19q33 0 60 10l15 -50q-59 -10 -97 -34t-38 -51q0 -23 23 -39q24 -16 57 -16q23 0 47 9q23 9 43 26q-5 6 -7 14q-3 7 -3 16q0 25 19 42q19 18 46 18q19 0 32 -13t13 -32
q0 -20 -12 -40t-33 -35l60 -130l-50 -20l-50 125q-52 -30 -105 -30q-54 0 -92 31t-38 74q0 28 16 52q17 23 44 33q-44 12 -72 41t-28 64t34 60q33 25 81 25h150v80h-304v0z" />
    <glyph glyph-name="uni0926_uni094D.half_uni0927.pres" horiz-adv-x="556" 
d="M-10 455v45h576v-45h-73v-130h-175q-37 0 -64 -25q-26 -25 -26 -60q0 -60 54 -103q54 -42 131 -42q-5 7 -7 17q-3 10 -3 23q0 21 16 35q16 15 39 15q25 0 42 -19q18 -19 18 -46q0 -23 -11 -42t-29 -28l65 -140l-45 -20l-50 110q-26 -31 -64 -48t-81 -17q-42 0 -74 30
q-33 29 -41 75q-68 0 -117 37q-48 36 -48 88q0 33 23 57q24 23 57 23q17 0 34 -9t31 -26l-30 -30q-9 7 -18 11t-17 4q-12 0 -21 -9t-9 -21q0 -35 35 -60t85 -25q5 14 14 24t21 16q-18 12 -34 51t-16 69q0 56 41 95q41 40 99 40h125v80h-453v0zM303 -15q39 0 72 16t53 44
q-30 -5 -72 6q-41 12 -88 39q-16 -6 -25 -18q-10 -12 -10 -27q0 -25 21 -42q20 -18 49 -18v0z" />
    <glyph glyph-name="uni0926_uni094D.half_uni0928.pres" horiz-adv-x="412" 
d="M-10 455v45h432v-45h-73v-130h-175q-37 0 -64 -25q-26 -25 -26 -60q0 -60 54 -103q54 -42 131 -42q-7 12 -11 22q-4 9 -4 14q0 25 16 39q17 15 44 15q25 0 42 -19q18 -19 18 -46q0 -25 -11 -44t-29 -26l65 -140l-45 -20l-70 155l-125 -50q-7 -3 -11 -9q-4 -5 -4 -11
q0 -3 8 -12q7 -7 12 -13q2 -3 4 -7q1 -4 1 -8t-6 -7t-14 -3q-28 0 -72 19q-43 19 -43 31q0 27 133 75l27 10q-69 12 -115 63q-45 51 -45 117q0 56 40 95q39 40 95 40h130v80h-309v0z" />
    <glyph glyph-name="uni0926_uni094D.half_uni092C.pres" horiz-adv-x="412" 
d="M-10 455v45h432v-45h-73v-130h-175q-37 0 -64 -25q-26 -25 -26 -60q0 -60 54 -103q54 -42 131 -42q-7 3 -11 14t-4 26q0 21 18 35q17 15 42 15t42 -19q18 -19 18 -46q0 -25 -11 -44t-29 -26l65 -140l-45 -20l-55 120q-25 -44 -63 -70q-37 -25 -77 -25q-37 0 -64 21
q-26 20 -26 49q0 27 22 52t58 38q-53 25 -84 69q-31 45 -31 96q0 56 41 95q41 40 99 40h125v80h-309v0zM159 -35q15 0 26 1q10 1 14 4l-50 55q-14 -8 -22 -19q-8 -10 -8 -21q0 -8 12 -14q11 -6 28 -6v0zM224 -5q31 22 45 60l-47 -3q-34 -2 -43 -7l45 -50v0z" />
    <glyph glyph-name="uni0926_uni094D.half_uni092D.pres" horiz-adv-x="443" 
d="M-10 455v45h463v-45h-72v-130h-175q-39 0 -67 -23q-28 -24 -28 -57q0 -62 54 -106t131 -44q-5 2 -7 12q-3 9 -3 23q0 23 18 39q17 16 42 16t42 -22q18 -22 18 -53q0 -16 -12 -30q-12 -15 -33 -25l70 -145l-45 -20l-60 125l-110 -100q7 -9 11 -18t4 -17t-18 -14
q-17 -6 -42 -6q-17 0 -28 10q-12 11 -12 25l30 30l-50 60q-5 7 -13 11t-17 4q-8 0 -14 -6t-6 -14q0 -4 4 -10t11 -15l-30 -35q-17 17 -26 34t-9 31q0 27 21 46q20 19 49 19q14 0 29 -8q14 -8 26 -22l55 -75l120 100q-104 0 -177 57t-73 138q0 56 42 95q43 40 103 40h125v80
h-341v0z" />
    <glyph glyph-name="uni0926_uni094D.half_uni092E.pres" horiz-adv-x="536" 
d="M-10 455v45h556v-45h-85v-455h-50v90h-145v-40q0 -10 -7 -18q-8 -7 -18 -7q-14 0 -50 38q-35 37 -35 52q0 10 7 18q8 7 18 7h35v65h-105q-37 0 -64 25q-26 25 -26 60t26 60q27 25 64 25h85v80h-206v0zM266 140h145v315h-165v-130h-135q-17 0 -28 -10q-12 -11 -12 -25
t12 -25q11 -10 28 -10h155v-115v0z" />
    <glyph glyph-name="uni0926_uni094D.half_uni092F.pres" horiz-adv-x="538" 
d="M-10 455v45h558v-45h-85v-455h-50v135q-46 -46 -98 -70q-52 -25 -102 -25q-58 0 -99 34q-41 33 -41 81q0 22 8 40q8 17 22 25q-34 12 -54 36q-21 23 -21 49q0 37 29 64q30 26 71 26h100v60h-238v0zM213 90q51 0 104 29q52 29 96 81v255h-135v-110h-150q-21 0 -35 -12
q-15 -11 -15 -28q0 -16 20 -30q20 -15 50 -20q9 5 32 8q21 2 58 2l30 -45h-70q-31 0 -53 -19t-22 -46t26 -46q27 -19 64 -19v0z" />
    <glyph glyph-name="uni0926_uni094D.half_uni0935.pres" horiz-adv-x="408" 
d="M-10 455v45h428v-45h-72v-130h-175q-37 0 -64 -25q-26 -25 -26 -60q0 -60 54 -103q54 -42 131 -42q-7 9 -11 19t-4 21q0 21 18 35q17 15 42 15t42 -19q18 -19 18 -46q0 -20 -12 -38q-12 -17 -33 -27l70 -145l-45 -20l-50 105q-24 -42 -58 -66q-33 -24 -67 -24
q-33 0 -57 22q-23 22 -23 53q0 26 21 49q20 24 54 36q-63 23 -102 71q-38 48 -38 104t41 95q41 40 99 40h125v80h-306v0zM176 -45q34 0 61 25q28 25 39 65q-54 0 -92 -19t-38 -46q0 -10 9 -18q9 -7 21 -7v0z" />
    <glyph glyph-name="uni0928_uni094D.half_uni0928.pres" horiz-adv-x="496" 
d="M-10 455v45h516v-45h-85v-455h-50v225l-155 -70q-9 -3 -15 -9q-5 -5 -5 -11q0 -4 3 -9q2 -5 7 -11q7 -9 11 -19t4 -21q0 -12 -6 -21t-14 -9q-31 0 -78 28t-47 47q0 10 8 19q8 10 22 16l185 85l-55 50q-20 17 -46 26t-54 9q-4 0 -7 -9t-3 -21q0 -21 -9 -35q-9 -15 -21 -15
q-20 0 -50 43q-30 44 -30 72q0 15 85 15h15q46 0 87 -14t73 -41q33 -27 60 -60l35 15v180h-381v0z" />
    <glyph glyph-name="uni092A_uni094D.half_uni0924.pres" horiz-adv-x="448" 
d="M-10 455v45h468v-45h-85v-455h-50v225h-150q-27 0 -46 -18q-19 -17 -19 -42q0 -32 21 -68q21 -35 59 -67l-30 -30q-48 40 -74 83t-26 82q0 29 15 53q15 23 40 32q-25 9 -40 28t-15 42v135h-68v0zM158 275h165v180h-215v-135q0 -19 15 -32q14 -13 35 -13v0z" />
    <glyph glyph-name="uni092A_uni094D.half_uni0932.pres" horiz-adv-x="439" 
d="M-10 455v45h459v-45h-106v-376q37 0 64 -32q26 -31 26 -76q0 -54 -31 -92t-74 -38l-20 37q31 0 53 27t22 66q0 27 -15 45q-14 19 -35 19q-27 0 -46 -25q-19 -24 -19 -59l-50 20l10 30q-17 14 -32 22q-16 7 -28 7q-27 0 -46 -20t-19 -49q0 -34 26 -59q27 -24 64 -24
l-15 -37q-52 0 -88 35q-37 35 -37 85q0 49 32 84t78 35q20 0 41 -12t39 -33q4 11 17 22q13 10 33 17v101q-23 -19 -53 -30q-29 -10 -62 -10q-52 0 -88 34q-37 33 -37 81v205h-63v0zM178 185q31 0 61 13t54 37v220h-190v-205q0 -27 22 -46t53 -19v0z" />
    <glyph glyph-name="uni092B_uni094D.half_uni0932.pres" horiz-adv-x="582" 
d="M-10 455v45h602v-45h-270v-140q20 24 47 37q28 13 58 13q52 0 88 -41q37 -41 37 -99q0 -27 -12 -56q-11 -28 -33 -54l-45 25q19 19 30 41q10 22 10 44q0 37 -22 64q-22 26 -53 26q-26 0 -54 -16q-27 -15 -51 -44v-179q14 11 28 16q14 6 27 6q41 0 71 -32q29 -31 29 -76
t-27 -84t-73 -60l-25 38q34 12 54 41q21 30 21 65q0 24 -15 41q-14 17 -35 17q-31 0 -58 -24q-28 -24 -42 -64l-40 25l20 33q-21 15 -41 22q-21 8 -39 8q-23 0 -39 -20t-16 -48q0 -37 27 -65q27 -29 68 -36l-5 -40q-61 11 -100 51q-40 40 -40 90q0 49 31 83q31 35 74 35
q24 0 49 -10q25 -11 46 -30v142q-19 -19 -45 -30q-26 -10 -55 -10q-52 0 -88 35q-37 35 -37 85v175h-57v0zM172 210q29 0 55 15q27 14 45 40v190h-175v-175q0 -29 22 -49q22 -21 53 -21v0z" />
    <glyph glyph-name="uni0932_uni094D.half_uni0932.pres" horiz-adv-x="547" 
d="M-10 455v45h567v-45h-149v-83q40 -12 65 -44q25 -31 25 -70q0 -37 -11 -70q-11 -34 -31 -60q20 -24 31 -55t11 -65q0 -43 -29 -87t-81 -79l-30 43q42 28 66 61t24 62q0 44 -22 76q-22 31 -53 31t-59 -36q-28 -35 -41 -91l-45 15q7 32 25 68q-12 20 -34 32q-21 12 -46 12
q-31 0 -53 -24t-22 -58q0 -47 29 -87q28 -41 76 -61l-20 -43q-61 26 -98 78t-37 113q0 29 14 57q13 27 38 47q-25 24 -38 56q-14 31 -14 65q0 49 37 83q36 35 88 35q34 0 63 -15q29 -14 47 -40q12 19 32 32q19 14 43 19v83h-368v0zM144 157l18 5q8 3 11 3q34 0 63 -15
q29 -14 47 -40q17 26 42 40q25 15 53 15q9 0 34 -11q36 46 36 104q0 28 -22 48t-53 20t-59 -35t-41 -89l-45 14q6 24 25 64q-13 21 -34 34q-22 12 -46 12q-31 0 -53 -21t-22 -51q0 -29 12 -55t34 -42v0z" />
    <glyph glyph-name="uni0936_uni094D.half_uni0930_uni094D.blwf.vatu_uni091A.pres" horiz-adv-x="468" 
d="M318 455v45h160v-45h-85v-455h-50v115q-23 -33 -55 -51q-32 -19 -65 -19q-31 0 -53 25t-22 60q0 13 1 20q1 8 4 10l-80 -45l-25 40l225 120l-95 35l-140 -75l-25 35l125 65q-27 13 -44 36q-16 23 -16 49q0 41 29 71q30 29 71 29t71 -29q29 -30 29 -71q0 -25 -15 -47
q-14 -23 -40 -38l120 -45v165h-25v0zM223 95q28 0 60 23q32 22 60 62v75l-70 -30q-34 -12 -54 -38q-21 -27 -21 -57q0 -14 7 -25q8 -10 18 -10v0zM178 365q23 8 36 23q14 15 14 32q0 21 -15 35q-14 15 -35 15t-35 -15q-15 -14 -15 -35q0 -18 14 -34q14 -15 36 -21v0z" />
    <glyph glyph-name="uni0936_uni094D.half_uni0930_uni094D.blwf.vatu_uni0928.pres" horiz-adv-x="470" 
d="M320 455v45h160v-45h-85v-455h-50v210l-120 -85q-5 -3 -7 -7q-3 -4 -3 -8q0 -5 3 -10q2 -5 7 -10t7 -10q3 -5 3 -10q0 -12 -9 -21t-21 -9q-27 0 -55 5q-20 3 -32 16q-13 13 -13 29q0 8 5 15q6 8 15 15l175 115l-115 55l-150 -95l-25 40l135 85q-27 13 -44 40
q-16 27 -16 60q0 39 29 67q30 28 71 28t71 -28q29 -28 29 -67q0 -24 -16 -50q-15 -26 -44 -50l120 -60v195h-25v0zM185 345q24 16 37 36t13 39t-15 32q-14 13 -35 13t-35 -13q-15 -13 -15 -32q0 -24 14 -44q13 -20 36 -31v0z" />
    <glyph glyph-name="uni0936_uni094D.half_uni0930_uni094D.blwf.vatu_uni0932.pres" horiz-adv-x="686" 
d="M321 455v45h375v-45h-85v-455h-50v230q-43 0 -80 -30t-55 -80l-50 20l20 35q-13 23 -35 37q-21 13 -45 13q-31 0 -53 -15q-22 -14 -22 -35q0 -39 37 -76t98 -59l-20 -40q-74 27 -120 75q-45 48 -45 100q0 32 20 56t50 29l-85 50l-135 -90l-30 40l120 75q-25 12 -40 33
q-15 22 -15 47q0 39 28 67t67 28t67 -28t28 -67q0 -23 -12 -44t-33 -36l100 -60q32 -3 59 -19q28 -15 46 -41q24 29 59 44q36 16 76 16v180h-240v0zM171 360q21 12 33 27t12 28q0 19 -13 32t-32 13t-32 -13t-13 -32q0 -16 12 -30q12 -15 33 -25v0z" />
    <glyph glyph-name="uni0936_uni094D.half_uni0930_uni094D.blwf.vatu_uni0935.pres" horiz-adv-x="469" 
d="M309 455v45h170v-45h-85v-455h-50v105q-17 -17 -45 -26q-29 -9 -65 -9q-56 0 -95 28q-40 28 -40 67q0 41 40 71q39 29 95 29q37 0 80 -25l-15 -45q-43 20 -65 20q-35 0 -60 -15q-25 -14 -25 -35q0 -19 25 -32t60 -13q32 0 61 13t49 37v95l-155 60l-155 -85l-25 40l130 70
q-27 13 -44 35q-16 21 -16 45q0 35 29 60q30 25 71 25q39 0 67 -26q28 -27 28 -64q0 -15 -12 -34q-12 -18 -33 -36l115 -45v145h-35v0zM184 375q19 11 29 24q11 14 11 26q0 17 -15 28q-14 12 -35 12q-19 0 -32 -10q-13 -11 -13 -25q0 -16 15 -31t40 -24v0z" />
    <glyph glyph-name="uni0937_uni094D.half_uni091F.pres" horiz-adv-x="417" 
d="M-10 455v45h437v-45h-74v-230h-165q-31 0 -53 -21q-22 -20 -22 -49q0 -48 38 -81q38 -34 92 -34q37 0 67 12t48 33l30 -35q-29 -29 -66 -44q-38 -16 -79 -16q-75 0 -127 48q-53 49 -53 117q0 31 16 55q17 25 44 35q-30 5 -50 29t-20 56v125h-63v0zM178 275h90l-165 150
v-100q0 -21 22 -35q22 -15 53 -15v0zM303 300v155h-165l165 -155v0z" />
    <glyph glyph-name="uni0937_uni094D.half_uni0920.pres" horiz-adv-x="451" 
d="M-10 455v45h471v-45h-105v-220h-175q-31 0 -53 -22t-22 -53q0 -46 41 -78t99 -32q50 0 85 31t35 74q0 17 -6 34q-7 17 -19 31l35 30q19 -19 30 -44q10 -25 10 -51q0 -64 -50 -110q-50 -45 -120 -45q-79 0 -134 47q-56 47 -56 113q0 34 15 61t40 39q-26 18 -40 41
q-15 22 -15 44v110h-66v0zM181 285h95l-170 150v-90q0 -25 22 -42q22 -18 53 -18v0zM306 315v140h-160l160 -140v0z" />
    <glyph glyph-name="uni0939_uni094D.half_uni0923.pres" horiz-adv-x="546" 
d="M345 220h-80v-85q0 -17 12 -28q12 -12 28 -12t28 12q12 11 12 28v85v0zM-10 455v45h566v-45h-226v-120h-200q-12 0 -21 -3t-9 -7q0 -25 15 -45q15 -21 40 -30q43 20 80 20h175q39 0 67 -28t28 -67v-175h-50v175q0 19 -13 32t-32 13h-15v-85q0 -37 -26 -64
q-27 -26 -64 -26t-64 26q-26 27 -26 64v85q-48 0 -81 -32q-34 -32 -34 -78q0 -66 63 -113t152 -47l-10 -45q-105 0 -180 60t-75 145q0 37 16 68t44 47q-29 24 -44 49q-16 25 -16 46q0 27 23 46q24 19 57 19h150v70h-290v0z" />
    <glyph glyph-name="uni0939_uni094D.half_uni0928.pres" horiz-adv-x="470" 
d="M-10 455v45h490v-45h-149v-120h-205q-10 0 -18 -4q-7 -5 -7 -11q0 -23 15 -42t40 -28q32 15 120 15q64 0 110 -25q45 -25 45 -60v-185h-50v105h-40q-10 0 -18 -6q-7 -6 -7 -14v-20q0 -14 -9 -25q-9 -10 -21 -10q-13 0 -47 40q-33 39 -33 55q0 12 10 21q11 9 25 9h140v30
q0 14 -32 25q-32 10 -78 10h-40q-54 0 -92 -31t-38 -74q0 -66 62 -113q61 -47 148 -47l-5 -45q-105 0 -180 60t-75 145q0 37 16 68t44 47q-29 24 -44 49q-16 25 -16 46q0 27 21 46q20 19 49 19h160v70h-291v0z" />
    <glyph glyph-name="uni0939_uni094D.half_uni092E.pres" horiz-adv-x="557" 
d="M-10 455v45h577v-45h-85v-455h-50v120h-110v-30q0 -6 -4 -11q-5 -4 -11 -4q-7 0 -20 6q-13 7 -30 19q-19 13 -29 25q-11 12 -11 20q0 10 9 18q9 7 21 7h25v35q0 10 -19 18q-19 7 -46 7q-46 0 -78 -25t-32 -60q0 -62 69 -106t166 -44l-10 -40q-114 0 -194 56
q-81 55 -81 134q0 30 16 57t44 43q-27 13 -44 35q-16 21 -16 45q0 29 25 49q25 21 60 21h140v60h-282v0zM322 170h110v285h-110v-110h-190q-14 0 -25 -6q-10 -6 -10 -14q0 -16 18 -33q18 -16 47 -27l20 8q19 7 25 7q48 0 81 -22q34 -22 34 -53v-35v0z" />
    <glyph glyph-name="uni0939_uni094D.half_uni092F.pres" horiz-adv-x="599" 
d="M-10 455v45h619v-45h-85v-455h-50v90q-22 -26 -49 -41q-28 -14 -56 -14q-52 0 -91 34q-40 34 -49 86q31 0 53 9t22 21q0 17 -21 28q-20 12 -49 12q-58 0 -99 -26q-41 -27 -41 -64q0 -47 68 -89q68 -43 172 -61l-10 -40q-121 21 -201 75q-79 54 -79 115q0 31 17 59
q18 29 48 46q-29 11 -47 33t-18 47q0 27 23 46q24 19 57 19h165v70h-299v0zM369 85q26 0 54 19q28 18 51 51v300h-135v-120h-215q-12 0 -21 -4q-9 -5 -9 -11q0 -17 16 -34q17 -16 44 -26q41 15 80 15q50 0 85 -26q35 -27 35 -64q0 -21 -18 -38q-19 -17 -47 -22q7 -18 29 -29
t51 -11v0z" />
    <glyph glyph-name="uni0939_uni094D.half_uni0932.pres" horiz-adv-x="492" 
d="M-10 455v45h512v-45h-173v-120h-200q-12 0 -21 -4q-9 -5 -9 -11q0 -21 18 -40t47 -30q43 20 110 20q75 0 127 -29q53 -30 53 -71v-170h-50v135q-27 0 -46 -23q-19 -24 -19 -57l-45 10l10 35q-5 16 -16 25q-11 10 -24 10q-17 0 -28 -13q-12 -13 -12 -32q0 -22 14 -40
q14 -17 36 -20l-10 -40q-39 6 -64 35q-26 28 -26 65q0 39 26 67q27 28 64 28q19 0 37 -12q19 -12 33 -33q4 15 23 25q20 10 47 10q0 19 -44 32q-43 13 -106 13q-68 0 -109 -33t-41 -87q0 -62 53 -106q52 -44 127 -44l-10 -45q-91 0 -156 57q-64 57 -64 138q0 40 16 72t44 48
q-31 21 -48 48q-17 26 -17 52q0 27 22 46t53 19h155v70h-289v0z" />
    <glyph glyph-name="uni0939_uni094D.half_uni0935.pres" horiz-adv-x="433" 
d="M-10 455v45h453v-45h-116v-120h-200q-10 0 -18 -4q-7 -5 -7 -11q0 -23 15 -42t40 -28q43 20 75 20q66 0 113 -31t47 -74v-165h-50v60q-10 -14 -30 -22t-45 -8q-37 0 -64 22q-26 22 -26 53q0 37 26 64q27 26 64 26q6 0 16 -5t24 -15l-15 -40q-6 5 -12 7q-7 3 -13 3
q-17 0 -28 -12q-12 -11 -12 -28q0 -10 12 -18q11 -7 28 -7q25 0 46 9q20 10 29 26v50q0 23 -32 39t-78 16q-54 0 -92 -32t-38 -78q0 -66 59 -113q58 -47 141 -47l-10 -40q-99 0 -170 59q-70 58 -70 141q0 39 15 69q14 31 40 46q-26 22 -41 48q-14 26 -14 52q0 25 21 42
q20 18 49 18h155v70h-287v0z" />
    <glyph glyph-name="uni0938_uni094D.half_uni0924_uni0930_uni094D.blwf.vatu.pres" horiz-adv-x="683" 
d="M-10 455v45h703v-45h-85v-455h-50v215l-175 -125l-30 45l205 140q-34 40 -71 63q-36 22 -69 22q-44 0 -105 -35l-20 40q78 45 125 45q34 0 70 -18t70 -52v115h-330v-135q0 -31 -5 -45h185l45 -50h-195l-40 45q-7 -20 -21 -33q-14 -12 -29 -12q-13 0 -20 1q-8 1 -10 4
q37 -79 130 -190l-45 -30l-210 315l35 30q21 -37 43 -59q21 -21 37 -21q21 0 35 13q15 13 15 32v135h-188v0z" />
    <glyph glyph-name="uni091C_uni094D.half_uni091C_uni094D.half.pres" horiz-adv-x="380" 
d="M235 15q-56 0 -108 35t-87 95l40 25q22 -48 64 -77q42 -28 91 -28q23 0 39 16t16 39q0 14 -9 27q-10 14 -26 23l210 105v-50l-140 -70q7 -9 11 -18t4 -17q0 -43 -31 -74t-74 -31v0zM20 375l45 10q22 -61 55 -98t65 -37q19 0 32 13t13 32q0 26 -8 49q-7 24 -22 41h265v-50
h-195q5 -4 7 -14q3 -11 3 -26q0 -39 -26 -67q-27 -28 -64 -28q-48 0 -95 48q-46 48 -75 127v0zM-10 455v45h400v-45h-400v0z" />
    <glyph glyph-name="uni0926_uni0943.blws" horiz-adv-x="409" 
d="M-10 455v45h429v-45h-73v-130h-175q-37 0 -64 -25q-26 -25 -26 -60q0 -60 54 -103q54 -42 131 -42q-7 13 -11 23t-4 16q0 21 18 36q17 15 42 15t42 -19q18 -19 18 -46q0 -20 -11 -38q-10 -19 -29 -32l45 -105h-95q-27 0 -46 -19t-19 -46q0 -25 22 -42q22 -18 53 -18
q29 0 53 6q25 7 42 19l15 -50q-17 -12 -46 -19q-28 -6 -64 -6q-52 0 -88 32q-37 32 -37 78q0 48 32 81q32 34 78 34h25l-20 50q-104 0 -177 57t-73 138q0 56 41 95q41 40 99 40h125v80h-306v0z" />
    <glyph glyph-name="uni0930_uni0941.psts" horiz-adv-x="481" 
d="M-10 455v45h501v-45h-259v-105q24 24 53 37q28 13 57 13q43 0 74 -37q31 -36 31 -88q0 -46 -18 -86q-19 -41 -52 -69l-35 35q26 15 40 47q15 32 15 73q0 31 -16 53t-39 22q-25 0 -48 -12q-24 -12 -42 -33l-20 25q0 -35 -19 -60t-46 -25q-17 0 -23 1q-9 1 -12 4l160 -215
l-40 -30l-240 335l40 25q19 -32 42 -51q22 -19 43 -19q19 0 32 12q13 11 13 28v120h-192v0z" />
    <glyph glyph-name="uni0930_uni0942.psts" horiz-adv-x="571" 
d="M-10 455v45h591v-45h-348v-110h95q8 10 28 15q19 5 47 5q54 0 92 -45q38 -46 38 -110q0 -47 -18 -93q-18 -47 -52 -87l-40 30q29 29 44 68q16 39 16 82t-23 74q-24 31 -57 31q-25 0 -42 -19q-18 -19 -18 -46q0 -20 10 -39q11 -20 30 -36l-30 -30q-28 20 -44 46
q-16 27 -16 54q0 33 10 50h-70q-5 -26 -27 -43q-23 -17 -53 -17q-8 0 -13 1q-5 2 -7 4l155 -210l-40 -30l-235 320l40 35q15 -32 37 -51q21 -19 43 -19q21 0 35 12q15 11 15 28v130h-193v0z" />
    <glyph glyph-name="uni0939_uni0943.blws" horiz-adv-x="412" 
d="M-10 455v45h432v-45h-90v-120h-206q-10 0 -18 -4q-7 -5 -7 -11q0 -16 20 -42q20 -25 35 -28q41 15 75 15q62 0 106 -23q44 -24 44 -57q0 -29 -19 -49q-19 -21 -46 -21q-31 0 -53 -7q-22 -8 -22 -18t22 -18q22 -7 53 -7q29 0 40 5l5 -50q-19 -5 -45 -5q-52 0 -88 22
q-37 22 -37 53t28 53t67 22q19 0 32 6t13 14q0 13 -29 22q-29 8 -71 8q-54 0 -92 -26q-38 -27 -38 -64q0 -75 71 -127q70 -53 170 -53l-5 -45q-118 0 -202 66t-84 159q0 32 15 58q14 27 40 42q-26 22 -41 47q-14 25 -14 48q0 27 22 46t53 19h156v70h-292v0z" />
    <glyph glyph-name="uni0918_uni0930_uni094D.blwf.vatu" horiz-adv-x="481" 
d="M-10 455v45h501v-45h-85v-455h-50v143l-235 -163l-30 40l97 65q-58 4 -97 40q-40 36 -40 85q0 28 16 53q16 26 44 42q-32 11 -51 36t-19 54q0 17 6 32q7 16 19 28h-76v0zM201 135q38 0 78 24q41 23 77 66v230h-205q-25 0 -42 -18q-18 -17 -18 -42q0 -26 25 -44t60 -18h55
v-50h-40q-37 0 -64 -21q-26 -22 -26 -52q0 -31 29 -53q30 -22 71 -22v0z" />
    <glyph glyph-name="uni091A_uni0930_uni094D.blwf.vatu" horiz-adv-x="479" 
d="M-10 455v45h499v-45h-85v-455h-50v162l-260 -187l-30 40l118 79q-37 10 -60 42q-23 33 -23 74q0 36 15 66q14 29 40 44h-145v50h295v-50h-70q-38 -14 -62 -44q-23 -30 -23 -66q0 -29 21 -49q20 -21 49 -21q22 0 57 23q35 24 78 67v225h-364v0z" />
    <glyph glyph-name="uni0925_uni0930_uni094D.blwf.vatu" horiz-adv-x="529" 
d="M29 290q7 -2 27 -4l48 -1q52 0 92 31q18 14 28 34q10 19 10 40q0 18 -6 35t-18 29q-11 12 -25 19q-15 7 -31 7q-14 0 -27 -4t-23 -12q-9 -7 -15 -18q-5 -10 -5 -21q0 -9 5 -17q5 -9 13 -15t19 -10q10 -3 23 -3v-50q-24 0 -44 7q-21 6 -36 19q-14 12 -22 30t-8 39
q0 20 9 40q9 19 26 34t39 23t46 8q25 0 49 -11q24 -10 43 -30q18 -19 28 -45q10 -25 10 -54q0 -31 -14 -60q-14 -28 -40 -50q-28 -22 -61 -34q-34 -12 -70 -11q22 -51 64 -82q18 -14 38 -21q19 -7 38 -7q39 0 84 25q40 23 81 70v235h-50v45h185v-45h-85v-455h-50v137
l-300 -187l-30 40l145 89q-71 16 -117 66q-56 56 -73 145v0z" />
    <glyph glyph-name="uni0927_uni0930_uni094D.blwf.vatu" horiz-adv-x="495" 
d="M310 455v45h195v-45h-85v-455h-50v151l-266 -176l-30 40l112 72q-50 9 -83 44t-33 79q0 27 11 49q10 23 29 36q-40 28 -62 64q-23 36 -23 71q0 43 29 74q30 31 71 31q43 0 69 -23t26 -62q0 -33 -26 -57q-27 -23 -64 -23v50q17 0 28 9q12 9 12 21q0 14 -13 25
q-13 10 -32 10q-21 0 -35 -16q-15 -16 -15 -39q0 -29 20 -57t55 -48q32 15 55 15l25 -50q-46 0 -78 -23q-32 -24 -32 -57q0 -31 28 -53t67 -22q40 0 81 26q41 27 74 74v220h-60v0z" />
    <glyph glyph-name="uni0928_uni0930_uni094D.blwf.vatu" horiz-adv-x="446" 
d="M-10 455v45h466v-45h-85v-455h-50v148l-260 -148l-25 40l285 159v76h-145q-12 0 -21 -6t-9 -14v-50q0 -12 -7 -21q-8 -9 -18 -9q-17 0 -58 52q-42 52 -42 73q0 10 10 18q11 7 25 7h265v130h-331v0z" />
    <glyph glyph-name="uni0932_uni0930_uni094D.blwf.vatu" horiz-adv-x="549" 
d="M-10 455v45h569v-45h-85v-455h-50v98l-150 -83l-25 40l175 98v147q-46 0 -82 -40q-37 -39 -48 -100l-50 15q9 50 30 75q-16 24 -40 37t-50 13q-41 0 -71 -29q-29 -30 -29 -71q0 -50 33 -93q33 -42 87 -62l-20 -45q-68 25 -109 80t-41 120q0 62 44 106t106 44q37 0 70 -14
q33 -15 55 -41q10 14 40 29q29 14 75 26v105h-434v0z" />
    <glyph glyph-name="uni094B_uni0902.abvs" horiz-adv-x="200" 
d="M-10 455v45h81l-181 215l35 35l196 -250h89v-45h-85v-455h-50v455h-85v0zM100 650v70h75v-70h-75v0z" />
    <glyph glyph-name="uni094B_uni0930_uni094D.rphf.abvs" horiz-adv-x="200" 
d="M-10 455v45h81l-191 215l35 35l110 -130q7 43 40 72q32 28 75 28q20 0 55 -20v-45q-41 15 -55 15q-29 0 -49 -21q-21 -20 -21 -49q0 -18 3 -31q2 -13 7 -19l41 -50h89v-45h-85v-455h-50v455h-85v0z" />
    <glyph glyph-name="uni094B_uni0930_uni094D.rphf.abvs_uni0902.abvs" horiz-adv-x="200" 
d="M-10 455v45h86l-181 220l35 30l100 -135q7 45 40 75t75 30q6 0 22 -7l33 -13v-45q-41 15 -55 15q-29 0 -49 -21q-21 -20 -21 -49q0 -18 3 -31q2 -13 7 -19l36 -50h89v-45h-85v-455h-50v455h-85v0zM125 560v50h50v-50h-50v0z" />
    <glyph glyph-name="uni094C_uni0902.abvs" horiz-adv-x="200" 
d="M-10 455v45h75l-205 105l25 45l225 -150l-110 220l50 30l88 -250h72v-45h-85v-455h-50v455h-85v0zM135 625v70h75v-70h-75v0z" />
    <glyph glyph-name="uni094C_uni0930_uni094D.rphf.abvs" horiz-adv-x="200" 
d="M-10 455v45h75l-210 100l25 50l230 -150l-125 220l50 30l45 -105q17 34 47 55q29 20 63 20q6 0 22 -7l33 -13v-45q-41 15 -55 15q-35 0 -60 -22t-25 -53l33 -95h72v-45h-85v-455h-50v455h-85v0z" />
    <glyph glyph-name="uni094C_uni0930_uni094D.rphf.abvs_uni0902.abvs" horiz-adv-x="200" 
d="M-10 455v45h70l-205 105l20 45l235 -150l-130 220l50 30l45 -105q17 34 47 55q29 20 63 20q6 0 22 -7l33 -13v-45q-41 15 -55 15q-35 0 -60 -22t-25 -53l33 -95h77v-45h-85v-455h-50v455h-85v0zM160 555v50h50v-50h-50v0z" />
    <glyph glyph-name="uni091E_uni0930_uni094D.blwf.vatu" horiz-adv-x="554" 
d="M-10 455v45h574v-45h-85v-455h-50v94l-225 -119l-20 40l245 125v80q-41 -15 -70 -15q-24 0 -50 15q-10 -56 -51 -93t-94 -37q-39 0 -79 25t-71 70l35 35q21 -37 52 -59q31 -21 63 -21q39 0 67 29q28 30 28 71q0 35 -23 60q-24 25 -57 25q-24 0 -47 -10q-22 -11 -38 -30
l-35 40q24 24 55 37t65 13q45 0 81 -29q37 -30 49 -76q6 -7 19 -11t31 -4q22 0 40 5t30 15v180h-439v0z" />
    <glyph glyph-name="uni0923_uni0930_uni094D.blwf.vatu" horiz-adv-x="503" 
d="M-10 455v45h523v-45h-85v-455h-50v94l-225 -119l-20 40l245 125v315h-95v-210q0 -52 -34 -88q-34 -37 -81 -37q-50 0 -85 37q-35 36 -35 88v210h-58v0zM168 170q27 0 46 22t19 53v210h-135v-210q0 -31 21 -53q20 -22 49 -22v0z" />
    <glyph glyph-name="uni092F_uni0930_uni094D.blwf.vatu" horiz-adv-x="450" 
d="M-10 455v45h470v-45h-85v-455h-50v150l-235 -155l-30 35l123 75q-68 2 -116 52q-47 49 -47 118q57 0 91 22t34 58q0 24 -13 50t-37 50h-105v0zM195 145q39 0 74 21q35 22 56 59v230h-170q19 -23 30 -49q10 -26 10 -51q0 -43 -34 -77t-86 -43q7 -39 41 -65q34 -25 79 -25
v0z" />
    <glyph glyph-name="uni0937_uni0930_uni094D.blwf.vatu" horiz-adv-x="416" 
d="M-10 455v45h436v-45h-85v-455h-50v112l-230 -122l-20 40l250 127v23q-43 -30 -105 -30q-54 0 -92 38t-38 92v175h-66v0zM186 200q31 0 58 9t47 26l-185 170v-125q0 -33 23 -57q24 -23 57 -23v0zM291 290v165h-175l175 -165v0z" />
    <glyph glyph-name="uni0915_uni094D_uni0937.akhn_uni0930_uni094D.blwf.vatu" horiz-adv-x="494" 
d="M319 455v45h185v-45h-85v-455h-50v83l-60 -33l-20 40l80 40v145q-35 -20 -75 -20q-61 0 -130 40q-35 -9 -58 -33q-22 -24 -22 -52q0 -35 29 -60q28 -25 69 -25q-8 17 -8 22q0 20 15 34q14 14 35 14t35 -15q15 -14 15 -35q0 -17 -8 -32t-22 -23l50 -85l-40 -25l-60 100
q-66 0 -113 38t-47 92q0 35 25 65q24 30 65 45q-28 20 -44 44q-16 23 -16 46q0 43 31 74t74 31t74 -31t31 -74q0 -26 -16 -50t-44 -40q32 -15 80 -15q40 0 75 20v130h-50v0zM164 345q27 10 44 28q16 18 16 37q0 23 -16 39q-17 16 -40 16q-22 0 -38 -16t-16 -39q0 -14 13 -31
q13 -18 37 -34v0z" />
    <glyph glyph-name="uni091C_uni094D_uni091E.akhn_uni0930_uni094D.blwf.vatu" horiz-adv-x="534" 
d="M-10 455v45h554v-45h-85v-455h-50v70l-110 -55l-20 40l130 61v219h-290q-10 0 -18 -4q-7 -5 -7 -11q0 -20 28 -50t47 -30q36 0 50 5l20 8q19 7 25 7q23 0 39 -25t16 -60q0 -50 -42 -85q-43 -35 -103 -35q9 -20 34 -34q25 -15 61 -21l-35 -35q-66 18 -110 70q-39 0 -67 19
t-28 46q0 19 13 32t32 13q11 0 30 -14q18 -15 40 -41q53 5 89 29q36 25 36 56q0 14 -7 25q-8 10 -18 10q-8 0 -35 -10t-45 -10q-32 0 -76 48t-44 83q0 27 22 45q22 19 53 19h290v70h-419v0z" />
    <glyph glyph-name="glyph306" 
d="M-195 -20l-20 50l215 130v-60l-195 -120v0z" />
    <glyph glyph-name="glyph307" 
d="M-302 500l-185 220l35 30l200 -250h-50v0z" />
    <glyph glyph-name="glyph308" 
d="M-314 500l-215 135l30 45l220 -175l-105 215l50 30l85 -250h-65v0z" />
    <glyph glyph-name="glyph309" 
d="M-302 500l-185 215l35 35l200 -250h-50v0zM-277 650v70h75v-70h-75v0z" />
    <glyph glyph-name="glyph310" 
d="M-297 500l-195 215l35 35l110 -130q6 39 39 64q32 26 76 26q35 0 70 -20l-15 -35q-26 15 -55 15t-49 -21q-21 -20 -21 -49q0 -18 3 -31q2 -13 7 -19l45 -50h-50v0z" />
    <glyph glyph-name="glyph311" 
d="M-257 550v75h70v-75h-70v0zM-292 500l-185 220l35 30l105 -130q6 39 37 64q32 26 73 26q38 0 70 -15l-15 -40q-26 15 -55 15t-49 -21q-21 -20 -21 -49q0 -18 3 -31q2 -13 7 -19l40 -50h-45v0z" />
    <glyph glyph-name="glyph312" 
d="M-314 500l-215 105l25 45l220 -135l-105 205l50 30l90 -250h-65v0zM-254 625v70h75v-70h-75v0z" />
    <glyph glyph-name="glyph313" 
d="M-314 500l-220 100l25 50l225 -135l-120 205l50 30l45 -105q15 30 44 47q30 18 66 18q28 0 55 -10v-45q-41 15 -55 15q-35 0 -60 -22t-25 -53l35 -95h-65v0z" />
    <glyph glyph-name="glyph314" 
d="M-229 545v70h70v-70h-70v0zM-309 500l-220 110l25 40l225 -135l-120 205l50 30l45 -105q15 30 44 47q30 18 66 18q28 0 55 -10l-10 -40q-27 10 -45 10q-35 0 -60 -22t-25 -53l35 -95h-65v0z" />
    <glyph glyph-name="glyph315" 
d="M-313 625v70h75v-70h-75v0z" />
    <glyph glyph-name="glyph316" 
d="M-276 500q-26 22 -41 48q-14 26 -14 52q0 46 35 78t85 32q35 0 70 -20l-20 -35q-26 15 -50 15q-29 0 -49 -21q-21 -20 -21 -49q0 -28 19 -54q19 -27 51 -46h-65v0z" />
    <glyph glyph-name="glyph317" 
d="M-336 500q-22 22 -33 48q-12 26 -12 52q0 46 37 78q36 32 88 32q39 0 65 -15l-15 -35q-21 10 -50 10q-31 0 -53 -21q-22 -20 -22 -49q0 -24 13 -50t37 -50h-55v0zM-246 550v70h70v-70h-70v0z" />
    <glyph glyph-name="glyph318" 
d="M-275 565q-55 0 -97 38q-43 38 -53 97h50q7 -41 36 -68q28 -27 64 -27t64 27q29 27 36 68h50q-10 -59 -53 -97q-42 -38 -97 -38v0z" />
    <glyph glyph-name="glyph319" 
d="M-279 570q-59 0 -104 40q-45 39 -56 100h55q7 -41 37 -68t68 -27t68 27t37 68h55q-11 -61 -56 -100q-45 -40 -104 -40v0zM-319 680v65h75v-65h-75v0z" />
    <glyph glyph-name="glyph320" 
d="M-402 615q-55 0 -97 38q-43 38 -53 97h50q7 -41 36 -68q28 -27 64 -27q62 0 106 -42q44 -43 44 -103h-50q0 43 -29 74q-30 31 -71 31v0z" />
    <glyph glyph-name="glyph321" 
d="M-305 -225q-66 0 -132 26q-65 26 -123 74l30 40q52 -44 110 -67t115 -23q43 0 74 22t31 53q0 25 -22 42q-22 18 -53 18q-24 0 -45 -9t-35 -26l-35 35q20 24 50 37t65 13q52 0 88 -32q37 -32 37 -78q0 -52 -45 -88q-46 -37 -110 -37v0z" />
    <glyph glyph-name="glyph322" 
d="M-275 -215q-52 0 -88 32q-37 32 -37 78q0 48 37 81q36 34 88 34q80 0 161 -59q80 -59 139 -161l-45 -20q-51 88 -119 139q-69 51 -136 51q-31 0 -53 -18q-22 -19 -22 -45t22 -44t53 -18q16 0 31 7q14 6 24 18l25 -45q-14 -14 -35 -22t-45 -8v0z" />
    <glyph glyph-name="glyph323" 
d="M-331 -255q-65 0 -118 20q-52 19 -82 55l25 30q29 -29 74 -44q46 -16 101 -16q41 0 71 15q29 14 29 35q0 17 -12 28q-11 12 -28 12q-19 0 -38 -13q-19 -14 -32 -37l-30 30q16 28 43 44t57 16q33 0 57 -23q23 -24 23 -57q0 -39 -41 -67t-99 -28v0zM-451 -90l175 90
l180 -85l-20 -35l-160 75l-155 -80l-20 35v0z" />
    <glyph glyph-name="glyph324" 
d="M-255 -245q-52 0 -88 22q-37 22 -37 53q0 35 29 60q30 25 71 25q65 0 132 -37q67 -36 123 -103l-35 -25q-50 59 -108 92q-57 33 -112 33q-23 0 -39 -13t-16 -32q0 -14 19 -25q19 -10 46 -10h25l-10 -40v0zM-455 -70l175 70l180 -70l-20 -35l-160 60l-155 -65l-20 40v0z
" />
    <glyph glyph-name="glyph325" 
d="M-450 -165l135 200h65l125 -200h-50l-105 165l-110 -165h-60v0z" />
    <glyph glyph-name="glyph326" 
d="M-306 -205q-52 0 -88 34q-37 33 -37 81q0 46 40 78q39 32 95 32h45v-45h-45q-35 0 -60 -19t-25 -46t22 -46t53 -19q29 0 54 9q24 9 41 26l25 -45q-23 -19 -54 -30q-31 -10 -66 -10v0z" />
    <glyph glyph-name="glyph327" 
d="M-307 -200q-50 0 -85 21q-35 20 -35 49q0 17 14 32q13 15 36 23q-18 5 -29 19t-11 31q0 25 25 42q25 18 60 18h80v-35h-80q-17 0 -28 -7q-12 -8 -12 -18q0 -12 15 -21q14 -9 35 -9h45v-40h-45q-25 0 -42 -10q-18 -11 -18 -25q0 -12 22 -21t53 -9q32 0 57 5q24 5 38 15
l15 -35q-17 -12 -46 -19q-28 -6 -64 -6v0z" />
    <glyph glyph-name="glyph328" 
d="M-311 -75l-25 30l60 50l180 -140l-30 -30l-150 120l-35 -30v0z" />
    <glyph glyph-name="glyph329" 
d="M-215 -225q-66 0 -132 26q-65 26 -123 74l30 40q52 -44 110 -67t115 -23q43 0 74 22t31 53q0 25 -22 42q-22 18 -53 18q-24 0 -45 -9t-35 -26l-35 35q20 24 50 37t65 13q52 0 88 -32q37 -32 37 -78q0 -52 -45 -88q-46 -37 -110 -37v0z" />
    <glyph glyph-name="glyph330" 
d="M-185 -215q-52 0 -88 32q-37 32 -37 78q0 48 37 81q36 34 88 34q80 0 161 -59q80 -59 139 -161l-45 -20q-51 88 -119 139q-69 51 -136 51q-31 0 -53 -18q-22 -19 -22 -45t22 -44t53 -18q16 0 31 7q14 6 24 18l25 -45q-14 -14 -35 -22t-45 -8v0z" />
    <glyph glyph-name="glyph331" 
d="M-241 -255q-65 0 -118 20q-52 19 -82 55l25 30q29 -29 74 -44q46 -16 101 -16q41 0 71 15q29 14 29 35q0 17 -12 28q-11 12 -28 12q-19 0 -38 -13q-19 -14 -32 -37l-30 30q16 28 43 44t57 16q33 0 57 -23q23 -24 23 -57q0 -39 -41 -67t-99 -28v0zM-361 -90l175 90
l180 -85l-20 -35l-160 75l-155 -80l-20 35v0z" />
    <glyph glyph-name="glyph332" 
d="M-165 -245q-52 0 -88 22q-37 22 -37 53q0 35 29 60q30 25 71 25q65 0 132 -37q67 -36 123 -103l-35 -25q-50 59 -108 92q-57 33 -112 33q-23 0 -39 -13t-16 -32q0 -14 19 -25q19 -10 46 -10h25l-10 -40v0zM-365 -70l175 70l180 -70l-20 -35l-160 60l-155 -65l-20 40v0z
" />
    <glyph glyph-name="glyph333" 
d="M-360 -165l135 200h65l125 -200h-50l-105 165l-110 -165h-60v0z" />
    <glyph glyph-name="glyph334" 
d="M-216 -205q-52 0 -88 34q-37 33 -37 81q0 46 40 78q39 32 95 32h45v-45h-45q-35 0 -60 -19t-25 -46t22 -46t53 -19q29 0 54 9q24 9 41 26l25 -45q-23 -19 -54 -30q-31 -10 -66 -10v0z" />
    <glyph glyph-name="glyph335" 
d="M-217 -200q-50 0 -85 21q-35 20 -35 49q0 17 14 32q13 15 36 23q-18 5 -29 19t-11 31q0 25 25 42q25 18 60 18h80v-35h-80q-17 0 -28 -7q-12 -8 -12 -18q0 -12 15 -21q14 -9 35 -9h45v-40h-45q-25 0 -42 -10q-18 -11 -18 -25q0 -12 22 -21t53 -9q32 0 57 5q24 5 38 15
l15 -35q-17 -12 -46 -19q-28 -6 -64 -6v0z" />
    <glyph glyph-name="glyph336" 
d="M-245 -365q-75 0 -132 14q-56 14 -88 41l20 35q32 -27 83 -41q52 -14 117 -14q48 0 81 21q34 20 34 49q0 25 -21 42q-20 18 -49 18q-20 0 -39 -10q-20 -11 -36 -30l-25 30q24 24 50 37t50 13q46 0 78 -29q32 -30 32 -71q0 -43 -45 -74q-46 -31 -110 -31v0z" />
    <glyph glyph-name="glyph337" 
d="M-205 -345q-41 0 -71 26q-29 27 -29 64q0 39 31 67t74 28q64 0 131 -52q67 -53 119 -143l-40 -20q-46 79 -102 124q-56 46 -108 46q-25 0 -42 -15q-18 -14 -18 -35q0 -19 16 -32t39 -13q18 0 33 5t27 15l20 -40q-36 -25 -80 -25v0z" />
    <glyph glyph-name="uni0939_uni0941.psts" horiz-adv-x="396" 
d="M-10 455v45h416v-45h-80v-120h-205q-10 0 -18 -4q-7 -5 -7 -11q0 -20 15 -39t40 -31q32 15 75 15q56 0 95 -32q40 -32 40 -78q0 -26 -11 -48q-10 -21 -29 -32l-40 35q14 8 22 20t8 25q0 25 -25 42q-25 18 -60 18q-54 0 -92 -25t-38 -60q0 -46 64 -78q65 -32 156 -32
l-5 -22q43 -8 72 -35q28 -28 28 -63q0 -43 -48 -74q-49 -31 -117 -31q-49 0 -106 26q-56 26 -114 74l25 35q49 -41 99 -63q51 -22 96 -22q48 0 81 16q34 16 34 39q0 25 -21 42q-20 18 -49 18q-20 0 -39 -10q-20 -11 -36 -30l-35 30q23 19 47 32q-79 15 -131 57
q-51 42 -51 91q0 29 15 55q14 25 40 40q-26 22 -41 47q-14 25 -14 48q0 27 22 46t53 19h155v70h-286v0z" />
    <glyph glyph-name="uni0939_uni0942.psts" horiz-adv-x="396" 
d="M-10 455v45h416v-45h-80v-120h-205q-10 0 -18 -4q-7 -5 -7 -11q0 -20 15 -39t40 -31q32 15 75 15q56 0 95 -32q40 -32 40 -78q0 -26 -11 -48q-10 -21 -29 -32l-40 35q14 8 22 20t8 25q0 25 -25 42q-25 18 -60 18q-54 0 -92 -25t-38 -60q0 -46 64 -78q65 -32 156 -32
l-9 -40q89 -42 149 -145l-40 -20q-38 65 -90 102q-52 38 -105 38q-23 0 -39 -15q-16 -14 -16 -35q0 -17 15 -28q14 -12 35 -12q20 0 36 4q15 4 24 11l20 -40q-36 -25 -80 -25q-41 0 -71 26q-29 27 -29 64q0 29 18 53q19 24 49 35q-61 20 -99 58t-38 79q0 29 15 55
q14 25 40 40q-26 22 -41 47q-14 25 -14 48q0 27 22 46t53 19h155v70h-286v0z" />
    <glyph glyph-name="glyph340" 
d="M-302 505v235h50v-235h-50v0z" />
    <glyph glyph-name="glyph341" 
d="M-372 505v235h50v-235h-50v0zM-232 505v235h50v-235h-50v0z" />
    <glyph glyph-name="glyph342" 
d="M-343 -230q-53 22 -84 62q-32 40 -32 84t28 75q27 31 66 31q23 0 43 -10t33 -28q12 18 32 28q21 10 45 10q39 0 67 -35q28 -36 28 -86q0 -39 -23 -69q-23 -31 -60 -40q-23 -6 -37 -22q-15 -17 -15 -37t15 -34t37 -14q41 0 68 19l12 -33q-37 -26 -80 -26q-38 0 -65 26
t-27 62q0 35 22 61q22 27 56 33q25 4 41 25t16 49q0 34 -16 57q-16 24 -39 24q-25 0 -48 -28q-22 -28 -32 -71l-32 15q6 27 18 51q-9 15 -25 24t-34 9q-22 0 -38 -19q-16 -20 -16 -47q0 -34 25 -64q24 -31 65 -48l-14 -34v0z" />
    <glyph glyph-name="glyph343" 
d="M-343 -230q-53 22 -84 62q-32 40 -32 84q0 45 28 77q27 32 66 32q24 0 45 -11t34 -30q12 19 31 30t40 11q42 0 72 -34q30 -33 30 -81q0 -45 -28 -79q-27 -35 -70 -42q-11 -2 -19 -9q-7 -7 -7 -15q0 -12 11 -20t26 -8h24v-29h-24q-15 0 -26 -9t-11 -21q0 -10 11 -18
q11 -7 26 -7q44 0 73 20l14 -36q-34 -24 -87 -24q-32 0 -54 19q-23 19 -23 46q0 15 8 27t22 17q-13 4 -22 16q-8 12 -8 27q0 23 17 41q17 17 42 19q28 2 46 27q19 24 19 58q0 31 -18 53t-44 22q-22 0 -43 -27q-20 -28 -30 -71l-36 11q6 27 18 51q-10 17 -26 26
q-16 10 -33 10q-22 0 -38 -20t-16 -49q0 -34 25 -65q25 -30 66 -48l-15 -33v0z" />
  </font>
</defs>
</svg>
